<svg xmlns="http://www.w3.org/2000/svg" xmlns:xlink="http://www.w3.org/1999/xlink" preserveAspectRatio="xMidYMid" width="31.75" height="32" viewBox="0 0 31.75 32">
  <defs>
    <style>
      .cls-1 {
        fill: #1b1b1b;
        fill-rule: evenodd;
      }
    </style>
  </defs>
  <path d="M31.346,23.777 C31.168,23.912 30.959,23.976 30.753,23.976 C30.451,23.976 30.153,23.838 29.958,23.576 L28.483,21.591 C27.283,27.417 22.188,31.820 16.071,31.918 C15.929,31.970 15.782,31.999 15.644,31.999 C15.493,31.999 15.372,31.959 15.268,31.899 C9.327,31.623 4.423,27.289 3.248,21.589 L1.772,23.576 C1.577,23.838 1.279,23.976 0.977,23.976 C0.771,23.976 0.562,23.912 0.384,23.777 C-0.054,23.447 -0.144,22.821 0.184,22.381 L3.174,18.357 C3.188,18.338 3.210,18.328 3.225,18.311 C3.270,18.259 3.320,18.218 3.374,18.176 C3.423,18.138 3.469,18.102 3.524,18.074 C3.582,18.045 3.642,18.028 3.705,18.010 C3.748,17.998 3.784,17.973 3.828,17.966 C3.853,17.963 3.876,17.972 3.900,17.971 C3.923,17.969 3.944,17.957 3.968,17.957 C4.011,17.957 4.047,17.976 4.089,17.981 C4.155,17.990 4.218,17.999 4.281,18.020 C4.346,18.042 4.402,18.073 4.460,18.107 C4.494,18.127 4.533,18.134 4.565,18.158 L8.500,21.149 C8.937,21.480 9.024,22.107 8.694,22.546 C8.363,22.986 7.742,23.075 7.305,22.741 L5.177,21.124 C6.117,25.822 10.046,29.442 14.875,29.883 L14.875,9.000 L10.875,9.000 C10.328,9.000 9.696,8.598 9.696,8.047 C9.696,7.495 10.140,7.049 10.687,7.049 L13.360,7.049 C12.474,6.321 11.899,5.227 11.899,3.987 C11.899,1.786 13.678,-0.005 15.865,-0.005 C18.052,-0.005 19.831,1.786 19.831,3.987 C19.831,5.227 19.255,6.321 18.368,7.049 L20.601,7.049 C21.149,7.049 21.593,7.495 21.593,8.047 C21.593,8.598 21.423,9.000 20.875,9.000 L16.875,9.000 L16.875,29.882 C21.695,29.433 25.614,25.816 26.553,21.124 L24.425,22.741 C23.988,23.075 23.365,22.986 23.036,22.546 C22.706,22.107 22.793,21.480 23.230,21.149 L27.165,18.158 C27.196,18.135 27.234,18.128 27.268,18.109 C27.327,18.073 27.385,18.042 27.452,18.020 C27.513,17.999 27.574,17.990 27.639,17.982 C27.681,17.976 27.718,17.957 27.762,17.957 C27.786,17.957 27.807,17.969 27.830,17.971 C27.854,17.972 27.878,17.963 27.901,17.966 C27.945,17.973 27.982,17.998 28.025,18.010 C28.088,18.028 28.148,18.045 28.205,18.074 C28.260,18.102 28.307,18.138 28.356,18.176 C28.410,18.218 28.460,18.259 28.504,18.311 C28.520,18.328 28.542,18.338 28.556,18.357 L31.546,22.381 C31.873,22.821 31.784,23.447 31.346,23.777 ZM17.848,3.987 C17.848,2.887 16.958,1.991 15.865,1.991 C14.771,1.991 13.882,2.887 13.882,3.987 C13.882,5.087 14.771,5.980 15.865,5.980 C16.958,5.980 17.848,5.087 17.848,3.987 Z" class="cls-1"/>
</svg>
