<svg xmlns="http://www.w3.org/2000/svg" xmlns:xlink="http://www.w3.org/1999/xlink" preserveAspectRatio="xMidYMid" width="31.719" height="27.938" viewBox="0 0 31.719 27.938">
  <defs>
    <style>
      .cls-1 {
        fill: #1b1b1b;
        fill-rule: evenodd;
      }
    </style>
  </defs>
  <path d="M31.659,27.001 C31.629,27.530 31.194,27.940 30.672,27.940 C30.662,27.940 30.651,27.940 30.641,27.940 C30.105,27.923 29.680,27.478 29.683,26.938 C29.683,26.905 29.637,23.189 26.626,20.338 C24.049,17.899 20.078,16.770 14.843,16.938 L14.843,22.952 C14.843,23.340 14.620,23.694 14.270,23.857 C14.137,23.920 13.995,23.950 13.854,23.950 C13.624,23.950 13.397,23.869 13.215,23.714 L0.353,12.740 C0.131,12.550 0.003,12.272 0.003,11.978 C0.003,11.685 0.131,11.407 0.353,11.217 L13.215,0.243 C13.508,-0.008 13.920,-0.065 14.270,0.100 C14.620,0.263 14.843,0.616 14.843,1.005 L14.843,7.016 C17.129,7.148 22.959,7.925 27.167,12.318 C30.513,15.812 32.024,20.751 31.659,27.001 ZM25.756,13.717 C21.145,8.890 13.989,8.985 13.921,8.985 C13.907,8.986 13.896,8.979 13.883,8.980 C13.873,8.980 13.864,8.986 13.854,8.986 C13.815,8.986 13.788,8.966 13.752,8.961 C13.282,8.908 12.921,8.501 12.910,8.010 C12.906,7.838 12.958,7.682 13.031,7.539 L13.031,2.938 L2.524,11.978 L13.031,20.938 L13.031,16.500 C12.943,16.360 12.877,16.206 12.866,16.029 C12.840,15.593 13.100,15.216 13.478,15.058 C13.523,15.035 13.580,15.030 13.632,15.017 C13.687,15.004 13.736,14.977 13.794,14.973 C13.814,14.972 13.832,14.973 13.852,14.972 C13.853,14.972 13.853,14.971 13.854,14.971 C13.854,14.971 13.855,14.972 13.855,14.972 C20.118,14.604 24.880,15.927 28.012,18.914 C28.453,19.334 28.840,19.768 29.181,20.207 C28.559,17.626 27.416,15.455 25.756,13.717 Z" class="cls-1"/>
</svg>
