<svg xmlns="http://www.w3.org/2000/svg" xmlns:xlink="http://www.w3.org/1999/xlink" preserveAspectRatio="xMidYMid" width="31.719" height="27.938" viewBox="0 0 31.719 27.938">
  <defs>
    <style>
      .cls-1 {
        fill: #1b1b1b;
        fill-rule: evenodd;
      }
    </style>
  </defs>
  <path d="M31.375,12.739 L18.514,23.714 C18.332,23.869 18.105,23.950 17.875,23.950 C17.734,23.950 17.592,23.920 17.459,23.858 C17.109,23.694 16.886,23.341 16.886,22.953 L16.886,16.937 C11.654,16.767 7.679,17.899 5.103,20.339 C2.092,23.189 2.046,26.905 2.046,26.942 C2.045,27.482 1.619,27.924 1.084,27.939 C1.075,27.939 1.066,27.939 1.056,27.939 C0.534,27.939 0.100,27.530 0.069,27.002 C-0.295,20.752 1.216,15.811 4.562,12.318 C8.770,7.923 14.600,7.143 16.886,7.013 L16.886,1.003 C16.886,0.615 17.109,0.262 17.459,0.098 C17.809,-0.066 18.221,-0.010 18.514,0.242 L31.375,11.216 C31.598,11.406 31.726,11.685 31.726,11.978 C31.726,12.271 31.598,12.550 31.375,12.739 ZM18.864,3.155 L18.864,7.987 C18.864,8.416 18.593,8.774 18.216,8.915 C18.167,8.936 18.112,8.936 18.059,8.947 C17.997,8.960 17.940,8.985 17.875,8.985 C17.865,8.985 17.856,8.979 17.846,8.979 C17.832,8.978 17.822,8.985 17.808,8.984 C17.737,8.978 10.584,8.888 5.973,13.717 C4.313,15.455 3.169,17.625 2.548,20.207 C2.889,19.769 3.276,19.334 3.717,18.914 C6.850,15.927 11.609,14.602 17.874,14.971 C17.874,14.971 17.874,14.971 17.875,14.971 C17.876,14.971 17.876,14.971 17.877,14.971 C17.897,14.973 17.915,14.972 17.935,14.973 C17.992,14.976 18.040,15.003 18.093,15.015 C18.159,15.031 18.226,15.039 18.286,15.067 C18.344,15.094 18.389,15.135 18.440,15.172 C18.493,15.210 18.548,15.241 18.592,15.289 C18.635,15.335 18.662,15.390 18.695,15.443 C18.730,15.498 18.769,15.548 18.793,15.610 C18.816,15.670 18.820,15.736 18.831,15.801 C18.841,15.858 18.864,15.909 18.864,15.969 L18.864,20.801 L29.205,11.978 L18.864,3.155 Z" class="cls-1"/>
</svg>
