<svg xmlns="http://www.w3.org/2000/svg" xmlns:xlink="http://www.w3.org/1999/xlink" preserveAspectRatio="xMidYMid" width="26" height="32" viewBox="0 0 26 32">
  <defs>
    <style>
      .cls-1 {
        fill: #1b1b1b;
        fill-rule: evenodd;
      }
    </style>
  </defs>
  <path d="M24.000,32.000 L2.000,32.000 C0.897,32.000 -0.000,31.103 -0.000,30.000 L-0.000,8.000 C-0.000,6.897 0.897,6.000 2.000,6.000 L8.000,6.000 L8.000,3.000 C8.000,1.346 9.346,-0.000 11.000,-0.000 L15.000,-0.000 C16.654,-0.000 18.000,1.346 18.000,3.000 L18.000,6.000 L24.000,6.000 C25.103,6.000 26.000,6.897 26.000,8.000 L26.000,30.000 C26.000,31.103 25.103,32.000 24.000,32.000 ZM16.000,3.000 C16.000,2.449 15.551,2.000 15.000,2.000 L11.000,2.000 C10.449,2.000 10.000,2.449 10.000,3.000 L10.000,6.000 L16.000,6.000 L16.000,3.000 ZM18.000,8.000 L18.000,9.000 C18.000,9.552 17.552,10.000 17.000,10.000 C16.448,10.000 16.000,9.552 16.000,9.000 L16.000,8.000 L10.000,8.000 L10.000,9.000 C10.000,9.552 9.552,10.000 9.000,10.000 C8.448,10.000 8.000,9.552 8.000,9.000 L8.000,8.000 L2.000,8.000 L2.000,30.000 L23.997,30.000 L24.000,8.000 L18.000,8.000 Z" class="cls-1"/>
</svg>
