<svg xmlns="http://www.w3.org/2000/svg" xmlns:xlink="http://www.w3.org/1999/xlink" preserveAspectRatio="xMidYMid" width="32" height="32" viewBox="0 0 32 32">
  <defs>
    <style>
      .cls-1 {
        fill: #1b1b1b;
        fill-rule: evenodd;
      }
    </style>
  </defs>
  <path d="M16.000,32.000 C7.178,32.000 0.000,24.822 0.000,16.000 C0.000,7.178 7.178,0.000 16.000,0.000 C24.822,0.000 32.000,7.178 32.000,16.000 C32.000,24.822 24.822,32.000 16.000,32.000 ZM2.000,16.000 C2.000,23.720 8.280,30.000 16.000,30.000 C19.501,30.000 22.697,28.700 25.154,26.568 L5.432,6.846 C3.300,9.303 2.000,12.499 2.000,16.000 ZM16.000,2.000 C12.499,2.000 9.303,3.300 6.846,5.432 L26.568,25.154 C28.700,22.697 30.000,19.501 30.000,16.000 C30.000,8.280 23.720,2.000 16.000,2.000 Z" class="cls-1"/>
</svg>
