<svg xmlns="http://www.w3.org/2000/svg" xmlns:xlink="http://www.w3.org/1999/xlink" preserveAspectRatio="xMidYMid" width="31.969" height="32" viewBox="0 0 31.969 32">
  <defs>
    <style>
      .cls-1 {
        fill: #1b1b1b;
        fill-rule: evenodd;
      }
    </style>
  </defs>
  <path d="M31.916,10.271 L27.974,24.271 C27.852,24.702 27.460,25.000 27.012,25.000 L13.927,25.000 C13.927,25.000 13.927,25.000 13.927,25.000 C13.927,25.000 13.927,25.000 13.926,25.000 C13.803,25.000 13.684,24.972 13.572,24.928 C13.534,24.914 13.502,24.892 13.466,24.873 C13.396,24.836 13.332,24.794 13.272,24.742 C13.238,24.712 13.209,24.680 13.180,24.645 C13.131,24.590 13.092,24.529 13.056,24.463 C13.034,24.420 13.012,24.379 12.996,24.333 C12.988,24.310 12.972,24.292 12.966,24.269 L9.133,10.493 C9.048,10.345 8.985,10.183 8.985,10.000 C8.985,9.992 8.990,9.985 8.990,9.977 L7.103,3.195 C6.929,2.570 6.180,2.000 5.531,2.000 L0.996,2.000 C0.445,2.000 -0.002,1.553 -0.002,1.000 C-0.002,0.447 0.445,0.000 0.996,0.000 L5.531,0.000 C7.076,0.000 8.611,1.167 9.026,2.658 L10.791,9.000 L13.085,9.000 L20.287,2.269 C20.671,1.911 21.266,1.911 21.650,2.269 L28.852,9.000 L30.954,9.000 C31.267,9.000 31.562,9.147 31.750,9.397 C31.939,9.646 32.001,9.970 31.916,10.271 ZM20.968,4.368 L16.013,9.000 L25.924,9.000 L20.968,4.368 ZM11.347,11.000 L14.685,23.000 L26.257,23.000 L29.635,11.000 L11.347,11.000 ZM15.476,27.000 C16.853,27.000 17.973,28.121 17.973,29.500 C17.973,30.879 16.853,32.000 15.476,32.000 C14.099,32.000 12.980,30.879 12.980,29.500 C12.980,28.121 14.099,27.000 15.476,27.000 ZM24.463,27.000 C25.840,27.000 26.960,28.121 26.960,29.500 C26.960,30.879 25.840,32.000 24.463,32.000 C23.086,32.000 21.967,30.879 21.967,29.500 C21.967,28.121 23.086,27.000 24.463,27.000 Z" class="cls-1"/>
</svg>
