<svg xmlns="http://www.w3.org/2000/svg" xmlns:xlink="http://www.w3.org/1999/xlink" preserveAspectRatio="xMidYMid" width="27.876" height="32" viewBox="0 0 27.876 32">
  <defs>
    <style>
      .cls-1 {
        fill: #1b1b1b;
        fill-rule: evenodd;
      }
    </style>
  </defs>
  <path d="M27.643,26.251 C27.354,26.727 26.829,27.000 26.202,27.000 L18.904,27.000 C18.904,29.757 16.671,32.000 13.926,32.000 C11.183,32.000 8.950,29.757 8.950,27.000 L1.652,27.000 C1.025,27.000 0.501,26.727 0.211,26.251 C-0.075,25.781 -0.078,25.197 0.202,24.648 L3.836,17.543 C3.872,17.473 3.927,17.424 3.976,17.367 L3.976,9.998 C3.976,4.485 8.439,-0.000 13.926,-0.000 C19.414,-0.000 23.879,4.485 23.879,9.998 L23.879,17.367 C23.927,17.424 23.983,17.473 24.019,17.543 L27.652,24.648 C27.932,25.197 27.929,25.781 27.643,26.251 ZM13.926,30.000 C15.573,30.000 16.914,28.654 16.914,27.000 L10.941,27.000 C10.941,28.654 12.280,30.000 13.926,30.000 ZM22.248,18.457 C22.231,18.425 22.232,18.389 22.220,18.356 C22.019,18.173 21.888,17.916 21.888,17.622 L21.888,9.998 C21.888,5.588 18.317,2.000 13.926,2.000 C9.537,2.000 5.966,5.588 5.966,9.998 L5.966,17.622 C5.966,17.916 5.835,18.173 5.635,18.356 C5.622,18.389 5.623,18.425 5.607,18.457 L2.261,24.999 L25.594,25.000 L22.248,18.457 Z" class="cls-1"/>
</svg>
