<svg xmlns="http://www.w3.org/2000/svg" xmlns:xlink="http://www.w3.org/1999/xlink" preserveAspectRatio="xMidYMid" width="32" height="31.938" viewBox="0 0 32 31.938">
  <defs>
    <style>
      .cls-1 {
        fill: #1b1b1b;
        fill-rule: evenodd;
      }
    </style>
  </defs>
  <path d="M30.216,29.101 L16.196,31.914 C16.131,31.926 16.067,31.932 16.004,31.933 C16.003,31.933 16.002,31.933 16.001,31.933 C16.001,31.933 16.000,31.933 16.000,31.933 C16.000,31.933 15.999,31.933 15.999,31.933 C15.998,31.933 15.997,31.933 15.996,31.933 C15.933,31.932 15.869,31.926 15.804,31.914 L1.784,29.101 C0.784,28.901 -0.000,27.942 -0.000,26.918 L-0.000,1.842 C-0.000,1.278 0.238,0.758 0.654,0.416 C1.069,0.074 1.623,-0.060 2.177,0.053 L15.723,2.770 C15.813,2.744 15.902,2.714 16.000,2.714 C16.098,2.714 16.187,2.744 16.277,2.770 L29.823,0.053 C30.377,-0.061 30.930,0.074 31.346,0.416 C31.762,0.758 32.000,1.278 32.000,1.842 L32.000,26.918 C32.000,27.942 31.216,28.901 30.216,29.101 ZM15.000,4.671 L2.000,2.063 L2.000,26.918 C2.000,26.990 2.106,27.120 2.177,27.134 L15.000,29.707 L15.000,4.671 ZM30.000,2.063 L17.000,4.671 L17.000,29.707 L29.823,27.134 C29.894,27.120 30.000,26.990 30.000,26.918 L30.000,2.063 ZM27.196,22.555 L20.196,23.960 C20.130,23.973 20.064,23.979 19.999,23.979 C19.532,23.979 19.115,23.650 19.020,23.173 C18.911,22.630 19.262,22.102 19.804,21.993 L26.804,20.588 C27.348,20.478 27.872,20.832 27.981,21.375 C28.089,21.918 27.738,22.447 27.196,22.555 ZM27.196,16.036 L20.196,17.440 C20.130,17.453 20.064,17.460 19.999,17.460 C19.532,17.460 19.115,17.130 19.020,16.654 C18.911,16.110 19.262,15.582 19.804,15.473 L26.804,14.069 C27.348,13.962 27.872,14.312 27.981,14.855 C28.089,15.398 27.738,15.927 27.196,16.036 ZM27.196,9.516 L20.196,10.921 C20.130,10.934 20.064,10.940 19.999,10.940 C19.532,10.940 19.115,10.611 19.020,10.134 C18.911,9.591 19.262,9.062 19.804,8.954 L26.804,7.549 C27.348,7.441 27.872,7.793 27.981,8.336 C28.089,8.879 27.738,9.407 27.196,9.516 ZM5.196,7.549 L12.196,8.954 C12.738,9.062 13.089,9.591 12.980,10.134 C12.885,10.611 12.468,10.940 12.001,10.940 C11.936,10.940 11.870,10.934 11.804,10.921 L4.804,9.516 C4.262,9.407 3.911,8.879 4.020,8.336 C4.128,7.793 4.650,7.441 5.196,7.549 ZM5.196,14.069 L12.196,15.473 C12.738,15.582 13.089,16.110 12.980,16.654 C12.885,17.130 12.468,17.460 12.001,17.460 C11.936,17.460 11.870,17.453 11.804,17.440 L4.804,16.036 C4.262,15.927 3.911,15.398 4.020,14.855 C4.128,14.312 4.650,13.961 5.196,14.069 ZM5.196,20.588 L12.196,21.993 C12.738,22.102 13.089,22.630 12.980,23.173 C12.885,23.650 12.468,23.979 12.001,23.979 C11.936,23.979 11.870,23.973 11.804,23.960 L4.804,22.555 C4.262,22.447 3.911,21.918 4.020,21.375 C4.128,20.832 4.650,20.478 5.196,20.588 Z" class="cls-1"/>
</svg>
