<svg xmlns="http://www.w3.org/2000/svg" xmlns:xlink="http://www.w3.org/1999/xlink" preserveAspectRatio="xMidYMid" width="32" height="30" viewBox="0 0 32 30">
  <defs>
    <style>
      .cls-1 {
        fill: #1b1b1b;
        fill-rule: evenodd;
      }
    </style>
  </defs>
  <path d="M30.000,30.000 L2.000,30.000 C0.897,30.000 -0.000,29.103 -0.000,28.000 L-0.000,7.000 C-0.000,5.897 0.897,5.000 2.000,5.000 L10.000,5.000 L10.000,3.000 C10.000,1.346 11.346,-0.000 13.000,-0.000 L19.000,-0.000 C20.654,-0.000 22.000,1.346 22.000,3.000 L22.000,5.000 L30.000,5.000 C31.103,5.000 32.000,5.897 32.000,7.000 L32.000,28.000 C32.000,29.103 31.103,30.000 30.000,30.000 ZM2.000,28.000 L29.997,28.000 L29.999,16.000 L19.000,16.000 L19.000,17.000 C19.000,18.654 17.654,20.000 16.000,20.000 C15.202,20.000 14.450,19.686 13.882,19.116 C13.313,18.546 13.000,17.794 13.000,17.000 L13.000,16.000 L2.000,16.000 L2.000,28.000 ZM15.000,17.000 C15.000,17.261 15.106,17.511 15.298,17.704 C15.488,17.895 15.738,18.000 16.000,18.000 C16.551,18.000 17.000,17.551 17.000,17.000 L17.000,14.000 C17.000,13.739 16.894,13.488 16.702,13.295 C16.512,13.106 16.261,13.000 16.000,13.000 C15.449,13.000 15.000,13.449 15.000,14.000 L15.000,17.000 ZM20.000,3.000 C20.000,2.449 19.551,2.000 19.000,2.000 L13.000,2.000 C12.449,2.000 12.000,2.449 12.000,3.000 L12.000,5.000 L20.000,5.000 L20.000,3.000 ZM2.000,7.000 L2.000,14.000 L13.000,14.000 C13.000,12.346 14.346,11.000 16.000,11.000 C16.792,11.000 17.543,11.312 18.115,11.880 C18.688,12.455 19.000,13.207 19.000,14.000 L29.999,14.000 L30.000,7.000 L2.000,7.000 Z" class="cls-1"/>
</svg>
