<svg xmlns="http://www.w3.org/2000/svg" xmlns:xlink="http://www.w3.org/1999/xlink" preserveAspectRatio="xMidYMid" width="32" height="30" viewBox="0 0 32 30">
  <defs>
    <style>
      .cls-1 {
        fill: #1b1b1b;
        fill-rule: evenodd;
      }
    </style>
  </defs>
  <path d="M27.027,24.558 C27.194,25.792 27.596,26.701 27.926,27.272 C28.304,27.915 28.661,28.243 28.664,28.246 C28.962,28.515 29.072,28.939 28.941,29.318 C28.811,29.697 28.469,29.963 28.069,29.991 C28.043,29.993 27.933,30.000 27.754,30.000 C26.716,30.000 23.373,29.770 20.932,26.993 L19.000,26.993 C15.904,26.993 13.217,25.840 11.508,24.873 C11.027,24.601 10.857,23.991 11.130,23.511 C11.401,23.030 12.012,22.861 12.492,23.132 C13.993,23.981 16.340,24.993 19.000,24.993 L21.400,24.993 C21.708,24.993 21.998,25.134 22.187,25.376 C23.315,26.816 24.763,27.470 25.923,27.764 C25.379,26.661 25.060,25.431 24.973,24.098 C24.948,23.719 25.140,23.358 25.469,23.167 C28.349,21.495 30.000,19.066 30.000,16.502 C30.000,14.780 29.334,12.965 28.218,11.648 C27.860,11.227 27.913,10.596 28.334,10.239 C28.756,9.879 29.389,9.934 29.743,10.355 C31.178,12.047 32.000,14.288 32.000,16.502 C32.000,19.620 30.196,22.527 27.027,24.558 ZM13.000,21.000 L11.070,21.000 C8.621,23.782 5.247,24.006 4.237,24.006 C4.237,24.006 4.237,24.006 4.236,24.006 C4.042,24.006 3.934,23.998 3.934,23.998 C3.533,23.968 3.187,23.701 3.058,23.321 C2.929,22.940 3.037,22.519 3.338,22.253 C3.390,22.205 4.653,21.016 4.977,18.562 C1.805,16.533 0.000,13.625 0.000,10.501 C0.000,4.711 5.832,0.000 13.000,0.000 C20.168,0.000 26.000,4.711 26.000,10.501 C26.000,16.290 20.168,21.000 13.000,21.000 ZM13.000,2.000 C6.935,2.000 2.000,5.814 2.000,10.501 C2.000,13.069 3.652,15.499 6.532,17.168 C6.860,17.358 7.053,17.717 7.029,18.096 C6.934,19.638 6.525,20.859 6.074,21.767 C7.244,21.471 8.691,20.815 9.814,19.383 C10.004,19.141 10.294,19.000 10.602,19.000 L13.000,19.000 C19.065,19.000 24.000,15.187 24.000,10.501 C24.000,5.814 19.065,2.000 13.000,2.000 Z" class="cls-1"/>
</svg>
