<svg xmlns="http://www.w3.org/2000/svg" xmlns:xlink="http://www.w3.org/1999/xlink" preserveAspectRatio="xMidYMid" width="20" height="30" viewBox="0 0 20 30">
  <defs>
    <style>
      .cls-1 {
        fill: #1b1b1b;
        fill-rule: evenodd;
      }
    </style>
  </defs>
  <path d="M15.311,19.200 C15.154,19.393 15.001,20.120 14.999,20.711 L14.999,26.111 C14.999,26.164 14.996,26.216 14.987,26.267 C14.784,27.558 13.479,30.000 10.000,30.000 C6.521,30.000 5.216,27.558 5.013,26.267 C5.004,26.216 5.001,26.164 5.001,26.111 L5.001,20.709 C4.998,20.119 4.846,19.393 4.688,19.197 C1.621,16.872 0.000,13.831 0.000,10.396 C0.000,4.664 4.486,-0.000 10.000,-0.000 C15.514,-0.000 20.000,4.664 20.000,10.396 C20.000,13.830 18.379,16.872 15.311,19.200 ZM10.000,28.000 C12.426,28.000 12.921,26.366 12.999,26.018 L12.999,23.523 C12.009,23.859 11.043,24.004 10.155,24.004 C8.909,24.004 7.817,23.755 7.001,23.490 L7.001,26.014 C7.087,26.386 7.601,28.000 10.000,28.000 ZM10.000,2.000 C5.589,2.000 2.000,5.767 2.000,10.396 C2.000,13.936 4.148,16.292 5.951,17.646 C5.978,17.666 6.004,17.688 6.028,17.710 C6.930,18.542 7.001,20.216 7.001,20.709 L7.001,21.366 C8.034,21.796 10.476,22.543 12.999,21.383 L12.999,20.709 C12.999,20.216 13.070,18.543 13.971,17.709 C13.995,17.686 14.022,17.664 14.049,17.644 C15.852,16.292 18.000,13.937 18.000,10.396 C18.000,5.767 14.411,2.000 10.000,2.000 Z" class="cls-1"/>
</svg>
