<svg xmlns="http://www.w3.org/2000/svg" xmlns:xlink="http://www.w3.org/1999/xlink" preserveAspectRatio="xMidYMid" width="32" height="32" viewBox="0 0 32 32">
  <defs>
    <style>
      .cls-1 {
        fill: #1b1b1b;
        fill-rule: evenodd;
      }
    </style>
  </defs>
  <path d="M30.000,32.000 L2.000,32.000 C0.897,32.000 -0.000,31.102 -0.000,30.000 L-0.000,2.000 C-0.000,0.898 0.897,0.000 2.000,0.000 L30.000,0.000 C31.103,0.000 32.000,0.898 32.000,2.000 L32.000,30.000 C32.000,31.102 31.103,32.000 30.000,32.000 ZM2.000,2.000 L2.000,30.000 L29.997,30.000 L30.000,2.000 L2.000,2.000 ZM24.899,25.000 L18.899,25.000 C18.347,25.000 17.899,24.553 17.899,24.000 C17.899,23.447 18.347,23.000 18.899,23.000 L24.899,23.000 C25.452,23.000 25.899,23.447 25.899,24.000 C25.899,24.553 25.452,25.000 24.899,25.000 ZM24.899,21.000 L18.899,21.000 C18.347,21.000 17.899,20.553 17.899,20.000 C17.899,19.447 18.347,19.000 18.899,19.000 L24.899,19.000 C25.452,19.000 25.899,19.447 25.899,20.000 C25.899,20.553 25.452,21.000 24.899,21.000 ZM24.899,11.000 L18.899,11.000 C18.347,11.000 17.899,10.553 17.899,10.000 C17.899,9.447 18.347,9.000 18.899,9.000 L24.899,9.000 C25.452,9.000 25.899,9.447 25.899,10.000 C25.899,10.553 25.452,11.000 24.899,11.000 ZM13.707,25.707 C13.512,25.902 13.256,26.000 13.000,26.000 C12.744,26.000 12.488,25.902 12.293,25.707 L10.000,23.414 L7.707,25.707 C7.512,25.902 7.256,26.000 7.000,26.000 C6.744,26.000 6.488,25.902 6.293,25.707 C5.902,25.316 5.902,24.684 6.293,24.293 L8.586,22.000 L6.293,19.707 C5.902,19.316 5.902,18.684 6.293,18.293 C6.684,17.902 7.316,17.902 7.707,18.293 L10.000,20.586 L12.293,18.293 C12.684,17.902 13.316,17.902 13.707,18.293 C14.098,18.684 14.098,19.316 13.707,19.707 L11.414,22.000 L13.707,24.293 C14.098,24.684 14.098,25.316 13.707,25.707 ZM13.000,11.000 L11.000,11.000 L11.000,13.000 C11.000,13.553 10.552,14.000 10.000,14.000 C9.448,14.000 9.000,13.553 9.000,13.000 L9.000,11.000 L7.000,11.000 C6.448,11.000 6.000,10.553 6.000,10.000 C6.000,9.447 6.448,9.000 7.000,9.000 L9.000,9.000 L9.000,7.000 C9.000,6.447 9.448,6.000 10.000,6.000 C10.552,6.000 11.000,6.447 11.000,7.000 L11.000,9.000 L13.000,9.000 C13.552,9.000 14.000,9.447 14.000,10.000 C14.000,10.553 13.552,11.000 13.000,11.000 Z" class="cls-1"/>
</svg>
