<svg xmlns="http://www.w3.org/2000/svg" xmlns:xlink="http://www.w3.org/1999/xlink" preserveAspectRatio="xMidYMid" width="31.844" height="31.906" viewBox="0 0 31.844 31.906">
  <defs>
    <style>
      .cls-1 {
        fill: #1b1b1b;
        fill-rule: evenodd;
      }
    </style>
  </defs>
  <path d="M31.552,1.699 L22.296,10.965 L26.864,10.965 C27.414,10.965 27.860,11.411 27.860,11.962 C27.860,12.513 27.414,12.959 26.864,12.959 L19.892,12.959 C19.763,12.959 19.633,12.933 19.512,12.882 C19.268,12.781 19.074,12.587 18.973,12.343 C18.923,12.221 18.896,12.092 18.896,11.962 L18.896,4.982 C18.896,4.431 19.342,3.985 19.892,3.985 C20.442,3.985 20.888,4.431 20.888,4.982 L20.888,9.555 L30.143,0.289 C30.532,-0.101 31.163,-0.101 31.552,0.289 C31.941,0.678 31.941,1.309 31.552,1.699 ZM10.191,12.807 L19.046,21.673 L23.360,19.055 C23.727,18.833 24.196,18.869 24.524,19.152 L31.496,25.134 C31.698,25.308 31.822,25.555 31.841,25.821 C31.860,26.087 31.772,26.350 31.595,26.549 L27.658,31.032 C27.644,31.049 27.602,31.092 27.587,31.106 C27.058,31.636 26.326,31.905 25.411,31.905 C22.002,31.905 15.714,27.905 9.765,21.949 C3.144,15.319 -2.067,7.112 0.782,4.258 L5.285,0.248 C5.485,0.071 5.745,-0.014 6.014,-0.001 C6.280,0.017 6.528,0.141 6.702,0.343 L12.708,7.323 C12.990,7.650 13.029,8.122 12.805,8.491 L10.191,12.807 ZM5.853,2.412 L2.175,5.681 C0.995,6.866 3.900,13.254 11.174,20.539 C17.320,26.691 22.988,29.911 25.411,29.911 C25.664,29.911 26.002,29.874 26.179,29.696 L29.433,25.991 L23.775,21.135 L19.410,23.784 C19.019,24.020 18.514,23.961 18.190,23.636 L8.231,13.664 C7.906,13.340 7.845,12.835 8.083,12.442 L10.727,8.076 L5.853,2.412 Z" class="cls-1"/>
</svg>
