<svg xmlns="http://www.w3.org/2000/svg" xmlns:xlink="http://www.w3.org/1999/xlink" preserveAspectRatio="xMidYMid" width="31.907" height="32" viewBox="0 0 31.907 32">
  <defs>
    <style>
      .cls-1 {
        fill: #1b1b1b;
        fill-rule: evenodd;
      }
    </style>
  </defs>
  <path d="M6.009,32.000 C5.767,32.000 5.533,31.912 5.350,31.751 L0.864,27.798 C0.848,27.784 0.804,27.742 0.789,27.727 C-2.065,24.866 3.239,16.559 9.954,9.832 C15.823,3.951 22.047,0.000 25.441,0.000 C26.371,0.000 27.117,0.274 27.656,0.815 L31.672,5.336 C31.849,5.536 31.939,5.800 31.921,6.066 C31.903,6.334 31.779,6.583 31.576,6.758 L24.591,12.789 C24.264,13.071 23.792,13.109 23.422,12.887 L19.102,10.262 L10.230,19.150 L12.850,23.481 C13.074,23.852 13.035,24.322 12.754,24.650 L6.767,31.650 C6.593,31.854 6.345,31.978 6.079,31.997 C6.056,31.999 6.033,32.000 6.009,32.000 ZM25.441,2.000 C23.031,2.000 17.424,5.176 11.365,11.246 C4.090,18.534 1.031,25.141 2.200,26.313 L5.909,29.580 L10.769,23.899 L8.118,19.517 C7.880,19.122 7.941,18.616 8.266,18.291 L18.245,8.293 C18.570,7.966 19.076,7.909 19.468,8.145 L23.837,10.800 L29.506,5.905 L26.266,2.250 C26.016,2.035 25.688,2.000 25.441,2.000 Z" class="cls-1"/>
</svg>
