<svg xmlns="http://www.w3.org/2000/svg" xmlns:xlink="http://www.w3.org/1999/xlink" preserveAspectRatio="xMidYMid" width="31.844" height="31.906" viewBox="0 0 31.844 31.906">
  <defs>
    <style>
      .cls-1 {
        fill: #1b1b1b;
        fill-rule: evenodd;
      }
    </style>
  </defs>
  <path d="M31.844,0.994 L31.844,7.974 C31.844,8.525 31.398,8.971 30.848,8.971 C30.298,8.971 29.853,8.525 29.853,7.974 L29.853,3.401 L20.597,12.667 C20.403,12.862 20.148,12.959 19.893,12.959 C19.638,12.959 19.383,12.862 19.189,12.667 C18.800,12.278 18.800,11.647 19.189,11.257 L28.444,1.991 L23.877,1.991 C23.327,1.991 22.881,1.545 22.881,0.994 C22.881,0.443 23.327,-0.003 23.877,-0.003 L30.848,-0.003 C30.978,-0.003 31.107,0.023 31.229,0.073 C31.473,0.175 31.667,0.369 31.768,0.613 C31.817,0.733 31.842,0.860 31.843,0.987 C31.843,0.989 31.844,0.991 31.844,0.994 ZM10.192,12.808 L19.047,21.673 L23.361,19.055 C23.727,18.833 24.197,18.869 24.525,19.152 L31.497,25.134 C31.699,25.308 31.823,25.555 31.842,25.821 C31.860,26.087 31.772,26.350 31.596,26.549 L27.659,31.032 C27.645,31.049 27.603,31.092 27.588,31.106 C27.059,31.636 26.327,31.905 25.412,31.905 C22.003,31.905 15.715,27.905 9.766,21.949 C3.145,15.319 -2.066,7.112 0.783,4.258 L5.286,0.248 C5.486,0.071 5.747,-0.014 6.014,-0.001 C6.280,0.017 6.528,0.141 6.703,0.343 L12.709,7.323 C12.990,7.650 13.030,8.122 12.806,8.491 L10.192,12.808 ZM5.854,2.412 L2.176,5.682 C0.996,6.866 3.901,13.254 11.175,20.539 C17.321,26.691 22.989,29.911 25.412,29.911 C25.664,29.911 26.003,29.874 26.180,29.697 L29.434,25.991 L23.776,21.135 L19.411,23.784 C19.019,24.020 18.515,23.961 18.191,23.636 L8.232,13.664 C7.907,13.340 7.846,12.835 8.084,12.442 L10.728,8.076 L5.854,2.412 Z" class="cls-1"/>
</svg>
