<svg xmlns="http://www.w3.org/2000/svg" xmlns:xlink="http://www.w3.org/1999/xlink" preserveAspectRatio="xMidYMid" width="19.907" height="32" viewBox="0 0 19.907 32">
  <defs>
    <style>
      .cls-1 {
        fill: #1b1b1b;
        fill-rule: evenodd;
      }
    </style>
  </defs>
  <path d="M19.794,31.447 C19.625,31.786 19.281,32.000 18.905,32.000 L1.008,32.000 C0.631,32.000 0.288,31.786 0.119,31.447 C-0.049,31.108 -0.013,30.703 0.213,30.400 L5.979,22.667 L5.979,13.000 L4.985,13.000 C4.436,13.000 3.991,12.553 3.991,12.000 C3.991,11.447 4.436,11.000 4.985,11.000 L6.974,11.000 C7.523,11.000 7.968,11.447 7.968,12.000 L7.968,23.000 C7.968,23.217 7.898,23.427 7.769,23.600 L2.997,30.000 L16.916,30.000 L12.144,23.600 C12.015,23.427 11.945,23.217 11.945,23.000 L11.945,12.000 C11.945,11.447 12.390,11.000 12.939,11.000 L14.928,11.000 C15.477,11.000 15.922,11.447 15.922,12.000 C15.922,12.553 15.477,13.000 14.928,13.000 L13.933,13.000 L13.933,22.667 L19.700,30.400 C19.926,30.703 19.962,31.108 19.794,31.447 ZM15.438,7.000 C13.520,7.000 11.959,5.430 11.959,3.500 C11.959,1.570 13.520,-0.000 15.438,-0.000 C17.357,-0.000 18.918,1.570 18.918,3.500 C18.918,5.430 17.357,7.000 15.438,7.000 ZM15.438,2.000 C14.616,2.000 13.947,2.673 13.947,3.500 C13.947,4.327 14.616,5.000 15.438,5.000 C16.261,5.000 16.930,4.327 16.930,3.500 C16.930,2.673 16.261,2.000 15.438,2.000 ZM8.962,9.000 C7.866,9.000 6.974,8.103 6.974,7.000 C6.974,5.897 7.866,5.000 8.962,5.000 C10.058,5.000 10.951,5.897 10.951,7.000 C10.951,8.103 10.058,9.000 8.962,9.000 Z" class="cls-1"/>
</svg>
