<svg xmlns="http://www.w3.org/2000/svg" xmlns:xlink="http://www.w3.org/1999/xlink" preserveAspectRatio="xMidYMid" width="32" height="32" viewBox="0 0 32 32">
  <defs>
    <style>
      .cls-1 {
        fill: #1b1b1b;
        fill-rule: evenodd;
      }
    </style>
  </defs>
  <path d="M16.000,32.000 C7.178,32.000 -0.000,24.822 -0.000,16.000 C-0.000,7.178 7.178,-0.000 16.000,-0.000 C24.822,-0.000 32.000,7.178 32.000,16.000 C32.000,24.822 24.822,32.000 16.000,32.000 ZM16.000,2.000 C8.280,2.000 2.000,8.280 2.000,16.000 C2.000,23.720 8.280,30.000 16.000,30.000 C23.720,30.000 30.000,23.720 30.000,16.000 C30.000,8.280 23.720,2.000 16.000,2.000 ZM21.071,23.070 C20.785,23.070 20.501,22.948 20.303,22.711 L15.232,16.641 C15.202,16.604 15.191,16.560 15.167,16.520 C15.130,16.461 15.093,16.405 15.068,16.338 C15.044,16.271 15.036,16.203 15.027,16.133 C15.021,16.087 15.000,16.047 15.000,16.000 L15.000,7.000 C15.000,6.448 15.448,6.000 16.000,6.000 C16.552,6.000 17.000,6.448 17.000,7.000 L17.000,15.637 L21.838,21.429 C22.192,21.853 22.135,22.484 21.711,22.838 C21.524,22.994 21.297,23.070 21.071,23.070 Z" class="cls-1"/>
</svg>
