<svg xmlns="http://www.w3.org/2000/svg" xmlns:xlink="http://www.w3.org/1999/xlink" preserveAspectRatio="xMidYMid" width="32" height="32" viewBox="0 0 32 32">
  <defs>
    <style>
      .cls-1 {
        fill: #1b1b1b;
        fill-rule: evenodd;
      }
    </style>
  </defs>
  <path d="M16.000,32.000 C7.178,32.000 0.000,24.822 0.000,16.000 C0.000,7.178 7.178,0.000 16.000,0.000 C24.822,0.000 32.000,7.178 32.000,16.000 C32.000,24.822 24.822,32.000 16.000,32.000 ZM16.000,2.000 C8.280,2.000 2.000,8.280 2.000,16.000 C2.000,23.720 8.280,30.000 16.000,30.000 C23.720,30.000 30.000,23.720 30.000,16.000 C30.000,8.280 23.720,2.000 16.000,2.000 ZM21.707,21.707 C21.512,21.902 21.256,22.000 21.000,22.000 C20.744,22.000 20.488,21.902 20.293,21.707 L16.000,17.414 L11.707,21.707 C11.512,21.902 11.256,22.000 11.000,22.000 C10.744,22.000 10.488,21.902 10.293,21.707 C9.902,21.316 9.902,20.684 10.293,20.293 L14.586,16.000 L10.293,11.707 C9.902,11.316 9.902,10.684 10.293,10.293 C10.684,9.902 11.316,9.902 11.707,10.293 L16.000,14.586 L20.293,10.293 C20.684,9.902 21.316,9.902 21.707,10.293 C22.098,10.684 22.098,11.316 21.707,11.707 L17.414,16.000 L21.707,20.293 C22.098,20.684 22.098,21.316 21.707,21.707 Z" class="cls-1"/>
</svg>
