<svg xmlns="http://www.w3.org/2000/svg" xmlns:xlink="http://www.w3.org/1999/xlink" preserveAspectRatio="xMidYMid" width="32" height="32" viewBox="0 0 32 32">
  <defs>
    <style>
      .cls-1 {
        fill: #1b1b1b;
        fill-rule: evenodd;
      }
    </style>
  </defs>
  <path d="M16.000,32.000 C7.178,32.000 -0.000,24.822 -0.000,16.000 C-0.000,7.178 7.178,-0.000 16.000,-0.000 C24.822,-0.000 32.000,7.178 32.000,16.000 C32.000,24.822 24.822,32.000 16.000,32.000 ZM16.000,2.000 C8.280,2.000 2.000,8.280 2.000,16.000 C2.000,23.720 8.280,30.000 16.000,30.000 C23.720,30.000 30.000,23.720 30.000,16.000 C30.000,8.280 23.720,2.000 16.000,2.000 ZM19.488,18.999 C19.389,19.215 19.215,19.389 18.999,19.488 L9.419,23.908 C9.285,23.970 9.142,24.000 9.001,24.000 C8.740,24.000 8.484,23.899 8.293,23.707 C7.997,23.411 7.917,22.961 8.092,22.581 L12.512,13.001 C12.611,12.785 12.785,12.611 13.001,12.512 L22.581,8.092 C22.962,7.917 23.411,7.997 23.707,8.293 C24.003,8.589 24.084,9.039 23.908,9.419 L19.488,18.999 ZM16.859,18.273 L13.727,15.141 L11.044,20.956 L16.859,18.273 ZM15.141,13.727 L18.273,16.859 L20.956,11.044 L15.141,13.727 Z" class="cls-1"/>
</svg>
