<svg xmlns="http://www.w3.org/2000/svg" xmlns:xlink="http://www.w3.org/1999/xlink" preserveAspectRatio="xMidYMid" width="32" height="22" viewBox="0 0 32 22">
  <defs>
    <style>
      .cls-1 {
        fill: #1b1b1b;
        fill-rule: evenodd;
      }
    </style>
  </defs>
  <path d="M29.000,22.000 L3.000,22.000 C1.346,22.000 0.000,20.654 0.000,19.000 L0.000,3.000 C0.000,1.346 1.346,-0.000 3.000,-0.000 L29.000,-0.000 C30.654,-0.000 32.000,1.346 32.000,3.000 L32.000,19.000 C32.000,20.654 30.654,22.000 29.000,22.000 ZM3.000,20.000 L29.000,20.000 C29.552,20.000 30.000,19.552 30.000,19.000 L30.000,8.000 L2.000,8.000 L2.000,19.000 C2.000,19.552 2.449,20.000 3.000,20.000 ZM30.000,3.000 C30.000,2.448 29.552,2.000 29.000,2.000 L3.000,2.000 C2.449,2.000 2.000,2.448 2.000,3.000 L2.000,5.000 L30.000,5.000 L30.000,3.000 Z" class="cls-1"/>
</svg>
