<svg xmlns="http://www.w3.org/2000/svg" xmlns:xlink="http://www.w3.org/1999/xlink" preserveAspectRatio="xMidYMid" width="32" height="32" viewBox="0 0 32 32">
  <defs>
    <style>
      .cls-1 {
        fill: #1b1b1b;
        fill-rule: evenodd;
      }
    </style>
  </defs>
  <path d="M31.000,27.000 L27.000,27.000 L27.000,31.000 C27.000,31.553 26.552,32.000 26.000,32.000 C25.448,32.000 25.000,31.553 25.000,31.000 L25.000,27.000 L7.002,27.000 C5.899,27.000 5.002,26.103 5.002,25.000 L5.002,7.002 L1.000,7.002 C0.448,7.002 -0.000,6.555 -0.000,6.002 C-0.000,5.449 0.448,5.002 1.000,5.002 L5.002,5.002 L5.002,1.000 C5.002,0.447 5.450,0.000 6.002,0.000 C6.554,0.000 7.002,0.447 7.002,1.000 L7.002,5.002 L25.000,5.002 C25.178,5.002 25.347,5.033 25.511,5.077 L28.293,2.295 C28.684,1.904 29.316,1.904 29.707,2.295 C30.098,2.685 30.098,3.318 29.707,3.709 L26.925,6.491 C26.969,6.655 27.000,6.824 27.000,7.002 L27.000,25.000 L31.000,25.000 C31.552,25.000 32.000,25.447 32.000,26.000 C32.000,26.553 31.552,27.000 31.000,27.000 ZM7.002,7.002 L7.002,23.586 L23.586,7.002 L7.002,7.002 ZM8.416,25.000 L25.000,25.000 L25.000,8.416 L8.416,25.000 Z" class="cls-1"/>
</svg>
