<svg xmlns="http://www.w3.org/2000/svg" xmlns:xlink="http://www.w3.org/1999/xlink" preserveAspectRatio="xMidYMid" width="32" height="32" viewBox="0 0 32 32">
  <defs>
    <style>
      .cls-1 {
        fill: #1b1b1b;
        fill-rule: evenodd;
      }
    </style>
  </defs>
  <path d="M26.004,26.000 L23.986,26.000 L23.986,27.000 C23.986,29.757 21.744,32.000 18.988,32.000 L4.996,32.000 C2.241,32.000 -0.001,29.757 -0.001,27.000 L-0.001,15.000 L-0.001,14.000 L-0.001,11.000 C-0.001,9.897 0.896,9.000 1.998,9.000 L21.987,9.000 C23.089,9.000 23.986,9.897 23.986,11.000 L23.986,14.000 L26.004,14.000 C29.311,14.000 32.000,16.691 32.000,20.000 C32.000,23.309 29.311,26.000 26.004,26.000 ZM21.987,11.000 L1.998,11.000 L1.998,14.000 L1.998,15.000 L1.998,27.000 C1.998,28.654 3.343,30.000 4.996,30.000 L18.988,30.000 C20.642,30.000 21.987,28.654 21.987,27.000 L21.987,15.000 L21.987,14.000 L21.987,11.000 ZM26.004,16.000 L23.986,16.000 L23.986,24.000 L26.004,24.000 C28.208,24.000 30.002,22.206 30.002,20.000 C30.002,17.794 28.208,16.000 26.004,16.000 ZM17.989,6.940 C17.437,6.940 16.990,6.492 16.990,5.940 L16.990,1.000 C16.990,0.447 17.437,0.000 17.989,0.000 C18.541,0.000 18.988,0.447 18.988,1.000 L18.988,5.940 C18.988,6.492 18.541,6.940 17.989,6.940 ZM11.992,6.940 C11.441,6.940 10.993,6.492 10.993,5.940 L10.993,1.000 C10.993,0.447 11.441,0.000 11.992,0.000 C12.544,0.000 12.992,0.447 12.992,1.000 L12.992,5.940 C12.992,6.492 12.544,6.940 11.992,6.940 ZM5.996,6.940 C5.444,6.940 4.996,6.492 4.996,5.940 L4.996,1.000 C4.996,0.447 5.444,0.000 5.996,0.000 C6.548,0.000 6.995,0.447 6.995,1.000 L6.995,5.940 C6.995,6.492 6.548,6.940 5.996,6.940 Z" class="cls-1"/>
</svg>
