<svg xmlns="http://www.w3.org/2000/svg" xmlns:xlink="http://www.w3.org/1999/xlink" preserveAspectRatio="xMidYMid" width="31.876" height="31.906" viewBox="0 0 31.876 31.906">
  <defs>
    <style>
      .cls-1 {
        fill: #1b1b1b;
        fill-rule: evenodd;
      }
    </style>
  </defs>
  <path d="M31.868,10.011 C31.866,10.040 31.856,10.066 31.852,10.096 C31.833,10.248 31.784,10.381 31.708,10.497 C31.699,10.512 31.701,10.531 31.691,10.546 L16.744,31.488 C16.743,31.490 16.740,31.491 16.738,31.494 C16.655,31.607 16.546,31.693 16.426,31.763 C16.397,31.779 16.370,31.793 16.340,31.807 C16.213,31.864 16.078,31.905 15.933,31.905 C15.787,31.905 15.653,31.864 15.526,31.807 C15.496,31.793 15.468,31.779 15.440,31.763 C15.319,31.693 15.210,31.607 15.128,31.494 C15.126,31.491 15.123,31.490 15.121,31.488 L0.175,10.546 C0.162,10.528 0.165,10.505 0.154,10.487 C0.077,10.368 0.027,10.232 0.010,10.077 C0.008,10.051 -0.003,10.028 -0.004,10.002 C-0.004,9.989 -0.010,9.980 -0.010,9.967 C-0.010,9.805 0.038,9.658 0.106,9.523 C0.113,9.510 0.109,9.495 0.116,9.483 L5.098,0.537 C5.109,0.516 5.132,0.508 5.145,0.488 C5.215,0.380 5.304,0.289 5.412,0.214 C5.454,0.186 5.494,0.164 5.539,0.141 C5.579,0.122 5.610,0.090 5.653,0.076 C5.731,0.050 5.809,0.054 5.886,0.047 C5.915,0.045 5.939,0.025 5.969,0.025 L26.221,0.004 C26.222,0.004 26.222,0.004 26.223,0.004 C26.595,0.004 26.936,0.212 27.108,0.541 L31.764,9.508 C31.769,9.518 31.765,9.529 31.770,9.539 C31.833,9.670 31.876,9.812 31.876,9.967 C31.876,9.983 31.868,9.995 31.868,10.011 ZM28.985,10.906 L23.651,10.906 L18.976,24.929 L28.985,10.906 ZM15.933,2.643 L11.011,8.971 L20.855,8.971 L15.933,2.643 ZM15.933,27.759 L21.552,10.906 L10.314,10.906 L15.933,27.759 ZM12.889,24.930 L8.214,10.906 L2.881,10.906 L12.889,24.930 ZM5.832,3.759 L2.720,8.971 L7.569,8.971 L5.832,3.759 ZM7.314,1.906 L9.314,7.907 L13.982,1.906 L7.314,1.906 ZM17.883,1.906 L22.551,7.907 L24.552,1.906 L17.883,1.906 ZM26.357,2.791 L24.297,8.971 L29.281,8.971 L26.357,2.791 Z" class="cls-1"/>
</svg>
