<svg xmlns="http://www.w3.org/2000/svg" xmlns:xlink="http://www.w3.org/1999/xlink" preserveAspectRatio="xMidYMid" width="30" height="32" viewBox="0 0 30 32">
  <defs>
    <style>
      .cls-1 {
        fill: #1b1b1b;
        fill-rule: evenodd;
      }
    </style>
  </defs>
  <path d="M29.600,10.800 L21.600,16.800 C21.558,16.831 21.511,16.845 21.468,16.869 C21.429,16.890 21.394,16.913 21.353,16.929 C21.238,16.972 21.120,17.000 21.001,17.000 C21.001,17.000 21.001,17.000 21.001,17.000 C21.000,17.000 21.000,17.000 21.000,17.000 L15.000,17.000 L15.000,31.000 C15.000,31.553 14.553,32.000 14.000,32.000 C13.447,32.000 13.000,31.553 13.000,31.000 L13.000,17.000 L1.010,17.000 C0.457,17.000 0.000,16.543 0.000,15.990 L0.000,4.010 C0.000,3.457 0.457,3.000 1.010,3.000 L13.000,3.000 L13.000,1.000 C13.000,0.447 13.447,-0.000 14.000,-0.000 C14.553,-0.000 15.000,0.447 15.000,1.000 L15.000,3.000 L21.000,3.000 C21.041,3.000 21.076,3.018 21.115,3.023 C21.182,3.031 21.246,3.041 21.311,3.063 C21.379,3.085 21.438,3.116 21.499,3.152 C21.531,3.171 21.569,3.177 21.600,3.200 L29.600,9.200 C29.852,9.389 30.000,9.686 30.000,10.000 C30.000,10.315 29.852,10.611 29.600,10.800 ZM20.667,5.000 L2.000,5.000 L2.000,15.000 L20.667,15.000 L27.333,10.000 L20.667,5.000 Z" class="cls-1"/>
</svg>
