<svg xmlns="http://www.w3.org/2000/svg" xmlns:xlink="http://www.w3.org/1999/xlink" preserveAspectRatio="xMidYMid" width="32" height="32" viewBox="0 0 32 32">
  <defs>
    <style>
      .cls-1 {
        fill: #1b1b1b;
        fill-rule: evenodd;
      }
    </style>
  </defs>
  <path d="M31.658,8.253 L27.658,11.753 C27.610,11.795 27.552,11.816 27.499,11.848 C27.454,11.874 27.416,11.907 27.367,11.926 C27.249,11.973 27.125,12.000 27.000,12.000 L17.000,12.000 L17.000,14.000 L24.990,14.000 C25.543,14.000 26.000,14.457 26.000,15.010 L26.000,21.990 C26.000,22.543 25.543,23.000 24.990,23.000 L17.000,23.000 L17.000,31.000 C17.000,31.553 16.553,32.000 16.000,32.000 C15.447,32.000 15.000,31.553 15.000,31.000 L15.000,23.000 L5.000,23.000 C4.875,23.000 4.751,22.973 4.633,22.926 C4.584,22.907 4.545,22.874 4.501,22.848 C4.447,22.816 4.390,22.795 4.342,22.753 L0.342,19.253 C0.124,19.062 0.000,18.788 0.000,18.500 C0.000,18.212 0.124,17.938 0.342,17.747 L4.342,14.247 C4.380,14.213 4.427,14.201 4.469,14.174 C4.527,14.136 4.582,14.096 4.648,14.071 C4.722,14.043 4.797,14.035 4.873,14.026 C4.917,14.020 4.955,14.000 5.000,14.000 L15.000,14.000 L15.000,12.000 L7.010,12.000 C6.457,12.000 6.000,11.543 6.000,10.990 L6.000,4.010 C6.000,3.457 6.457,3.000 7.010,3.000 L15.000,3.000 L15.000,1.000 C15.000,0.447 15.447,-0.000 16.000,-0.000 C16.553,-0.000 17.000,0.447 17.000,1.000 L17.000,3.000 L27.000,3.000 C27.047,3.000 27.088,3.021 27.133,3.027 C27.207,3.037 27.279,3.044 27.350,3.071 C27.418,3.096 27.474,3.137 27.534,3.176 C27.574,3.202 27.621,3.214 27.658,3.247 L31.658,6.747 C31.876,6.937 32.000,7.212 32.000,7.500 C32.000,7.788 31.876,8.063 31.658,8.253 ZM5.376,16.000 L2.519,18.500 L5.376,21.000 L24.000,21.000 L24.000,16.000 L5.376,16.000 ZM26.624,5.000 L8.000,5.000 L8.000,10.000 L26.624,10.000 L29.481,7.500 L26.624,5.000 Z" class="cls-1"/>
</svg>
