<svg xmlns="http://www.w3.org/2000/svg" xmlns:xlink="http://www.w3.org/1999/xlink" preserveAspectRatio="xMidYMid" width="32" height="32" viewBox="0 0 32 32">
  <defs>
    <style>
      .cls-1 {
        fill: #1b1b1b;
        fill-rule: evenodd;
      }
    </style>
  </defs>
  <path d="M30.442,22.889 C30.442,22.890 30.442,22.891 30.441,22.893 C30.441,22.893 30.440,22.893 30.440,22.894 C29.236,25.421 27.366,27.605 25.035,29.205 C25.034,29.205 25.034,29.206 25.033,29.206 C25.033,29.206 25.033,29.207 25.032,29.207 C25.032,29.207 25.031,29.208 25.030,29.208 C22.361,31.035 19.239,32.000 16.000,32.000 C7.178,32.000 -0.000,24.822 -0.000,16.000 C-0.000,10.707 2.619,5.760 7.006,2.764 C9.672,0.955 12.781,-0.000 16.000,-0.000 C24.822,-0.000 32.000,7.178 32.000,16.000 C32.000,18.417 31.476,20.735 30.442,22.889 ZM28.152,22.906 L19.052,18.554 C19.038,18.571 19.025,18.588 19.011,18.605 L24.693,26.935 C26.096,25.817 27.267,24.449 28.152,22.906 ZM14.000,16.000 C14.000,17.103 14.897,18.000 16.000,18.000 C17.103,18.000 18.000,17.103 18.000,16.000 C18.000,14.897 17.103,14.000 16.000,14.000 C14.897,14.000 14.000,14.897 14.000,16.000 ZM2.000,16.000 C2.000,23.720 8.280,30.000 16.000,30.000 C18.498,30.000 20.901,29.308 23.038,28.058 L17.367,19.744 C16.939,19.901 16.482,20.000 16.000,20.000 C13.794,20.000 12.000,18.206 12.000,16.000 C12.000,15.732 12.029,15.470 12.079,15.217 L3.004,10.872 C2.362,12.484 2.000,14.214 2.000,16.000 ZM3.878,9.073 L12.966,13.423 C12.985,13.401 13.002,13.378 13.021,13.356 L7.342,5.030 C5.921,6.156 4.762,7.538 3.878,9.073 ZM16.000,2.000 C13.521,2.000 11.133,2.683 9.003,3.916 L14.682,12.241 C15.097,12.095 15.536,12.000 16.000,12.000 C18.206,12.000 20.000,13.794 20.000,16.000 C20.000,16.258 19.971,16.509 19.924,16.753 L29.019,21.104 C29.658,19.485 30.000,17.776 30.000,16.000 C30.000,8.280 23.720,2.000 16.000,2.000 Z" class="cls-1"/>
</svg>
