<svg xmlns="http://www.w3.org/2000/svg" xmlns:xlink="http://www.w3.org/1999/xlink" preserveAspectRatio="xMidYMid" width="31" height="33" viewBox="0 0 31 33">
  <defs>
    <style>
      .cls-1 {
        fill: #1b1b1b;
        fill-rule: evenodd;
      }
    </style>
  </defs>
  <path d="M14.994,33.001 C14.898,33.001 14.799,32.994 14.699,32.979 C13.309,32.776 10.970,31.725 10.970,26.969 C10.970,24.902 11.414,22.431 11.720,20.976 L4.962,20.976 C2.195,20.976 0.956,19.189 0.956,17.417 C0.956,16.546 1.229,15.866 1.616,15.347 C0.715,14.797 0.001,13.857 0.001,12.407 C0.001,11.108 0.622,10.200 1.497,9.648 C1.169,9.164 0.956,8.536 0.956,7.740 C0.956,5.954 1.980,4.904 3.135,4.390 C3.025,4.094 2.959,3.754 2.959,3.370 C2.959,-0.001 7.169,-0.001 8.967,-0.001 L14.976,-0.001 C17.300,-0.001 18.998,0.619 20.496,1.165 C21.718,1.611 22.772,1.996 23.989,1.996 L27.994,1.996 C28.260,1.996 28.515,2.102 28.702,2.289 C28.796,2.383 30.999,4.641 30.999,9.988 C30.999,15.159 29.937,17.336 29.891,17.427 C29.754,17.702 29.495,17.899 29.193,17.960 C29.145,17.969 24.439,18.942 21.692,21.682 C19.032,24.336 17.287,28.559 16.994,31.184 C16.878,32.220 16.018,33.001 14.994,33.001 ZM3.913,10.987 C3.468,10.987 2.004,11.089 2.004,12.407 C2.004,13.874 3.565,13.977 3.878,13.983 C4.384,13.993 4.807,14.377 4.859,14.879 C4.911,15.381 4.583,15.843 4.090,15.956 C3.911,16.002 2.959,16.302 2.959,17.417 C2.959,18.409 3.688,18.978 4.962,18.978 L12.973,18.978 C13.281,18.978 13.572,19.119 13.762,19.362 C13.952,19.604 14.019,19.920 13.944,20.219 C13.935,20.258 12.973,24.133 12.973,26.969 C12.973,28.671 13.322,30.749 14.982,31.001 C15.343,27.921 17.263,23.276 20.276,20.270 C22.889,17.663 26.812,16.487 28.251,16.127 C28.507,15.347 28.996,13.409 28.996,9.988 C28.996,6.551 27.979,4.676 27.509,3.994 L23.989,3.994 C22.417,3.994 21.091,3.510 19.808,3.042 C18.400,2.528 16.945,1.996 14.976,1.996 L8.967,1.996 C4.962,1.996 4.962,2.924 4.962,3.370 C4.962,3.900 5.314,4.070 5.318,4.072 C5.756,4.255 6.004,4.720 5.913,5.185 C5.822,5.650 5.415,5.987 4.941,5.992 C4.615,6.000 2.959,6.121 2.959,7.740 C2.959,8.883 3.807,8.982 3.977,8.990 C4.522,9.016 4.947,9.475 4.929,10.020 C4.913,10.559 4.469,10.987 3.929,10.987 C3.924,10.987 3.918,10.987 3.913,10.987 Z" class="cls-1"/>
</svg>
