<svg xmlns="http://www.w3.org/2000/svg" xmlns:xlink="http://www.w3.org/1999/xlink" preserveAspectRatio="xMidYMid" width="24" height="32" viewBox="0 0 24 32">
  <defs>
    <style>
      .cls-1 {
        fill: #1b1b1b;
        fill-rule: evenodd;
      }
    </style>
  </defs>
  <path d="M24.001,10.052 C24.001,10.087 23.984,10.117 23.981,10.151 L23.981,29.980 C23.981,31.094 23.073,32.001 21.957,32.001 L2.023,32.001 C0.907,32.001 -0.001,31.094 -0.001,29.980 L-0.001,2.097 C-0.001,0.982 0.884,-0.000 2.000,-0.000 L14.000,-0.000 C14.321,-0.000 14.590,0.186 14.770,0.442 L23.579,9.238 C23.611,9.260 23.626,9.299 23.655,9.324 C23.684,9.351 23.707,9.382 23.733,9.413 C23.887,9.588 24.001,9.800 24.001,10.052 ZM1.998,29.980 L22.000,30.000 L22.000,11.000 L14.000,11.000 C13.448,11.000 12.989,10.603 12.989,10.052 L12.989,2.000 L2.000,2.000 L1.998,29.980 ZM14.988,3.482 L14.988,9.054 L20.569,9.054 L14.988,3.482 Z" class="cls-1"/>
</svg>
