<svg xmlns="http://www.w3.org/2000/svg" xmlns:xlink="http://www.w3.org/1999/xlink" preserveAspectRatio="xMidYMid" width="32" height="31.938" viewBox="0 0 32 31.938">
  <defs>
    <style>
      .cls-1 {
        fill: #1b1b1b;
        fill-rule: evenodd;
      }
    </style>
  </defs>
  <path d="M31.981,9.088 L31.981,25.952 C31.981,27.052 31.084,27.947 29.982,27.947 L23.986,27.947 C23.433,27.947 22.986,27.501 22.986,26.950 C22.986,26.398 23.433,25.952 23.986,25.952 L29.982,25.952 L29.982,9.989 L22.986,9.989 C22.434,9.989 21.987,9.543 21.987,8.991 L21.987,1.938 L12.000,1.938 C11.448,1.938 10.993,1.561 10.993,1.010 C10.993,0.458 11.440,0.012 11.993,0.012 L22.986,0.012 C23.008,0.012 23.026,0.023 23.047,0.024 C23.138,0.030 23.226,0.048 23.313,0.078 C23.345,0.089 23.376,0.097 23.406,0.111 C23.508,0.158 23.603,0.218 23.686,0.299 C23.689,0.302 23.692,0.303 23.694,0.306 L31.580,8.177 C31.612,8.199 31.628,8.238 31.656,8.264 C31.685,8.291 31.707,8.322 31.733,8.352 C31.887,8.527 32.001,8.739 32.001,8.991 C32.001,9.026 31.985,9.055 31.981,9.088 ZM23.986,3.418 L23.986,7.994 L28.569,7.994 L23.986,3.418 ZM12.053,4.015 C12.145,4.021 12.232,4.038 12.319,4.069 C12.351,4.080 12.382,4.088 12.413,4.102 C12.514,4.149 12.610,4.209 12.692,4.290 C12.695,4.293 12.698,4.294 12.701,4.297 L20.586,12.168 C20.618,12.190 20.634,12.229 20.663,12.255 C20.692,12.282 20.714,12.312 20.739,12.342 C20.893,12.518 21.007,12.730 21.007,12.982 C21.007,13.016 20.991,13.045 20.988,13.079 L20.988,29.943 C20.988,31.043 20.091,31.938 18.989,31.938 L1.998,31.938 C0.897,31.938 -0.000,31.043 -0.000,29.943 L-0.000,5.998 C-0.000,4.898 0.897,4.003 1.998,4.003 L11.993,4.003 C12.014,4.003 12.032,4.014 12.053,4.015 ZM12.992,7.409 L12.992,11.984 L17.575,11.984 L12.992,7.409 ZM10.993,12.982 L10.993,5.938 L2.000,5.938 L1.998,29.943 L18.989,29.943 L18.989,13.938 L12.000,13.938 C11.448,13.938 10.993,13.533 10.993,12.982 Z" class="cls-1"/>
</svg>
