<svg xmlns="http://www.w3.org/2000/svg" xmlns:xlink="http://www.w3.org/1999/xlink" preserveAspectRatio="xMidYMid" width="32" height="27" viewBox="0 0 32 27">
  <defs>
    <style>
      .cls-1 {
        fill: #1b1b1b;
        fill-rule: evenodd;
      }
    </style>
  </defs>
  <path d="M24.128,23.922 C24.075,23.928 23.350,24.000 22.146,24.000 L21.000,24.000 C20.447,24.000 20.000,23.552 20.000,23.000 C20.000,22.448 20.447,22.000 21.000,22.000 L22.146,22.000 C23.237,22.000 23.897,21.935 23.903,21.935 C27.369,21.500 30.000,18.518 30.000,15.000 C30.000,11.140 26.859,8.000 23.000,8.000 C22.868,8.000 22.736,8.008 22.604,8.023 C22.143,8.073 21.701,7.801 21.547,7.360 C20.423,4.154 17.390,2.000 14.000,2.000 C9.589,2.000 6.000,5.589 6.000,10.000 C6.000,10.367 6.032,10.743 6.098,11.149 C6.177,11.635 5.892,12.106 5.425,12.260 C3.376,12.935 2.000,14.841 2.000,17.000 C2.000,19.757 4.243,22.000 7.000,22.000 L11.000,22.000 C11.552,22.000 12.000,22.448 12.000,23.000 C12.000,23.552 11.552,24.000 11.000,24.000 L7.000,24.000 C3.140,24.000 0.000,20.860 0.000,17.000 C0.000,14.256 1.588,11.805 4.026,10.667 C4.009,10.441 4.000,10.220 4.000,10.000 C4.000,4.486 8.486,-0.000 14.000,-0.000 C17.987,-0.000 21.579,2.383 23.160,6.001 C28.049,6.087 32.000,10.091 32.000,15.000 C32.000,19.524 28.616,23.359 24.128,23.922 ZM11.293,18.707 C10.902,18.316 10.902,17.684 11.293,17.293 L15.292,13.294 C15.385,13.201 15.495,13.128 15.618,13.077 C15.862,12.976 16.138,12.976 16.382,13.077 C16.505,13.128 16.615,13.201 16.708,13.294 L20.707,17.293 C21.098,17.684 21.098,18.316 20.707,18.707 C20.512,18.902 20.256,19.000 20.000,19.000 C19.744,19.000 19.488,18.902 19.293,18.707 L17.000,16.414 L17.000,26.000 C17.000,26.552 16.552,27.000 16.000,27.000 C15.448,27.000 15.000,26.552 15.000,26.000 L15.000,16.414 L12.707,18.707 C12.316,19.098 11.684,19.098 11.293,18.707 Z" class="cls-1"/>
</svg>
