<svg xmlns="http://www.w3.org/2000/svg" xmlns:xlink="http://www.w3.org/1999/xlink" preserveAspectRatio="xMidYMid" width="22" height="32" viewBox="0 0 22 32">
  <defs>
    <style>
      .cls-1 {
        fill: #1b1b1b;
        fill-rule: evenodd;
      }
    </style>
  </defs>
  <path d="M11.000,32.000 C4.935,32.000 -0.000,26.960 -0.000,20.766 C-0.000,12.854 9.811,0.870 10.229,0.363 C10.419,0.134 10.701,-0.000 10.999,-0.000 L11.000,-0.000 C11.297,-0.000 11.580,0.133 11.769,0.361 C12.188,0.865 22.000,12.786 22.000,20.766 C22.000,26.960 17.065,32.000 11.000,32.000 ZM11.002,2.610 C8.695,5.597 2.000,14.780 2.000,20.766 C2.000,25.857 6.038,30.000 11.000,30.000 C15.962,30.000 20.000,25.857 20.000,20.766 C20.000,14.728 13.311,5.585 11.002,2.610 Z" class="cls-1"/>
</svg>
