<svg xmlns="http://www.w3.org/2000/svg" xmlns:xlink="http://www.w3.org/1999/xlink" preserveAspectRatio="xMidYMid" width="32" height="32" viewBox="0 0 32 32">
  <defs>
    <style>
      .cls-1 {
        fill: #1b1b1b;
        fill-rule: evenodd;
      }
    </style>
  </defs>
  <path d="M16.000,32.000 C7.178,32.000 0.000,24.822 0.000,16.000 C0.000,7.178 7.178,-0.000 16.000,-0.000 C24.822,-0.000 32.000,7.178 32.000,16.000 C32.000,24.822 24.822,32.000 16.000,32.000 ZM16.000,2.000 C8.280,2.000 2.000,8.280 2.000,16.000 C2.000,23.720 8.280,30.000 16.000,30.000 C23.720,30.000 30.000,23.720 30.000,16.000 C30.000,8.280 23.720,2.000 16.000,2.000 ZM16.000,26.000 C12.255,26.000 8.848,23.875 7.108,20.453 C6.858,19.961 7.055,19.358 7.547,19.108 C8.039,18.859 8.641,19.054 8.892,19.547 C10.288,22.294 13.012,24.000 16.000,24.000 C19.002,24.000 21.726,22.295 23.106,19.551 C23.354,19.057 23.957,18.858 24.449,19.106 C24.943,19.355 25.142,19.956 24.894,20.449 C23.170,23.873 19.763,26.000 16.000,26.000 ZM21.000,15.000 C19.897,15.000 19.000,14.103 19.000,13.000 C19.000,11.898 19.897,11.000 21.000,11.000 C22.103,11.000 23.000,11.898 23.000,13.000 C23.000,14.103 22.103,15.000 21.000,15.000 ZM11.000,15.000 C9.897,15.000 9.000,14.103 9.000,13.000 C9.000,11.898 9.897,11.000 11.000,11.000 C12.102,11.000 13.000,11.898 13.000,13.000 C13.000,14.103 12.102,15.000 11.000,15.000 Z" class="cls-1"/>
</svg>
