<svg xmlns="http://www.w3.org/2000/svg" xmlns:xlink="http://www.w3.org/1999/xlink" preserveAspectRatio="xMidYMid" width="28" height="32" viewBox="0 0 28 32">
  <defs>
    <style>
      .cls-1 {
        fill: #1b1b1b;
        fill-rule: evenodd;
      }
    </style>
  </defs>
  <path d="M27.000,31.994 C26.448,31.994 26.000,31.546 26.000,30.994 L26.000,18.146 L2.372,31.752 C2.082,31.917 1.788,32.000 1.494,32.000 C0.628,32.000 -0.000,31.311 -0.000,30.361 L-0.000,1.633 C-0.000,0.566 0.740,0.008 1.470,0.008 C1.777,0.008 2.083,0.098 2.378,0.278 L26.000,14.796 L26.000,1.000 C26.000,0.447 26.448,-0.000 27.000,-0.000 C27.552,-0.000 28.000,0.447 28.000,1.000 L28.000,30.994 C28.000,31.546 27.552,31.994 27.000,31.994 ZM2.000,2.393 L2.000,29.659 L24.904,16.470 L2.000,2.393 Z" class="cls-1"/>
</svg>
