<svg xmlns="http://www.w3.org/2000/svg" xmlns:xlink="http://www.w3.org/1999/xlink" preserveAspectRatio="xMidYMid" width="17.781" height="31.844" viewBox="0 0 17.781 31.844">
  <defs>
    <style>
      .cls-1 {
        fill: #1b1b1b;
        fill-rule: evenodd;
      }
    </style>
  </defs>
  <path d="M17.454,15.113 L6.851,31.153 C6.722,31.568 6.350,31.856 5.921,31.856 C5.864,31.856 5.807,31.851 5.750,31.842 C5.306,31.764 4.999,31.397 4.952,30.968 C4.944,30.930 4.953,30.890 4.949,30.850 C4.950,30.797 4.936,30.746 4.945,30.692 L4.948,30.675 C4.953,30.619 4.962,30.565 4.977,30.510 L6.825,19.874 L1.586,19.874 C0.923,19.874 0.375,19.555 0.123,19.021 C-0.133,18.481 -0.032,17.847 0.392,17.323 L13.042,0.372 C13.369,-0.065 13.989,-0.157 14.426,0.173 C14.672,0.358 14.794,0.635 14.808,0.920 C14.828,1.055 14.824,1.195 14.785,1.334 L11.513,12.965 L16.159,12.984 C16.532,12.984 17.310,12.984 17.662,13.667 C17.889,14.107 17.820,14.593 17.454,15.113 ZM11.443,14.971 C10.897,14.971 10.375,14.721 10.012,14.287 C9.626,13.824 9.457,13.200 9.559,12.617 C9.565,12.585 9.573,12.553 9.582,12.521 L11.479,5.778 L2.443,17.887 L6.857,17.887 C7.706,17.887 8.183,18.214 8.434,18.489 C8.742,18.824 8.888,19.277 8.848,19.764 L7.726,26.239 L15.175,14.971 L11.443,14.971 Z" class="cls-1"/>
</svg>
