<svg xmlns="http://www.w3.org/2000/svg" xmlns:xlink="http://www.w3.org/1999/xlink" preserveAspectRatio="xMidYMid" width="32" height="31.906" viewBox="0 0 32 31.906">
  <defs>
    <style>
      .cls-1 {
        fill: #1b1b1b;
        fill-rule: evenodd;
      }
    </style>
  </defs>
  <path d="M28.901,31.907 L3.079,31.907 C1.436,31.907 -0.000,30.556 -0.000,28.906 L-0.000,13.906 C-0.000,13.550 0.236,13.270 0.545,13.107 L15.340,0.227 C15.713,-0.098 16.267,-0.098 16.640,0.227 L31.424,13.097 C31.747,13.259 32.000,13.544 32.000,13.906 L32.000,28.906 C32.000,30.556 30.544,31.907 28.901,31.907 ZM30.000,28.673 L30.000,16.051 L22.851,22.311 L30.000,28.673 ZM28.396,29.912 L16.086,18.956 C16.053,18.929 15.927,18.928 15.883,18.966 L3.583,29.912 L28.396,29.912 ZM2.000,28.655 L9.128,22.311 L2.000,16.068 L2.000,28.655 ZM15.990,2.301 L2.607,13.952 L10.628,20.977 L14.577,17.462 C15.375,16.775 16.606,16.775 17.392,17.453 L21.352,20.977 L29.373,13.952 L15.990,2.301 Z" class="cls-1"/>
</svg>
