<svg xmlns="http://www.w3.org/2000/svg" xmlns:xlink="http://www.w3.org/1999/xlink" preserveAspectRatio="xMidYMid" width="32" height="22" viewBox="0 0 32 22">
  <defs>
    <style>
      .cls-1 {
        fill: #1b1b1b;
        fill-rule: evenodd;
      }
    </style>
  </defs>
  <path d="M16.000,22.000 C5.606,22.000 0.000,14.192 0.000,11.000 C0.000,7.808 5.606,-0.000 16.000,-0.000 C26.394,-0.000 32.000,7.808 32.000,11.000 C32.000,14.192 26.394,22.000 16.000,22.000 ZM16.000,2.000 C6.503,2.000 2.000,9.219 2.000,11.000 C2.000,12.781 6.503,20.000 16.000,20.000 C25.497,20.000 30.000,12.781 30.000,11.000 C30.000,9.219 25.497,2.000 16.000,2.000 ZM16.000,17.000 C12.691,17.000 10.000,14.309 10.000,11.000 C10.000,7.691 12.691,5.000 16.000,5.000 C19.309,5.000 22.000,7.691 22.000,11.000 C22.000,14.309 19.309,17.000 16.000,17.000 ZM16.000,7.000 C13.794,7.000 12.000,8.794 12.000,11.000 C12.000,13.206 13.794,15.000 16.000,15.000 C18.206,15.000 20.000,13.206 20.000,11.000 C20.000,8.794 18.206,7.000 16.000,7.000 Z" class="cls-1"/>
</svg>
