<svg xmlns="http://www.w3.org/2000/svg" xmlns:xlink="http://www.w3.org/1999/xlink" preserveAspectRatio="xMidYMid" width="31" height="31" viewBox="0 0 31 31">
  <defs>
    <style>
      .cls-1 {
        fill: #1b1b1b;
        fill-rule: evenodd;
      }
    </style>
  </defs>
  <path d="M30.000,29.000 C29.448,29.000 29.000,28.553 29.000,28.000 L29.000,25.500 C29.000,12.542 18.458,2.000 5.500,2.000 L3.000,2.000 C2.448,2.000 2.000,1.553 2.000,1.000 C2.000,0.447 2.448,0.000 3.000,0.000 L5.500,0.000 C19.560,0.000 31.000,11.439 31.000,25.500 L31.000,28.000 C31.000,28.553 30.552,29.000 30.000,29.000 ZM11.000,25.500 C11.000,28.532 8.533,31.000 5.500,31.000 C2.467,31.000 -0.000,28.532 -0.000,25.500 C-0.000,22.468 2.467,20.000 5.500,20.000 C8.533,20.000 11.000,22.468 11.000,25.500 ZM2.000,25.500 C2.000,27.430 3.570,29.000 5.500,29.000 C7.430,29.000 9.000,27.430 9.000,25.500 C9.000,23.570 7.430,22.000 5.500,22.000 C3.570,22.000 2.000,23.570 2.000,25.500 ZM3.000,12.000 C2.448,12.000 2.000,11.553 2.000,11.000 C2.000,10.447 2.448,10.000 3.000,10.000 L5.500,10.000 C14.047,10.000 21.000,16.953 21.000,25.500 L21.000,28.000 C21.000,28.553 20.552,29.000 20.000,29.000 C19.448,29.000 19.000,28.553 19.000,28.000 L19.000,25.500 C19.000,18.056 12.944,12.000 5.500,12.000 L3.000,12.000 Z" class="cls-1"/>
</svg>
