<svg xmlns="http://www.w3.org/2000/svg" xmlns:xlink="http://www.w3.org/1999/xlink" preserveAspectRatio="xMidYMid" width="31.906" height="32" viewBox="0 0 31.906 32">
  <defs>
    <style>
      .cls-1 {
        fill: #1b1b1b;
        fill-rule: evenodd;
      }
    </style>
  </defs>
  <path d="M18.972,25.928 C15.765,25.928 12.833,24.744 10.570,22.797 L7.363,26.014 L11.633,30.296 C12.022,30.685 12.022,31.317 11.633,31.706 C11.439,31.901 11.184,31.999 10.930,31.999 C10.675,31.999 10.421,31.901 10.227,31.706 L5.957,27.424 L1.687,31.706 C1.492,31.901 1.238,31.999 0.983,31.999 C0.729,31.999 0.475,31.901 0.280,31.706 C-0.108,31.317 -0.108,30.685 0.280,30.296 L4.550,26.014 L0.280,21.731 C-0.108,21.342 -0.108,20.711 0.280,20.321 C0.669,19.931 1.298,19.931 1.687,20.321 L5.957,24.603 L9.164,21.387 C7.223,19.118 6.042,16.177 6.042,12.961 C6.042,5.811 11.842,-0.007 18.972,-0.007 C26.102,-0.007 31.902,5.811 31.902,12.961 C31.902,20.111 26.102,25.928 18.972,25.928 ZM18.972,1.988 C12.939,1.988 8.031,6.911 8.031,12.961 C8.031,19.011 12.939,23.933 18.972,23.933 C25.005,23.933 29.913,19.011 29.913,12.961 C29.913,6.911 25.005,1.988 18.972,1.988 Z" class="cls-1"/>
</svg>
