<svg xmlns="http://www.w3.org/2000/svg" xmlns:xlink="http://www.w3.org/1999/xlink" preserveAspectRatio="xMidYMid" width="32" height="31" viewBox="0 0 32 31">
  <defs>
    <style>
      .cls-1 {
        fill: #1b1b1b;
        fill-rule: evenodd;
      }
    </style>
  </defs>
  <path d="M30.000,31.000 L2.000,31.000 C0.898,31.000 0.000,30.103 0.000,29.000 L0.000,2.000 C0.000,0.897 0.898,-0.000 2.000,-0.000 L30.000,-0.000 C31.103,-0.000 32.000,0.897 32.000,2.000 L32.000,29.000 C32.000,30.103 31.103,31.000 30.000,31.000 ZM2.000,2.000 L2.000,29.000 L29.997,29.000 L30.000,2.000 L2.000,2.000 ZM27.000,26.000 L25.000,26.000 C24.447,26.000 24.000,25.552 24.000,25.000 L24.000,24.000 C24.000,23.448 24.447,23.000 25.000,23.000 L27.000,23.000 C27.553,23.000 28.000,23.448 28.000,24.000 L28.000,25.000 C28.000,25.552 27.553,26.000 27.000,26.000 ZM27.000,20.000 L25.000,20.000 C24.447,20.000 24.000,19.552 24.000,19.000 L24.000,18.000 C24.000,17.448 24.447,17.000 25.000,17.000 L27.000,17.000 C27.553,17.000 28.000,17.448 28.000,18.000 L28.000,19.000 C28.000,19.552 27.553,20.000 27.000,20.000 ZM27.000,14.000 L25.000,14.000 C24.447,14.000 24.000,13.552 24.000,13.000 L24.000,12.000 C24.000,11.448 24.447,11.000 25.000,11.000 L27.000,11.000 C27.553,11.000 28.000,11.448 28.000,12.000 L28.000,13.000 C28.000,13.552 27.553,14.000 27.000,14.000 ZM27.000,8.000 L25.000,8.000 C24.447,8.000 24.000,7.552 24.000,7.000 L24.000,6.000 C24.000,5.448 24.447,5.000 25.000,5.000 L27.000,5.000 C27.553,5.000 28.000,5.448 28.000,6.000 L28.000,7.000 C28.000,7.552 27.553,8.000 27.000,8.000 ZM7.000,26.000 L5.000,26.000 C4.447,26.000 4.000,25.552 4.000,25.000 L4.000,24.000 C4.000,23.448 4.447,23.000 5.000,23.000 L7.000,23.000 C7.553,23.000 8.000,23.448 8.000,24.000 L8.000,25.000 C8.000,25.552 7.553,26.000 7.000,26.000 ZM7.000,20.000 L5.000,20.000 C4.447,20.000 4.000,19.552 4.000,19.000 L4.000,18.000 C4.000,17.448 4.447,17.000 5.000,17.000 L7.000,17.000 C7.553,17.000 8.000,17.448 8.000,18.000 L8.000,19.000 C8.000,19.552 7.553,20.000 7.000,20.000 ZM7.000,14.000 L5.000,14.000 C4.447,14.000 4.000,13.552 4.000,13.000 L4.000,12.000 C4.000,11.448 4.447,11.000 5.000,11.000 L7.000,11.000 C7.553,11.000 8.000,11.448 8.000,12.000 L8.000,13.000 C8.000,13.552 7.553,14.000 7.000,14.000 ZM7.000,8.000 L5.000,8.000 C4.447,8.000 4.000,7.552 4.000,7.000 L4.000,6.000 C4.000,5.448 4.447,5.000 5.000,5.000 L7.000,5.000 C7.553,5.000 8.000,5.448 8.000,6.000 L8.000,7.000 C8.000,7.552 7.553,8.000 7.000,8.000 Z" class="cls-1"/>
</svg>
