<svg xmlns="http://www.w3.org/2000/svg" xmlns:xlink="http://www.w3.org/1999/xlink" preserveAspectRatio="xMidYMid" width="26" height="31.938" viewBox="0 0 26 31.938">
  <defs>
    <style>
      .cls-1 {
        fill: #1b1b1b;
        fill-rule: evenodd;
      }
    </style>
  </defs>
  <path d="M13.000,31.939 C5.832,31.939 0.000,26.144 0.000,19.021 C0.000,15.003 2.071,11.525 2.159,11.379 C2.366,11.037 2.761,10.848 3.154,10.906 C3.552,10.961 3.877,11.248 3.981,11.634 C3.988,11.660 4.689,14.089 6.894,15.610 C6.811,11.770 7.556,2.999 15.658,0.058 C16.005,-0.065 16.390,0.008 16.663,0.250 C16.938,0.493 17.057,0.867 16.974,1.223 C16.955,1.303 15.346,8.417 18.210,11.886 C18.532,10.110 19.351,7.561 21.428,6.114 C21.703,5.920 22.059,5.880 22.372,6.006 C22.685,6.131 22.913,6.405 22.980,6.735 C23.404,8.831 23.942,10.136 24.463,11.399 C25.254,13.315 26.000,15.126 26.000,19.021 C26.000,26.144 20.168,31.939 13.000,31.939 ZM2.994,14.267 C2.507,15.499 2.000,17.216 2.000,19.021 C2.000,25.043 6.935,29.943 13.000,29.943 C19.065,29.943 24.000,25.043 24.000,19.021 C24.000,15.520 23.389,14.037 22.613,12.158 C22.235,11.240 21.820,10.234 21.445,8.904 C20.054,10.912 20.000,13.832 20.000,13.868 C19.996,14.223 19.802,14.551 19.492,14.726 C19.181,14.900 18.801,14.897 18.493,14.718 C14.120,12.154 14.289,5.881 14.696,2.689 C7.611,6.702 8.979,17.054 8.994,17.166 C9.043,17.514 8.905,17.862 8.631,18.083 C8.356,18.303 7.985,18.363 7.655,18.241 C5.256,17.351 3.813,15.646 2.994,14.267 Z" class="cls-1"/>
</svg>
