<svg xmlns="http://www.w3.org/2000/svg" xmlns:xlink="http://www.w3.org/1999/xlink" preserveAspectRatio="xMidYMid" width="27.906" height="31.719" viewBox="0 0 27.906 31.719">
  <defs>
    <style>
      .cls-1 {
        fill: #1b1b1b;
        fill-rule: evenodd;
      }
    </style>
  </defs>
  <path d="M27.882,1.042 L27.882,14.893 C27.882,14.896 27.881,14.898 27.881,14.901 C27.880,14.994 27.853,15.084 27.826,15.174 C27.776,15.337 27.700,15.485 27.581,15.601 C27.580,15.602 27.580,15.603 27.579,15.604 C25.074,18.013 22.484,18.805 19.929,18.805 C17.323,18.805 14.754,17.982 12.347,17.211 C8.360,15.934 4.904,14.839 2.000,17.376 L2.000,30.750 C2.000,31.297 1.617,31.713 1.068,31.713 C0.519,31.713 0.000,31.297 0.000,30.750 L0.000,2.750 C0.000,2.333 0.303,2.135 0.689,2.064 C4.431,-1.217 8.762,0.155 12.955,1.499 C17.547,2.970 21.891,4.354 26.048,0.486 C26.150,0.162 26.447,0.052 26.889,0.052 C27.319,0.052 27.676,0.326 27.815,0.706 C27.821,0.724 27.820,0.743 27.826,0.761 C27.853,0.851 27.882,0.942 27.882,1.042 ZM12.347,3.385 C8.360,2.108 4.904,1.011 2.000,3.549 L2.000,14.932 C5.424,12.921 9.244,14.137 12.955,15.325 C17.530,16.791 21.857,18.166 26.000,14.354 L26.000,3.067 C23.994,4.468 21.951,4.979 19.929,4.979 C17.323,4.979 14.754,4.156 12.347,3.385 Z" class="cls-1"/>
</svg>
