<svg xmlns="http://www.w3.org/2000/svg" xmlns:xlink="http://www.w3.org/1999/xlink" preserveAspectRatio="xMidYMid" width="32" height="25" viewBox="0 0 32 25">
  <defs>
    <style>
      .cls-1 {
        fill: #1b1b1b;
        fill-rule: evenodd;
      }
    </style>
  </defs>
  <path d="M30.000,25.000 L2.000,25.000 C0.897,25.000 -0.000,24.107 -0.000,23.010 L-0.000,2.112 C-0.000,1.014 0.897,0.000 2.000,0.000 L12.000,0.000 C12.310,0.000 12.576,0.186 12.759,0.439 L16.190,3.000 L30.000,3.000 C31.103,3.000 32.000,3.999 32.000,5.097 L32.000,23.010 C32.000,24.107 31.103,25.000 30.000,25.000 ZM30.000,5.000 L16.422,5.000 C16.289,5.062 16.145,5.097 15.999,5.097 C15.791,5.097 15.580,5.033 15.400,4.898 L11.517,2.000 L2.000,2.000 L2.000,23.010 L30.000,23.010 L30.000,5.000 Z" class="cls-1"/>
</svg>
