<svg xmlns="http://www.w3.org/2000/svg" xmlns:xlink="http://www.w3.org/1999/xlink" preserveAspectRatio="xMidYMid" width="32" height="25" viewBox="0 0 32 25">
  <defs>
    <style>
      .cls-1 {
        fill: #1b1b1b;
        fill-rule: evenodd;
      }
    </style>
  </defs>
  <path d="M30.000,24.992 L2.000,24.992 C0.898,24.992 0.000,24.099 0.000,23.002 L0.000,2.103 C0.000,1.006 0.898,-0.000 2.000,-0.000 L12.000,-0.000 C12.308,-0.000 12.573,0.181 12.756,0.429 L16.333,3.098 L30.000,3.098 C31.103,3.098 32.000,3.992 32.000,5.089 L32.000,23.002 C32.000,24.099 31.103,24.992 30.000,24.992 ZM30.000,5.000 L16.386,5.000 C16.263,5.052 16.133,5.089 15.999,5.089 C15.790,5.089 15.580,5.024 15.400,4.890 L11.529,2.000 L2.000,2.000 L2.000,7.000 L30.000,7.000 L30.000,5.000 ZM30.000,9.000 L2.000,9.000 L2.000,23.002 L30.000,23.002 L30.000,9.000 Z" class="cls-1"/>
</svg>
