<svg xmlns="http://www.w3.org/2000/svg" xmlns:xlink="http://www.w3.org/1999/xlink" preserveAspectRatio="xMidYMid" width="32" height="24" viewBox="0 0 32 24">
  <defs>
    <style>
      .cls-1 {
        fill: #1b1b1b;
        fill-rule: evenodd;
      }
    </style>
  </defs>
  <path d="M13.470,24.000 C13.470,24.000 13.470,24.000 13.469,24.000 C12.738,24.000 11.997,23.439 11.997,22.365 L11.997,17.787 L2.386,23.726 C2.085,23.909 1.780,24.000 1.473,24.000 C0.741,24.000 -0.000,23.439 -0.000,22.365 L-0.000,1.622 C-0.000,0.558 0.729,-0.000 1.450,-0.000 C1.766,-0.000 2.092,0.104 2.393,0.302 L11.997,6.205 L11.997,1.622 C11.997,0.558 12.726,-0.000 13.447,-0.000 C13.763,-0.000 14.089,0.104 14.390,0.302 L31.184,10.965 C31.708,11.306 32.000,11.816 31.993,12.369 C31.985,12.920 31.681,13.421 31.158,13.743 L14.370,23.734 C14.083,23.909 13.777,24.000 13.470,24.000 ZM12.997,14.995 C13.165,14.995 13.332,15.037 13.484,15.121 C13.800,15.298 13.997,15.632 13.997,15.994 L13.997,21.629 L29.611,12.335 L13.998,2.421 L13.997,7.993 C13.997,8.355 13.800,8.689 13.485,8.866 C13.168,9.043 12.781,9.034 12.474,8.844 L2.000,2.406 L1.999,21.613 L12.472,15.144 C12.632,15.044 12.814,14.995 12.997,14.995 Z" class="cls-1"/>
</svg>
