<svg xmlns="http://www.w3.org/2000/svg" xmlns:xlink="http://www.w3.org/1999/xlink" preserveAspectRatio="xMidYMid" width="32" height="24" viewBox="0 0 32 24">
  <defs>
    <style>
      .cls-1 {
        fill: #1b1b1b;
        fill-rule: evenodd;
      }
    </style>
  </defs>
  <path d="M31.000,24.000 L25.000,24.000 C24.448,24.000 24.000,23.553 24.000,23.000 C24.000,22.447 24.448,22.000 25.000,22.000 L30.000,22.000 L30.000,16.971 C30.000,16.418 30.448,15.971 31.000,15.971 C31.552,15.971 32.000,16.418 32.000,16.971 L32.000,23.000 C32.000,23.553 31.552,24.000 31.000,24.000 ZM31.000,8.000 C30.448,8.000 30.000,7.553 30.000,7.000 L30.000,2.000 L24.971,2.000 C24.419,2.000 23.971,1.553 23.971,1.000 C23.971,0.447 24.419,-0.000 24.971,-0.000 L31.000,-0.000 C31.552,-0.000 32.000,0.447 32.000,1.000 L32.000,7.000 C32.000,7.553 31.552,8.000 31.000,8.000 ZM7.029,24.000 L1.000,24.000 C0.448,24.000 -0.000,23.553 -0.000,23.000 L-0.000,17.000 C-0.000,16.447 0.448,16.000 1.000,16.000 C1.552,16.000 2.000,16.447 2.000,17.000 L2.000,22.000 L7.029,22.000 C7.581,22.000 8.029,22.447 8.029,23.000 C8.029,23.553 7.581,24.000 7.029,24.000 ZM7.000,2.000 L2.000,2.000 L2.000,7.029 C2.000,7.582 1.552,8.029 1.000,8.029 C0.448,8.029 -0.000,7.582 -0.000,7.029 L-0.000,1.000 C-0.000,0.447 0.448,-0.000 1.000,-0.000 L7.000,-0.000 C7.552,-0.000 8.000,0.447 8.000,1.000 C8.000,1.553 7.552,2.000 7.000,2.000 Z" class="cls-1"/>
</svg>
