<svg xmlns="http://www.w3.org/2000/svg" xmlns:xlink="http://www.w3.org/1999/xlink" preserveAspectRatio="xMidYMid" width="25.875" height="31.875" viewBox="0 0 25.875 31.875">
  <defs>
    <style>
      .cls-1 {
        fill: #1b1b1b;
        fill-rule: evenodd;
      }
    </style>
  </defs>
  <path d="M25.854,30.904 C25.851,31.005 25.828,31.100 25.796,31.196 C25.790,31.210 25.788,31.225 25.782,31.239 C25.721,31.395 25.634,31.542 25.495,31.654 C25.312,31.801 25.094,31.872 24.876,31.872 C24.682,31.872 24.501,31.795 24.336,31.684 C24.287,31.652 24.240,31.620 24.202,31.577 C24.170,31.547 24.130,31.533 24.102,31.498 L20.912,27.493 L17.721,31.498 C17.697,31.528 17.663,31.543 17.637,31.569 C17.610,31.596 17.596,31.630 17.566,31.654 C17.539,31.676 17.506,31.685 17.477,31.703 C17.435,31.730 17.395,31.753 17.350,31.773 C17.281,31.805 17.211,31.826 17.138,31.840 C17.094,31.849 17.053,31.859 17.008,31.862 C16.988,31.863 16.968,31.872 16.948,31.872 C16.911,31.872 16.878,31.852 16.842,31.848 C16.758,31.839 16.678,31.824 16.598,31.794 C16.544,31.773 16.497,31.745 16.446,31.715 C16.408,31.692 16.364,31.683 16.328,31.654 C16.294,31.627 16.278,31.588 16.248,31.558 C16.225,31.534 16.194,31.525 16.173,31.498 L12.983,27.493 L9.792,31.498 C9.769,31.528 9.735,31.543 9.708,31.569 C9.682,31.596 9.667,31.630 9.638,31.654 C9.610,31.676 9.577,31.685 9.548,31.704 C9.506,31.730 9.466,31.753 9.422,31.773 C9.352,31.805 9.282,31.826 9.209,31.840 C9.165,31.849 9.124,31.859 9.079,31.862 C9.059,31.863 9.039,31.872 9.019,31.872 C8.983,31.872 8.949,31.852 8.913,31.848 C8.829,31.839 8.750,31.824 8.670,31.794 C8.615,31.773 8.568,31.745 8.518,31.715 C8.479,31.692 8.436,31.683 8.400,31.654 C8.366,31.627 8.349,31.588 8.320,31.558 C8.297,31.534 8.266,31.525 8.245,31.498 L5.054,27.493 L1.864,31.498 C1.847,31.520 1.822,31.530 1.803,31.549 C1.757,31.602 1.704,31.646 1.643,31.684 C1.586,31.723 1.528,31.756 1.465,31.782 C1.463,31.783 1.462,31.783 1.461,31.784 C1.227,31.879 0.971,31.883 0.733,31.789 C0.330,31.691 -0.000,31.428 -0.000,31.000 L-0.000,13.000 C-0.000,5.881 5.878,-0.012 12.983,-0.012 C20.087,-0.012 25.867,5.779 25.867,12.898 L25.867,30.841 C25.867,30.864 25.856,30.882 25.854,30.904 ZM24.000,13.000 C24.000,6.979 18.994,1.978 12.983,1.978 C6.972,1.978 2.000,6.979 2.000,13.000 L2.000,28.141 L4.280,25.278 C4.656,24.805 5.453,24.805 5.828,25.278 L9.019,29.283 L12.209,25.278 C12.585,24.805 13.381,24.805 13.757,25.278 L16.947,29.283 L20.138,25.278 C20.513,24.805 21.310,24.805 21.685,25.278 L24.000,28.184 L24.000,13.000 ZM17.938,15.912 C16.845,15.912 15.956,15.019 15.956,13.922 C15.956,12.824 16.845,11.931 17.938,11.931 C19.031,11.931 19.920,12.824 19.920,13.922 C19.920,15.019 19.031,15.912 17.938,15.912 ZM8.027,15.912 C6.934,15.912 6.045,15.019 6.045,13.922 C6.045,12.824 6.934,11.931 8.027,11.931 C9.121,11.931 10.010,12.824 10.010,13.922 C10.010,15.019 9.121,15.912 8.027,15.912 Z" class="cls-1"/>
</svg>
