<svg xmlns="http://www.w3.org/2000/svg" xmlns:xlink="http://www.w3.org/1999/xlink" preserveAspectRatio="xMidYMid" width="26" height="31.875" viewBox="0 0 26 31.875">
  <defs>
    <style>
      .cls-1 {
        fill: #1b1b1b;
        fill-rule: evenodd;
      }
    </style>
  </defs>
  <path d="M12.000,27.837 L12.000,29.879 L15.000,29.879 C15.553,29.879 16.000,30.325 16.000,30.875 C16.000,31.425 15.553,31.871 15.000,31.871 L7.000,31.871 C6.447,31.871 6.000,31.425 6.000,30.875 C6.000,30.325 6.447,29.879 7.000,29.879 L10.000,29.879 L10.000,27.817 C7.796,27.654 5.613,26.986 3.497,25.761 C3.019,25.484 2.857,24.875 3.136,24.399 C3.413,23.923 4.025,23.764 4.503,24.039 C6.629,25.271 8.815,25.896 11.000,25.896 C18.168,25.896 24.000,20.088 24.000,12.950 C24.000,8.359 21.575,4.214 17.515,1.860 C17.037,1.584 16.876,0.974 17.153,0.499 C17.431,0.023 18.043,-0.137 18.521,0.139 C23.204,2.853 26.000,7.642 26.000,12.950 C26.000,20.851 19.805,27.321 12.000,27.837 ZM22.000,12.950 C22.000,18.990 17.065,23.904 11.000,23.904 C4.935,23.904 0.000,18.990 0.000,12.950 C0.000,6.909 4.935,1.995 11.000,1.995 C17.065,1.995 22.000,6.909 22.000,12.950 ZM11.000,3.987 C6.037,3.987 2.000,8.007 2.000,12.950 C2.000,17.892 6.037,21.912 11.000,21.912 C15.963,21.912 20.000,17.892 20.000,12.950 C20.000,8.007 15.963,3.987 11.000,3.987 Z" class="cls-1"/>
</svg>
