<svg xmlns="http://www.w3.org/2000/svg" xmlns:xlink="http://www.w3.org/1999/xlink" preserveAspectRatio="xMidYMid" width="32" height="31.969" viewBox="0 0 32 31.969">
  <defs>
    <style>
      .cls-1 {
        fill: #1b1b1b;
        fill-rule: evenodd;
      }
    </style>
  </defs>
  <path d="M16.000,31.970 C7.178,31.970 0.000,24.800 0.000,15.987 C0.000,7.173 7.178,0.003 16.000,0.003 C24.822,0.003 32.000,7.173 32.000,15.987 C32.000,24.800 24.822,31.970 16.000,31.970 ZM30.000,15.987 C30.000,14.597 29.786,13.259 29.406,11.991 L24.596,11.991 C24.854,13.298 25.000,14.633 25.000,15.987 C25.000,17.340 24.854,18.676 24.596,19.982 L29.406,19.982 C29.786,18.715 30.000,17.376 30.000,15.987 ZM28.636,21.980 L24.091,21.980 C23.277,24.665 21.942,27.176 20.133,29.349 C23.889,28.187 26.965,25.480 28.636,21.980 ZM17.000,29.770 C19.307,27.607 21.009,24.921 22.002,21.980 L17.000,21.980 L17.000,29.770 ZM22.561,19.982 C22.846,18.680 23.000,17.343 23.000,15.987 C23.000,14.631 22.846,13.293 22.562,11.991 L17.000,11.991 L17.000,19.982 L22.561,19.982 ZM9.000,15.989 C9.000,17.344 9.153,18.681 9.438,19.982 L15.000,19.982 L15.000,11.991 L9.439,11.991 C9.154,13.294 9.000,14.632 9.000,15.989 ZM15.000,21.980 L9.997,21.980 C10.990,24.923 12.692,27.610 15.000,29.774 L15.000,21.980 ZM11.863,29.348 C10.056,27.175 8.721,24.664 7.908,21.980 L3.364,21.980 C5.035,25.479 8.109,28.185 11.863,29.348 ZM2.594,19.982 L7.404,19.982 C7.146,18.676 7.000,17.342 7.000,15.989 C7.000,14.634 7.146,13.298 7.405,11.991 L2.594,11.991 C2.214,13.259 2.000,14.597 2.000,15.987 C2.000,17.376 2.214,18.715 2.594,19.982 ZM3.364,9.993 L7.909,9.993 C8.724,7.308 10.060,4.797 11.869,2.624 C8.112,3.785 5.035,6.492 3.364,9.993 ZM9.999,9.993 L15.000,9.993 L15.000,2.205 C12.694,4.368 10.992,7.053 9.999,9.993 ZM17.000,9.993 L22.002,9.993 C21.009,7.052 19.307,4.366 17.000,2.203 L17.000,9.993 ZM20.133,2.624 C21.942,4.797 23.278,7.309 24.092,9.993 L28.636,9.993 C26.965,6.493 23.889,3.786 20.133,2.624 Z" class="cls-1"/>
</svg>
