<svg xmlns="http://www.w3.org/2000/svg" xmlns:xlink="http://www.w3.org/1999/xlink" preserveAspectRatio="xMidYMid" width="31" height="25.938" viewBox="0 0 31 25.938">
  <defs>
    <style>
      .cls-1 {
        fill: #1b1b1b;
        fill-rule: evenodd;
      }
    </style>
  </defs>
  <path d="M29.000,21.945 C27.897,21.945 27.000,21.049 27.000,19.948 C27.000,19.213 27.405,18.576 28.000,18.229 L28.000,10.686 L23.981,12.979 C23.984,13.012 24.000,13.041 24.000,13.074 L24.000,22.944 C24.000,22.982 23.982,23.014 23.978,23.051 C23.971,23.120 23.960,23.185 23.938,23.251 C23.918,23.312 23.892,23.367 23.861,23.422 C23.830,23.477 23.797,23.528 23.756,23.577 C23.711,23.631 23.661,23.675 23.606,23.718 C23.577,23.741 23.559,23.772 23.527,23.792 C23.386,23.880 20.003,25.939 15.000,25.939 C9.997,25.939 6.614,23.880 6.473,23.792 C6.441,23.772 6.423,23.741 6.394,23.718 C6.339,23.675 6.289,23.631 6.244,23.577 C6.203,23.528 6.170,23.477 6.139,23.422 C6.108,23.367 6.082,23.312 6.062,23.251 C6.040,23.185 6.029,23.120 6.022,23.051 C6.018,23.014 6.000,22.982 6.000,22.944 L6.000,13.074 C6.000,13.041 6.016,13.012 6.019,12.979 L0.504,9.832 C0.192,9.655 -0.000,9.323 -0.000,8.966 C-0.000,8.608 0.192,8.276 0.504,8.099 L14.504,0.111 C14.812,-0.064 15.188,-0.064 15.496,0.111 L29.496,8.099 C29.808,8.276 30.000,8.608 30.000,8.966 C30.000,8.983 29.988,8.997 29.987,9.015 C29.988,9.038 30.000,9.057 30.000,9.081 L30.000,18.229 C30.595,18.576 31.000,19.213 31.000,19.948 C31.000,21.049 30.103,21.945 29.000,21.945 ZM22.000,22.349 L22.000,14.109 L15.496,17.820 C15.342,17.908 15.171,17.951 15.000,17.951 C14.829,17.951 14.658,17.908 14.504,17.820 L8.000,14.109 L8.000,22.346 C9.004,22.848 11.579,23.942 15.000,23.942 C18.442,23.942 21.001,22.851 22.000,22.349 ZM15.000,2.128 L3.016,8.966 L15.000,15.803 L26.984,8.966 L15.000,2.128 Z" class="cls-1"/>
</svg>
