<svg xmlns="http://www.w3.org/2000/svg" xmlns:xlink="http://www.w3.org/1999/xlink" preserveAspectRatio="xMidYMid" width="32" height="18" viewBox="0 0 32 18">
  <defs>
    <style>
      .cls-1 {
        fill: #1b1b1b;
        fill-rule: evenodd;
      }
    </style>
  </defs>
  <path d="M30.000,4.000 C29.744,4.000 29.501,3.947 29.276,3.859 L21.970,9.704 C21.985,9.802 22.000,9.899 22.000,10.000 C22.000,11.103 21.103,12.000 20.000,12.000 C18.971,12.000 18.131,11.216 18.022,10.215 L12.170,7.615 C11.840,7.854 11.438,8.000 11.000,8.000 C10.858,8.000 10.719,7.984 10.585,7.956 L3.895,15.390 C3.957,15.583 4.000,15.786 4.000,16.000 C4.000,17.103 3.103,18.000 2.000,18.000 C0.897,18.000 -0.000,17.103 -0.000,16.000 C-0.000,14.897 0.897,14.000 2.000,14.000 C2.142,14.000 2.281,14.016 2.415,14.044 L9.105,6.611 C9.043,6.417 9.000,6.214 9.000,6.000 C9.000,4.897 9.897,4.000 11.000,4.000 C12.029,4.000 12.869,4.784 12.978,5.785 L18.829,8.386 C19.159,8.146 19.562,8.000 20.000,8.000 C20.256,8.000 20.499,8.053 20.724,8.141 L28.030,2.296 C28.015,2.198 28.000,2.101 28.000,2.000 C28.000,0.897 28.897,-0.000 30.000,-0.000 C31.103,-0.000 32.000,0.897 32.000,2.000 C32.000,3.103 31.103,4.000 30.000,4.000 Z" class="cls-1"/>
</svg>
