<svg xmlns="http://www.w3.org/2000/svg" xmlns:xlink="http://www.w3.org/1999/xlink" preserveAspectRatio="xMidYMid" width="31.876" height="32" viewBox="0 0 31.876 32">
  <defs>
    <style>
      .cls-1 {
        fill: #1b1b1b;
        fill-rule: evenodd;
      }
    </style>
  </defs>
  <path d="M31.477,31.330 C31.143,31.755 30.621,31.999 30.046,31.999 L1.877,31.999 C1.323,31.999 0.803,31.768 0.449,31.365 C0.095,30.962 -0.065,30.417 0.010,29.870 L2.590,12.811 C2.834,11.223 4.288,9.979 5.901,9.979 L8.920,9.979 L8.920,6.977 C8.920,6.966 8.925,6.958 8.926,6.947 C8.958,3.112 12.099,0.001 15.962,0.001 C19.824,0.001 22.964,3.112 22.997,6.947 C22.997,6.958 23.003,6.966 23.003,6.977 L23.003,9.979 L26.021,9.979 C27.647,9.979 29.079,11.237 29.281,12.842 L31.803,29.881 C31.923,30.340 31.811,30.904 31.477,31.330 ZM9.925,15.985 L9.928,16.985 L9.928,15.984 C9.927,15.984 9.926,15.985 9.925,15.985 ZM20.991,7.006 C20.991,4.247 18.735,2.002 15.962,2.002 C13.188,2.002 10.932,4.247 10.932,7.006 L10.932,9.979 L20.991,9.979 L20.991,7.006 ZM21.996,15.985 L21.999,16.985 L22.000,15.984 C21.999,15.984 21.997,15.985 21.996,15.985 ZM27.288,13.112 C27.210,12.499 26.620,11.981 26.021,11.981 L23.003,11.981 L23.003,14.261 C23.601,14.608 24.009,15.248 24.009,15.986 C24.009,17.089 23.107,17.986 21.999,17.986 C20.889,17.986 19.985,17.089 19.985,15.986 C19.985,15.248 20.393,14.610 20.991,14.262 L20.991,11.981 L10.932,11.981 L10.932,14.261 C11.530,14.608 11.938,15.247 11.938,15.986 C11.938,17.089 11.036,17.986 9.928,17.986 C8.817,17.986 7.913,17.089 7.913,15.986 C7.913,15.248 8.321,14.609 8.920,14.262 L8.920,11.981 L5.901,11.981 C5.289,11.981 4.672,12.509 4.579,13.111 L2.025,29.997 L29.791,29.997 L27.288,13.112 ZM30.046,29.997 L30.046,30.998 L30.046,29.997 L30.046,29.997 Z" class="cls-1"/>
</svg>
