<svg xmlns="http://www.w3.org/2000/svg" xmlns:xlink="http://www.w3.org/1999/xlink" preserveAspectRatio="xMidYMid" width="32.312" height="28.125" viewBox="0 0 32.312 28.125">
  <defs>
    <style>
      .cls-1 {
        fill: #1b1b1b;
        fill-rule: evenodd;
      }
    </style>
  </defs>
  <path d="M29.826,14.513 C29.820,14.519 29.819,14.528 29.813,14.534 L18.233,27.190 C17.683,27.798 16.937,28.135 16.135,28.135 C15.333,28.135 14.587,27.798 14.033,27.185 L2.459,14.534 C2.453,14.527 2.451,14.518 2.445,14.511 C-0.849,11.173 -0.837,5.793 2.492,2.478 C5.818,-0.833 11.214,-0.850 14.566,2.418 C14.566,2.418 14.567,2.418 14.567,2.419 L16.135,3.729 L17.706,2.418 C17.707,2.417 17.707,2.417 17.708,2.416 C21.061,-0.850 26.455,-0.832 29.780,2.478 C33.108,5.794 33.119,11.175 29.826,14.513 ZM28.352,3.900 C25.792,1.352 21.627,1.352 19.068,3.900 C19.057,3.911 19.042,3.914 19.031,3.924 C19.019,3.935 19.015,3.949 19.003,3.960 L16.783,5.812 C16.735,5.852 16.678,5.872 16.625,5.902 C16.588,5.923 16.556,5.948 16.517,5.964 C16.394,6.015 16.265,6.047 16.135,6.047 C16.135,6.047 16.135,6.046 16.135,6.046 C16.134,6.046 16.134,6.047 16.134,6.047 C16.004,6.047 15.876,6.014 15.753,5.964 C15.713,5.947 15.679,5.922 15.641,5.900 C15.589,5.870 15.533,5.851 15.486,5.811 L13.269,3.959 C13.258,3.949 13.253,3.935 13.242,3.925 C13.231,3.914 13.215,3.911 13.204,3.900 C10.644,1.354 6.479,1.354 3.920,3.900 C1.360,6.448 1.360,10.597 3.920,13.145 C3.926,13.151 3.927,13.159 3.933,13.164 C3.939,13.170 3.947,13.173 3.953,13.179 L15.530,25.835 C15.869,26.210 16.404,26.205 16.736,25.839 L28.320,13.179 C28.325,13.173 28.333,13.171 28.339,13.165 C28.345,13.159 28.346,13.151 28.352,13.145 C30.910,10.597 30.910,6.448 28.352,3.900 Z" class="cls-1"/>
</svg>
