<svg xmlns="http://www.w3.org/2000/svg" xmlns:xlink="http://www.w3.org/1999/xlink" preserveAspectRatio="xMidYMid" width="31.812" height="31.875" viewBox="0 0 31.812 31.875">
  <defs>
    <style>
      .cls-1 {
        fill: #1b1b1b;
        fill-rule: evenodd;
      }
    </style>
  </defs>
  <path d="M31.460,18.664 C31.271,18.831 31.036,18.913 30.803,18.913 C30.528,18.913 30.254,18.799 30.057,18.576 L28.816,17.163 L28.816,29.883 C28.816,30.983 27.925,31.878 26.829,31.878 L21.863,31.878 C20.767,31.878 19.876,30.983 19.876,29.883 L19.906,20.875 L11.906,20.875 L11.930,29.883 C11.930,30.983 11.039,31.878 9.944,31.878 L4.977,31.878 C3.882,31.878 2.991,30.983 2.991,29.883 L2.991,17.163 L1.749,18.576 C1.386,18.989 0.758,19.027 0.347,18.664 C-0.064,18.299 -0.103,17.669 0.259,17.256 L15.158,0.302 C15.536,-0.127 16.271,-0.127 16.648,0.302 L31.547,17.256 C31.910,17.669 31.871,18.299 31.460,18.664 ZM15.903,2.469 L4.906,14.983 L4.906,29.875 L9.944,29.883 L9.944,20.908 C9.944,19.808 10.835,18.913 11.930,18.913 L19.876,18.913 C20.972,18.913 21.863,19.808 21.863,20.908 L21.863,29.883 L26.829,29.883 L26.829,14.924 C26.829,14.918 26.833,14.913 26.833,14.906 L15.903,2.469 Z" class="cls-1"/>
</svg>
