<svg xmlns="http://www.w3.org/2000/svg" xmlns:xlink="http://www.w3.org/1999/xlink" preserveAspectRatio="xMidYMid" width="22" height="32" viewBox="0 0 22 32">
  <defs>
    <style>
      .cls-1 {
        fill: #1b1b1b;
        fill-rule: evenodd;
      }
    </style>
  </defs>
  <path d="M21.000,2.000 L19.000,2.000 L19.000,9.000 C19.000,12.635 16.410,14.849 14.134,16.000 C16.410,17.151 19.000,19.365 19.000,23.000 L19.000,30.000 L21.000,30.000 C21.552,30.000 22.000,30.447 22.000,31.000 C22.000,31.553 21.552,32.000 21.000,32.000 L1.000,32.000 C0.448,32.000 0.000,31.553 0.000,31.000 C0.000,30.447 0.448,30.000 1.000,30.000 L3.000,30.000 L3.000,23.000 C3.000,19.365 5.590,17.151 7.866,16.000 C5.590,14.849 3.000,12.635 3.000,9.000 L3.000,2.000 L1.000,2.000 C0.448,2.000 0.000,1.553 0.000,1.000 C0.000,0.447 0.448,0.000 1.000,0.000 L21.000,0.000 C21.552,0.000 22.000,0.447 22.000,1.000 C22.000,1.553 21.552,2.000 21.000,2.000 ZM5.000,23.000 L5.000,30.000 L17.000,30.000 L17.000,23.000 C17.000,18.638 11.691,17.056 10.976,16.999 C10.309,17.056 5.000,18.638 5.000,23.000 ZM17.000,2.000 L5.000,2.000 L5.000,9.000 C5.000,13.362 10.309,14.944 11.024,15.001 C11.691,14.944 17.000,13.362 17.000,9.000 L17.000,2.000 Z" class="cls-1"/>
</svg>
