<svg xmlns="http://www.w3.org/2000/svg" xmlns:xlink="http://www.w3.org/1999/xlink" preserveAspectRatio="xMidYMid" width="32.375" height="32" viewBox="0 0 32.375 32">
  <defs>
    <style>
      .cls-1 {
        fill: #1b1b1b;
        fill-rule: evenodd;
      }
    </style>
  </defs>
  <path d="M27.631,27.314 C24.571,30.335 20.502,32.000 16.174,32.000 C11.847,32.000 7.778,30.335 4.719,27.314 C-1.598,21.075 -1.598,10.924 4.719,4.686 C7.778,1.664 11.847,-0.000 16.174,-0.000 C20.502,-0.000 24.571,1.664 27.631,4.686 C30.691,7.707 32.377,11.725 32.377,16.000 C32.377,20.274 30.691,24.292 27.631,27.314 ZM26.199,6.100 C23.521,3.456 19.961,2.000 16.174,2.000 C12.388,2.000 8.828,3.456 6.151,6.100 C0.624,11.558 0.624,20.441 6.151,25.900 C8.828,28.543 12.388,30.000 16.174,30.000 C19.961,30.000 23.521,28.543 26.199,25.900 C28.877,23.255 30.352,19.740 30.352,16.000 C30.352,12.260 28.877,8.744 26.199,6.100 ZM18.201,25.000 L16.175,25.000 L14.150,25.000 C13.591,25.000 13.138,24.552 13.138,24.000 C13.138,23.448 13.591,23.000 14.150,23.000 L15.163,23.000 L15.163,15.000 L14.150,15.000 C13.591,15.000 13.138,14.552 13.138,14.000 C13.138,13.448 13.591,13.000 14.150,13.000 L16.175,13.000 C16.735,13.000 17.188,13.448 17.188,14.000 L17.188,23.000 L18.201,23.000 C18.760,23.000 19.213,23.448 19.213,24.000 C19.213,24.552 18.760,25.000 18.201,25.000 ZM16.175,11.000 C15.059,11.000 14.150,10.103 14.150,9.000 C14.150,7.897 15.059,7.000 16.175,7.000 C17.292,7.000 18.201,7.897 18.201,9.000 C18.201,10.103 17.292,11.000 16.175,11.000 Z" class="cls-1"/>
</svg>
