<svg xmlns="http://www.w3.org/2000/svg" xmlns:xlink="http://www.w3.org/1999/xlink" preserveAspectRatio="xMidYMid" width="27.906" height="32" viewBox="0 0 27.906 32">
  <defs>
    <style>
      .cls-1 {
        fill: #1b1b1b;
        fill-rule: evenodd;
      }
    </style>
  </defs>
  <path d="M18.935,18.000 C16.820,18.000 14.878,17.258 13.342,16.025 L6.390,23.000 L9.672,26.293 C10.062,26.684 10.062,27.316 9.672,27.707 C9.478,27.902 9.223,28.000 8.968,28.000 C8.713,28.000 8.458,27.902 8.263,27.707 L4.981,24.414 L2.403,27.000 L5.685,30.293 C6.075,30.684 6.075,31.316 5.685,31.707 C5.491,31.902 5.236,32.000 4.981,32.000 C4.726,32.000 4.471,31.902 4.276,31.707 L0.289,27.707 C-0.101,27.316 -0.101,26.684 0.289,26.293 L11.933,14.611 C10.704,13.071 9.964,11.122 9.964,9.000 C9.964,4.037 13.988,0.000 18.935,0.000 C23.882,0.000 27.906,4.037 27.906,9.000 C27.906,13.963 23.882,18.000 18.935,18.000 ZM18.935,2.000 C15.088,2.000 11.958,5.141 11.958,9.000 C11.958,12.859 15.088,16.000 18.935,16.000 C22.782,16.000 25.912,12.859 25.912,9.000 C25.912,5.141 22.782,2.000 18.935,2.000 Z" class="cls-1"/>
</svg>
