<svg xmlns="http://www.w3.org/2000/svg" xmlns:xlink="http://www.w3.org/1999/xlink" preserveAspectRatio="xMidYMid" width="32" height="31.938" viewBox="0 0 32 31.938">
  <defs>
    <style>
      .cls-1 {
        fill: #1b1b1b;
        fill-rule: evenodd;
      }
    </style>
  </defs>
  <path d="M31.466,16.839 L16.472,24.830 C16.325,24.908 16.163,24.947 16.001,24.947 C15.840,24.947 15.678,24.908 15.531,24.830 L0.535,16.839 C0.204,16.663 -0.000,16.316 0.006,15.942 C0.011,15.567 0.227,15.228 0.563,15.062 L2.564,14.075 C3.060,13.829 3.657,14.033 3.902,14.528 C4.147,15.023 3.944,15.622 3.449,15.866 L3.195,15.992 L16.001,22.816 L28.808,15.992 L28.554,15.866 L29.439,14.075 L31.438,15.062 C31.774,15.228 31.989,15.567 31.995,15.942 C32.001,16.316 31.797,16.663 31.466,16.839 ZM31.466,9.847 L16.470,17.838 C16.323,17.916 16.161,17.955 15.999,17.955 C15.838,17.955 15.676,17.916 15.529,17.838 L0.535,9.847 C0.209,9.674 0.006,9.334 0.006,8.965 C0.006,8.597 0.209,8.257 0.535,8.084 L15.531,0.093 C15.824,-0.063 16.178,-0.063 16.472,0.093 L31.466,8.084 C31.792,8.257 31.995,8.597 31.995,8.965 C31.995,9.334 31.792,9.674 31.466,9.847 ZM16.001,2.107 L3.131,8.965 L15.999,15.824 L28.871,8.965 L16.001,2.107 ZM0.563,22.054 L2.564,21.067 C3.060,20.822 3.657,21.025 3.902,21.520 C4.147,22.015 3.944,22.614 3.449,22.858 L3.195,22.984 L16.001,29.808 L28.808,22.984 L28.554,22.858 L29.439,21.067 L31.438,22.054 C31.774,22.220 31.989,22.559 31.995,22.934 C32.001,23.308 31.797,23.655 31.466,23.831 L16.472,31.822 C16.325,31.900 16.163,31.939 16.001,31.939 C15.840,31.939 15.678,31.900 15.531,31.822 L0.535,23.831 C0.204,23.655 -0.000,23.308 0.006,22.934 C0.011,22.559 0.227,22.220 0.563,22.054 Z" class="cls-1"/>
</svg>
