<svg xmlns="http://www.w3.org/2000/svg" xmlns:xlink="http://www.w3.org/1999/xlink" preserveAspectRatio="xMidYMid" width="32.281" height="32.282" viewBox="0 0 32.281 32.282">
  <defs>
    <style>
      .cls-1 {
        fill: #1b1b1b;
        fill-rule: evenodd;
      }
    </style>
  </defs>
  <path d="M30.211,12.084 L27.224,15.072 C25.887,16.410 24.108,17.147 22.214,17.148 L21.201,17.148 C20.644,17.148 20.192,16.697 20.192,16.139 C20.192,15.581 20.644,15.130 21.201,15.130 L22.214,15.130 C23.568,15.129 24.841,14.601 25.797,13.645 L28.784,10.657 C30.759,8.682 30.759,5.468 28.784,3.492 C26.809,1.517 23.595,1.517 21.619,3.492 L18.632,6.479 C17.675,7.436 17.147,8.710 17.147,10.063 L17.147,11.075 C17.147,11.633 16.696,12.084 16.138,12.084 C15.581,12.084 15.129,11.633 15.129,11.075 L15.129,10.063 C15.129,8.171 15.866,6.391 17.205,5.052 L20.192,2.065 C22.954,-0.696 27.449,-0.696 30.211,2.065 C32.973,4.828 32.973,9.323 30.211,12.084 ZM11.075,22.211 C10.817,22.211 10.559,22.112 10.362,21.915 C9.968,21.521 9.968,20.882 10.362,20.488 L21.500,9.349 C21.894,8.955 22.533,8.955 22.927,9.349 C23.321,9.744 23.321,10.382 22.927,10.776 L11.789,21.915 C11.592,22.112 11.334,22.211 11.075,22.211 ZM11.075,17.148 L10.063,17.148 C8.710,17.148 7.437,17.675 6.481,18.631 L3.494,21.619 C2.537,22.575 2.010,23.848 2.010,25.201 C2.010,26.553 2.537,27.826 3.494,28.782 C4.451,29.739 5.723,30.267 7.077,30.267 C8.430,30.267 9.702,29.739 10.659,28.782 L13.646,25.796 C14.603,24.838 15.130,23.566 15.129,22.214 L15.129,21.202 C15.129,20.644 15.581,20.192 16.138,20.192 C16.696,20.192 17.147,20.644 17.147,21.202 L17.147,22.213 C17.148,24.105 16.412,25.884 15.073,27.223 L12.086,30.210 C10.748,31.548 8.969,32.285 7.077,32.285 C5.184,32.285 3.405,31.548 2.067,30.210 C0.729,28.872 -0.008,27.093 -0.008,25.201 C-0.008,23.308 0.729,21.529 2.067,20.191 L5.054,17.204 C6.392,15.867 8.171,15.130 10.063,15.130 L11.075,15.130 C11.633,15.130 12.085,15.581 12.085,16.139 C12.085,16.697 11.633,17.148 11.075,17.148 Z" class="cls-1"/>
</svg>
