<svg xmlns="http://www.w3.org/2000/svg" xmlns:xlink="http://www.w3.org/1999/xlink" preserveAspectRatio="xMidYMid" width="32" height="18" viewBox="0 0 32 18">
  <defs>
    <style>
      .cls-1 {
        fill: #1b1b1b;
        fill-rule: evenodd;
      }
    </style>
  </defs>
  <path d="M30.999,10.000 L10.021,10.000 C9.468,10.000 9.020,9.552 9.020,9.000 C9.020,8.448 9.468,8.000 10.021,8.000 L30.999,8.000 C31.552,8.000 32.000,8.448 32.000,9.000 C32.000,9.552 31.552,10.000 30.999,10.000 ZM30.999,3.000 L10.021,3.000 C9.468,3.000 9.020,2.552 9.020,2.000 C9.020,1.448 9.468,1.000 10.021,1.000 L30.999,1.000 C31.552,1.000 32.000,1.448 32.000,2.000 C32.000,2.552 31.552,3.000 30.999,3.000 ZM3.002,18.000 L1.001,18.000 C0.449,18.000 0.001,17.552 0.001,17.000 L0.001,15.000 C0.001,14.448 0.449,14.000 1.001,14.000 L3.002,14.000 C3.554,14.000 4.002,14.448 4.002,15.000 L4.002,17.000 C4.002,17.552 3.554,18.000 3.002,18.000 ZM3.002,11.000 L1.001,11.000 C0.449,11.000 0.001,10.552 0.001,10.000 L0.001,8.000 C0.001,7.448 0.449,7.000 1.001,7.000 L3.002,7.000 C3.554,7.000 4.002,7.448 4.002,8.000 L4.002,10.000 C4.002,10.552 3.554,11.000 3.002,11.000 ZM3.002,4.000 L1.001,4.000 C0.449,4.000 0.001,3.552 0.001,3.000 L0.001,1.000 C0.001,0.448 0.449,-0.000 1.001,-0.000 L3.002,-0.000 C3.554,-0.000 4.002,0.448 4.002,1.000 L4.002,3.000 C4.002,3.552 3.554,4.000 3.002,4.000 ZM10.021,15.000 L30.999,15.000 C31.552,15.000 32.000,15.448 32.000,16.000 C32.000,16.552 31.552,17.000 30.999,17.000 L10.021,17.000 C9.468,17.000 9.020,16.552 9.020,16.000 C9.020,15.448 9.468,15.000 10.021,15.000 Z" class="cls-1"/>
</svg>
