<svg xmlns="http://www.w3.org/2000/svg" xmlns:xlink="http://www.w3.org/1999/xlink" preserveAspectRatio="xMidYMid" width="26" height="31.969" viewBox="0 0 26 31.969">
  <defs>
    <style>
      .cls-1 {
        fill: #1b1b1b;
        fill-rule: evenodd;
      }
    </style>
  </defs>
  <path d="M23.000,31.969 L3.000,31.969 C1.346,31.969 -0.000,30.625 -0.000,28.971 L-0.000,13.981 C-0.000,12.328 1.346,10.983 3.000,10.983 L5.579,10.983 L5.484,10.722 C3.976,6.579 6.120,1.983 10.266,0.474 C14.411,-1.032 19.012,1.110 20.520,5.252 L20.957,6.697 C21.117,7.225 20.817,7.783 20.289,7.942 C19.758,8.102 19.201,7.803 19.043,7.274 L18.623,5.883 C17.509,2.829 14.060,1.222 10.949,2.352 C7.841,3.484 6.231,6.932 7.363,10.038 L7.708,10.983 L23.000,10.983 C24.654,10.983 26.000,12.328 26.000,13.981 L26.000,28.971 C26.000,30.625 24.654,31.969 23.000,31.969 ZM24.000,13.981 C24.000,13.429 23.552,12.981 23.000,12.981 L3.000,12.981 C2.448,12.981 2.000,13.429 2.000,13.981 L2.000,28.971 C2.000,29.523 2.448,29.971 3.000,29.971 L23.000,29.971 C23.552,29.971 24.000,29.523 24.000,28.971 L24.000,13.981 ZM14.000,20.698 L14.000,23.974 C14.000,24.527 13.553,24.974 13.000,24.974 C12.447,24.974 12.000,24.527 12.000,23.974 L12.000,20.698 C11.405,20.351 11.000,19.714 11.000,18.978 C11.000,17.876 11.897,16.979 13.000,16.979 C14.103,16.979 15.000,17.876 15.000,18.978 C15.000,19.714 14.595,20.351 14.000,20.698 Z" class="cls-1"/>
</svg>
