<svg xmlns="http://www.w3.org/2000/svg" xmlns:xlink="http://www.w3.org/1999/xlink" preserveAspectRatio="xMidYMid" width="32" height="32" viewBox="0 0 32 32">
  <defs>
    <style>
      .cls-1 {
        fill: #1b1b1b;
        fill-rule: evenodd;
      }
    </style>
  </defs>
  <path d="M29.996,32.000 L12.975,32.000 C11.871,32.000 10.973,31.103 10.973,30.000 L10.973,22.000 C10.973,21.448 11.421,21.000 11.974,21.000 C12.527,21.000 12.975,21.448 12.975,22.000 L12.975,30.000 L29.996,30.000 L29.996,2.000 L12.975,2.000 L12.975,10.000 C12.975,10.552 12.527,11.000 11.974,11.000 C11.421,11.000 10.973,10.552 10.973,10.000 L10.973,2.000 C10.973,0.897 11.871,-0.000 12.975,-0.000 L29.996,-0.000 C31.100,-0.000 31.998,0.897 31.998,2.000 L31.998,30.000 C31.998,31.103 31.100,32.000 29.996,32.000 ZM16.272,10.707 C15.881,10.316 15.881,9.684 16.272,9.293 C16.663,8.902 17.297,8.902 17.688,9.293 L23.609,15.207 C23.858,15.389 24.030,15.669 24.030,16.000 C24.030,16.331 23.858,16.611 23.609,16.793 L17.688,22.707 C17.492,22.902 17.236,23.000 16.980,23.000 C16.724,23.000 16.468,22.902 16.272,22.707 C15.881,22.316 15.881,21.684 16.272,21.293 L20.570,17.000 L1.002,17.000 C0.449,17.000 0.001,16.552 0.001,16.000 C0.001,15.448 0.449,15.000 1.002,15.000 L20.570,15.000 L16.272,10.707 Z" class="cls-1"/>
</svg>
