<svg xmlns="http://www.w3.org/2000/svg" xmlns:xlink="http://www.w3.org/1999/xlink" preserveAspectRatio="xMidYMid" width="31.938" height="32" viewBox="0 0 31.938 32">
  <defs>
    <style>
      .cls-1 {
        fill: #1b1b1b;
        fill-rule: evenodd;
      }
    </style>
  </defs>
  <path d="M29.939,32.000 L12.947,32.000 C11.845,32.000 10.948,31.103 10.948,30.000 L10.948,22.000 C10.948,21.448 11.395,21.000 11.948,21.000 C12.500,21.000 12.947,21.448 12.947,22.000 L12.947,30.000 L29.939,30.000 L29.939,2.000 L12.947,2.000 L12.947,10.000 C12.947,10.552 12.500,11.000 11.948,11.000 C11.395,11.000 10.948,10.552 10.948,10.000 L10.948,2.000 C10.948,0.897 11.845,-0.000 12.947,-0.000 L29.939,-0.000 C31.041,-0.000 31.938,0.897 31.938,2.000 L31.938,30.000 C31.938,31.103 31.041,32.000 29.939,32.000 ZM3.447,15.000 L22.983,15.000 C23.536,15.000 23.983,15.448 23.983,16.000 C23.983,16.552 23.536,17.000 22.983,17.000 L3.448,17.000 L7.739,21.293 C8.129,21.684 8.129,22.316 7.739,22.707 C7.543,22.902 7.288,23.000 7.032,23.000 C6.776,23.000 6.520,22.902 6.325,22.707 L0.413,16.793 C0.165,16.611 -0.006,16.331 -0.006,16.000 C-0.006,15.669 0.166,15.389 0.414,15.207 L6.325,9.293 C6.716,8.902 7.348,8.902 7.739,9.293 C8.129,9.684 8.129,10.316 7.739,10.707 L3.447,15.000 Z" class="cls-1"/>
</svg>
