<svg xmlns="http://www.w3.org/2000/svg" xmlns:xlink="http://www.w3.org/1999/xlink" preserveAspectRatio="xMidYMid" width="32" height="26" viewBox="0 0 32 26">
  <defs>
    <style>
      .cls-1 {
        fill: #1b1b1b;
        fill-rule: evenodd;
      }
    </style>
  </defs>
  <path d="M29.010,22.000 L3.497,22.000 L5.783,24.293 C6.173,24.684 6.173,25.316 5.783,25.707 C5.588,25.902 5.333,26.000 5.078,26.000 C4.823,26.000 4.568,25.902 4.373,25.707 L0.386,21.708 C0.293,21.616 0.220,21.505 0.169,21.382 C0.069,21.138 0.069,20.862 0.170,20.618 C0.220,20.495 0.293,20.384 0.386,20.292 L4.373,16.293 C4.763,15.902 5.394,15.902 5.783,16.293 C6.173,16.684 6.173,17.316 5.783,17.707 L3.497,20.000 L29.010,20.000 C29.559,20.000 30.007,19.552 30.007,19.000 L30.007,3.000 C30.007,2.448 29.559,2.000 29.010,2.000 L3.084,2.000 C2.534,2.000 2.000,2.448 2.000,3.000 L2.000,14.000 C2.000,14.553 1.640,15.000 1.090,15.000 C0.539,15.000 -0.000,14.553 -0.000,14.000 L-0.000,3.000 C-0.000,1.346 1.434,-0.000 3.084,-0.000 L29.010,-0.000 C30.659,-0.000 32.001,1.346 32.001,3.000 L32.001,19.000 C32.001,20.654 30.659,22.000 29.010,22.000 Z" class="cls-1"/>
</svg>
