<svg xmlns="http://www.w3.org/2000/svg" xmlns:xlink="http://www.w3.org/1999/xlink" preserveAspectRatio="xMidYMid" width="31.844" height="31.938" viewBox="0 0 31.844 31.938">
  <defs>
    <style>
      .cls-1 {
        fill: #1b1b1b;
        fill-rule: evenodd;
      }
    </style>
  </defs>
  <path d="M31.731,15.825 C31.558,16.151 31.273,15.938 30.906,15.938 L24.906,15.938 L21.083,20.780 C20.891,21.018 20.605,21.152 20.308,21.152 C20.246,21.152 20.183,21.146 20.119,21.133 C19.758,21.064 19.464,20.799 19.356,20.446 L17.833,15.460 L1.691,31.646 C1.497,31.841 1.242,31.939 0.988,31.939 C0.733,31.939 0.478,31.841 0.284,31.646 C-0.105,31.256 -0.105,30.625 0.284,30.235 L16.390,14.085 L11.635,12.567 C11.285,12.455 11.024,12.157 10.958,11.793 C10.893,11.429 11.033,11.059 11.323,10.831 L15.920,7.210 L15.920,0.992 C15.920,0.621 16.126,0.280 16.454,0.108 C16.783,-0.065 17.181,-0.038 17.483,0.172 L22.833,3.900 L28.630,2.038 C28.983,1.923 29.375,2.019 29.639,2.285 C29.902,2.550 29.995,2.941 29.880,3.298 L27.951,9.240 L31.678,14.800 C31.883,15.106 31.904,15.500 31.731,15.825 ZM26.028,9.950 C25.858,9.695 25.813,9.375 25.908,9.084 L27.384,4.534 L22.972,5.952 C22.677,6.046 22.354,5.998 22.101,5.821 L17.911,2.901 L17.911,7.695 C17.911,8.002 17.771,8.291 17.530,8.480 L14.031,11.236 L18.232,12.577 C18.517,12.550 18.809,12.633 19.027,12.852 C19.184,13.009 19.260,13.208 19.290,13.413 L20.711,18.063 L23.393,14.729 C23.581,14.494 23.605,13.938 23.906,13.938 L28.906,13.938 L26.028,9.950 Z" class="cls-1"/>
</svg>
