<svg xmlns="http://www.w3.org/2000/svg" xmlns:xlink="http://www.w3.org/1999/xlink" preserveAspectRatio="xMidYMid" width="31.906" height="32" viewBox="0 0 31.906 32">
  <defs>
    <style>
      .cls-1 {
        fill: #1b1b1b;
        fill-rule: evenodd;
      }
    </style>
  </defs>
  <path d="M31.610,31.707 C31.415,31.902 31.160,32.000 30.905,32.000 C30.649,32.000 30.394,31.902 30.200,31.707 L19.677,21.155 C17.592,22.926 14.900,24.000 11.959,24.000 C5.361,24.000 -0.007,18.617 -0.007,12.000 C-0.007,5.383 5.361,-0.000 11.959,-0.000 C18.557,-0.000 23.925,5.383 23.925,12.000 C23.925,14.949 22.854,17.649 21.087,19.741 L31.610,30.293 C31.999,30.684 31.999,31.316 31.610,31.707 ZM11.959,2.000 C6.461,2.000 1.988,6.486 1.988,12.000 C1.988,17.514 6.461,22.000 11.959,22.000 C17.457,22.000 21.930,17.514 21.930,12.000 C21.930,6.486 17.457,2.000 11.959,2.000 Z" class="cls-1"/>
</svg>
