<svg xmlns="http://www.w3.org/2000/svg" xmlns:xlink="http://www.w3.org/1999/xlink" preserveAspectRatio="xMidYMid" width="28" height="32" viewBox="0 0 28 32">
  <defs>
    <style>
      .cls-1 {
        fill: #1b1b1b;
        fill-rule: evenodd;
      }
    </style>
  </defs>
  <path d="M27.977,18.313 C27.732,25.900 21.565,32.000 14.000,32.000 C6.435,32.000 0.268,25.900 0.023,18.313 C0.018,18.273 0.000,18.238 0.000,18.197 L0.000,1.000 C0.000,0.447 0.447,0.000 1.000,0.000 L8.000,0.000 C8.553,0.000 9.000,0.447 9.000,1.000 L9.000,17.849 C9.000,20.645 11.243,22.919 14.000,22.919 C16.757,22.919 19.000,20.645 19.000,17.849 L19.000,1.000 C19.000,0.447 19.447,0.000 20.000,0.000 L27.000,0.000 C27.553,0.000 28.000,0.447 28.000,1.000 L28.000,18.197 C28.000,18.238 27.982,18.273 27.977,18.313 ZM2.000,2.000 L2.000,6.000 L7.000,6.000 L7.000,2.000 L2.000,2.000 ZM26.000,2.000 L21.000,2.000 L21.000,6.000 L26.000,6.000 L26.000,2.000 ZM26.000,8.000 L21.000,8.000 L21.000,18.197 C21.000,18.319 20.971,18.433 20.931,18.541 C20.580,22.111 17.625,24.919 14.000,24.919 C10.375,24.919 7.420,22.111 7.069,18.541 C7.029,18.433 7.000,18.319 7.000,18.197 L7.000,8.000 L2.000,8.000 L2.000,17.849 C2.000,24.549 7.383,30.000 14.000,30.000 C20.617,30.000 26.000,24.549 26.000,17.849 L26.000,8.000 Z" class="cls-1"/>
</svg>
