<svg xmlns="http://www.w3.org/2000/svg" xmlns:xlink="http://www.w3.org/1999/xlink" preserveAspectRatio="xMidYMid" width="32" height="32" viewBox="0 0 32 32">
  <defs>
    <style>
      .cls-1 {
        fill: #1b1b1b;
        fill-rule: evenodd;
      }
    </style>
  </defs>
  <path d="M30.000,32.000 L2.000,32.000 C0.898,32.000 0.000,31.103 0.000,30.001 L0.000,28.001 C0.000,27.635 0.200,27.298 0.522,27.123 L10.310,21.785 C7.032,18.238 6.996,13.223 6.996,12.991 L7.002,6.996 C7.002,6.941 7.007,6.885 7.016,6.831 C7.705,2.745 12.218,-0.000 16.000,-0.000 C16.001,-0.000 16.003,-0.000 16.004,-0.000 C19.784,-0.000 24.295,2.743 24.986,6.828 C24.995,6.883 25.000,6.939 25.000,6.994 L25.004,12.989 C25.004,13.221 24.968,18.236 21.689,21.783 L31.478,27.121 C31.800,27.296 32.000,27.633 32.000,27.999 L32.000,30.001 C32.000,31.103 31.103,32.000 30.000,32.000 ZM30.000,30.001 L30.000,31.000 L30.000,30.001 L30.000,30.001 ZM2.000,28.595 L2.000,30.001 L29.998,30.001 L29.999,28.594 L19.521,22.878 C19.229,22.718 19.034,22.423 19.004,22.091 C18.974,21.759 19.111,21.434 19.370,21.223 C22.968,18.306 23.004,13.043 23.004,12.991 L23.000,7.083 C22.438,4.082 18.879,1.998 16.000,1.998 C13.120,1.999 9.563,4.085 9.002,7.085 L8.996,12.993 C8.996,13.044 9.052,18.323 12.630,21.225 C12.889,21.436 13.026,21.761 12.996,22.093 C12.966,22.425 12.772,22.720 12.479,22.880 L2.000,28.595 Z" class="cls-1"/>
</svg>
