<svg xmlns="http://www.w3.org/2000/svg" xmlns:xlink="http://www.w3.org/1999/xlink" preserveAspectRatio="xMidYMid" width="32" height="31.906" viewBox="0 0 32 31.906">
  <defs>
    <style>
      .cls-1 {
        fill: #1b1b1b;
        fill-rule: evenodd;
      }
    </style>
  </defs>
  <path d="M31.560,31.732 C31.393,31.846 31.197,31.903 31.000,31.903 C30.874,31.903 30.748,31.880 30.629,31.832 L21.000,27.996 L11.372,31.832 C11.360,31.837 11.347,31.835 11.335,31.839 C11.231,31.877 11.123,31.900 11.013,31.901 C11.009,31.901 11.005,31.904 11.001,31.904 C10.884,31.904 10.772,31.878 10.664,31.839 C10.652,31.835 10.640,31.837 10.628,31.832 L0.628,27.848 C0.249,27.696 0.000,27.330 0.000,26.923 L0.000,1.023 C0.000,0.692 0.165,0.383 0.440,0.198 C0.714,0.013 1.064,-0.024 1.372,0.098 L11.000,3.934 L20.629,0.098 C20.685,0.076 20.743,0.079 20.801,0.067 C20.851,0.056 20.897,0.043 20.948,0.040 C21.070,0.034 21.187,0.052 21.301,0.088 C21.324,0.096 21.349,0.089 21.371,0.098 L31.371,4.083 C31.751,4.234 32.000,4.601 32.000,5.008 L32.000,30.907 C32.000,31.238 31.835,31.547 31.560,31.732 ZM10.000,5.682 L2.000,2.495 L2.000,26.248 L10.000,29.436 L10.000,5.682 ZM12.000,5.682 L12.000,29.436 L20.000,26.248 L20.000,2.495 L12.000,5.682 ZM30.000,5.682 L22.000,2.495 L22.000,26.248 L30.000,29.436 L30.000,5.682 Z" class="cls-1"/>
</svg>
