<svg xmlns="http://www.w3.org/2000/svg" xmlns:xlink="http://www.w3.org/1999/xlink" preserveAspectRatio="xMidYMid" width="20" height="32" viewBox="0 0 20 32">
  <defs>
    <style>
      .cls-1 {
        fill: #1b1b1b;
        fill-rule: evenodd;
      }
    </style>
  </defs>
  <path d="M11.000,26.949 L11.000,30.000 L16.000,30.000 C16.552,30.000 17.000,30.447 17.000,31.000 C17.000,31.553 16.552,32.000 16.000,32.000 L4.000,32.000 C3.448,32.000 3.000,31.553 3.000,31.000 C3.000,30.447 3.448,30.000 4.000,30.000 L9.000,30.000 L9.000,26.949 C3.954,26.446 -0.000,22.176 -0.000,17.000 L-0.000,13.000 C-0.000,12.447 0.448,12.000 1.000,12.000 C1.552,12.000 2.000,12.447 2.000,13.000 L2.000,17.000 C2.000,21.411 5.589,25.000 10.000,25.000 C14.411,25.000 18.000,21.411 18.000,17.000 L18.000,13.000 C18.000,12.447 18.448,12.000 19.000,12.000 C19.552,12.000 20.000,12.447 20.000,13.000 L20.000,17.000 C20.000,22.176 16.046,26.446 11.000,26.949 ZM10.000,22.000 C7.243,22.000 5.000,19.757 5.000,17.000 L5.000,5.000 C5.000,4.999 5.000,4.999 5.000,4.998 C5.003,2.242 7.245,0.000 10.000,0.000 C12.755,0.000 14.997,2.242 15.000,4.998 C15.000,4.999 15.000,4.999 15.000,5.000 L15.000,17.000 C15.000,19.757 12.757,22.000 10.000,22.000 ZM13.000,5.002 C13.000,3.347 11.654,2.000 10.000,2.000 C8.346,2.000 7.000,3.347 7.000,5.002 L7.000,17.000 C7.000,18.654 8.346,20.000 10.000,20.000 C11.654,20.000 13.000,18.654 13.000,17.000 L13.000,5.002 Z" class="cls-1"/>
</svg>
