<svg xmlns="http://www.w3.org/2000/svg" xmlns:xlink="http://www.w3.org/1999/xlink" preserveAspectRatio="xMidYMid" width="18" height="32" viewBox="0 0 18 32">
  <defs>
    <style>
      .cls-1 {
        fill: #1b1b1b;
        fill-rule: evenodd;
      }
    </style>
  </defs>
  <path d="M9.000,32.000 C4.038,32.000 -0.000,27.962 -0.000,23.000 L-0.000,9.000 C-0.000,4.038 4.038,-0.000 9.000,-0.000 C13.962,-0.000 18.000,4.038 18.000,9.000 L18.000,23.000 C18.000,27.962 13.962,32.000 9.000,32.000 ZM16.000,9.000 C16.000,5.140 12.860,2.000 9.000,2.000 C5.140,2.000 2.000,5.140 2.000,9.000 L2.000,23.000 C2.000,26.860 5.140,30.000 9.000,30.000 C12.860,30.000 16.000,26.860 16.000,23.000 L16.000,9.000 ZM9.000,13.000 C8.448,13.000 8.000,12.552 8.000,12.000 L8.000,7.000 C8.000,6.448 8.448,6.000 9.000,6.000 C9.552,6.000 10.000,6.448 10.000,7.000 L10.000,12.000 C10.000,12.552 9.552,13.000 9.000,13.000 Z" class="cls-1"/>
</svg>
