<svg xmlns="http://www.w3.org/2000/svg" xmlns:xlink="http://www.w3.org/1999/xlink" preserveAspectRatio="xMidYMid" width="21.906" height="31.938" viewBox="0 0 21.906 31.938">
  <defs>
    <style>
      .cls-1 {
        fill: #1b1b1b;
        fill-rule: evenodd;
      }
    </style>
  </defs>
  <path d="M21.610,11.683 C21.222,12.075 20.592,12.074 20.202,11.685 L11.942,3.421 L11.942,26.380 C11.942,26.456 11.915,26.522 11.899,26.593 C11.909,26.713 11.942,26.828 11.942,26.950 C11.942,29.701 9.262,31.938 5.967,31.938 C2.672,31.938 -0.009,29.701 -0.009,26.950 C-0.009,24.188 2.672,21.942 5.967,21.942 C7.526,21.942 8.935,22.456 10.000,23.279 L10.000,0.938 C10.000,0.534 10.192,0.245 10.564,0.090 C10.936,-0.062 11.363,0.022 11.649,0.306 L21.608,10.269 C21.997,10.659 21.999,11.291 21.610,11.683 ZM5.967,23.941 C3.770,23.941 1.983,25.291 1.983,26.950 C1.983,28.570 3.807,29.939 5.967,29.939 C8.126,29.939 9.950,28.570 9.950,26.950 C9.950,25.291 8.163,23.941 5.967,23.941 Z" class="cls-1"/>
</svg>
