<svg xmlns="http://www.w3.org/2000/svg" xmlns:xlink="http://www.w3.org/1999/xlink" preserveAspectRatio="xMidYMid" width="29.906" height="31.906" viewBox="0 0 29.906 31.906">
  <defs>
    <style>
      .cls-1 {
        fill: #1b1b1b;
        fill-rule: evenodd;
      }
    </style>
  </defs>
  <path d="M29.905,21.944 C29.905,24.688 27.221,26.920 23.923,26.920 C20.624,26.920 17.941,24.688 17.941,21.944 C17.941,19.189 20.624,16.948 23.923,16.948 C25.502,16.948 26.930,17.471 28.000,18.309 L28.000,2.220 L11.959,5.843 L11.959,26.361 C11.959,26.437 11.932,26.504 11.916,26.574 C11.926,26.694 11.959,26.809 11.959,26.930 C11.959,29.674 9.276,31.906 5.977,31.906 C2.678,31.906 -0.005,29.674 -0.005,26.930 C-0.005,24.175 2.678,21.934 5.977,21.934 C7.531,21.934 8.935,22.443 10.000,23.258 L10.000,4.906 C10.000,4.440 10.288,4.176 10.742,4.072 L28.688,0.019 C28.718,0.012 28.747,0.021 28.778,0.017 C28.823,0.012 28.860,-0.005 28.908,-0.005 C28.940,-0.005 28.966,0.010 28.998,0.013 C29.062,0.019 29.121,0.032 29.182,0.050 C29.249,0.070 29.311,0.091 29.371,0.123 C29.422,0.151 29.467,0.183 29.513,0.219 C29.567,0.262 29.616,0.305 29.661,0.358 C29.700,0.404 29.730,0.453 29.760,0.505 C29.795,0.565 29.823,0.625 29.844,0.691 C29.853,0.720 29.874,0.742 29.880,0.772 C29.889,0.810 29.879,0.846 29.883,0.884 C29.887,0.921 29.905,0.954 29.905,0.992 L29.905,21.310 C29.905,21.395 29.877,21.470 29.857,21.548 C29.870,21.681 29.905,21.809 29.905,21.944 ZM5.977,23.928 C3.778,23.928 1.989,25.275 1.989,26.930 C1.989,28.546 3.816,29.911 5.977,29.911 C8.139,29.911 9.965,28.546 9.965,26.930 C9.965,25.275 8.177,23.928 5.977,23.928 ZM23.923,18.942 C21.723,18.942 19.935,20.289 19.935,21.944 C19.935,23.560 21.761,24.925 23.923,24.925 C26.084,24.925 27.911,23.560 27.911,21.944 C27.911,20.289 26.122,18.942 23.923,18.942 Z" class="cls-1"/>
</svg>
