<svg xmlns="http://www.w3.org/2000/svg" xmlns:xlink="http://www.w3.org/1999/xlink" preserveAspectRatio="xMidYMid" width="31.938" height="31.938" viewBox="0 0 31.938 31.938">
  <defs>
    <style>
      .cls-1 {
        fill: #1b1b1b;
        fill-rule: evenodd;
      }
    </style>
  </defs>
  <path d="M31.949,4.133 C31.884,5.018 31.447,5.890 30.683,6.653 L16.694,20.649 C16.584,20.759 16.450,20.841 16.303,20.890 L10.308,22.890 C10.204,22.925 10.098,22.941 9.992,22.941 C9.731,22.941 9.475,22.839 9.285,22.648 C9.017,22.381 8.924,21.984 9.044,21.625 L11.042,15.627 C11.091,15.480 11.174,15.346 11.284,15.236 L25.273,1.241 C26.039,0.474 26.919,0.040 27.816,-0.014 C28.531,-0.062 29.614,0.125 30.730,1.241 C31.831,2.342 32.001,3.422 31.949,4.133 ZM29.317,2.655 C28.843,2.181 28.378,1.965 27.936,1.981 C27.429,2.012 26.976,2.364 26.686,2.655 L12.863,16.483 L11.572,20.361 L15.448,19.068 L29.270,5.240 C29.563,4.947 29.919,4.492 29.955,3.989 C29.987,3.559 29.772,3.110 29.317,2.655 ZM17.986,4.947 L1.998,4.947 L1.998,29.939 L26.979,29.939 L26.979,13.944 C26.979,13.392 27.426,12.944 27.978,12.944 C28.530,12.944 28.977,13.392 28.977,13.944 L28.977,30.939 C28.977,31.491 28.530,31.938 27.978,31.938 L0.998,31.938 C0.447,31.938 -0.001,31.491 -0.001,30.939 L-0.001,3.947 C-0.001,3.395 0.447,2.947 0.998,2.947 L17.986,2.947 C18.538,2.947 18.985,3.395 18.985,3.947 C18.985,4.499 18.538,4.947 17.986,4.947 Z" class="cls-1"/>
</svg>
