<svg xmlns="http://www.w3.org/2000/svg" xmlns:xlink="http://www.w3.org/1999/xlink" preserveAspectRatio="xMidYMid" width="28" height="32" viewBox="0 0 28 32">
  <defs>
    <style>
      .cls-1 {
        fill: #1b1b1b;
        fill-rule: evenodd;
      }
    </style>
  </defs>
  <path d="M25.000,32.000 L3.002,32.000 C2.449,32.000 2.002,31.552 2.002,31.000 L2.002,26.002 L1.000,26.002 C0.447,26.002 0.000,25.554 0.000,25.002 C0.000,24.450 0.447,24.002 1.000,24.002 L2.002,24.002 L2.002,20.002 L1.000,20.002 C0.447,20.002 0.000,19.554 0.000,19.002 C0.000,18.450 0.447,18.002 1.000,18.002 L2.002,18.002 L2.002,14.002 L1.000,14.002 C0.447,14.002 0.000,13.554 0.000,13.002 C0.000,12.450 0.447,12.002 1.000,12.002 L2.002,12.002 L2.002,8.002 L1.000,8.002 C0.447,8.002 0.000,7.554 0.000,7.002 C0.000,6.450 0.447,6.002 1.000,6.002 L2.002,6.002 L2.002,1.000 C2.002,0.448 2.449,-0.000 3.002,-0.000 L25.000,-0.000 C26.654,-0.000 28.000,1.346 28.000,3.000 L28.000,29.000 C28.000,30.654 26.654,32.000 25.000,32.000 ZM20.000,2.000 L4.002,2.000 L4.002,6.002 L5.000,6.002 C5.553,6.002 6.000,6.450 6.000,7.002 C6.000,7.554 5.553,8.002 5.000,8.002 L4.002,8.002 L4.002,12.002 L5.000,12.002 C5.553,12.002 6.000,12.450 6.000,13.002 C6.000,13.554 5.553,14.002 5.000,14.002 L4.002,14.002 L4.002,18.002 L5.000,18.002 C5.553,18.002 6.000,18.450 6.000,19.002 C6.000,19.554 5.553,20.002 5.000,20.002 L4.002,20.002 L4.002,24.002 L5.000,24.002 C5.553,24.002 6.000,24.450 6.000,25.002 C6.000,25.554 5.553,26.002 5.000,26.002 L4.002,26.002 L4.002,30.000 L20.000,30.000 L20.000,2.000 ZM26.000,3.000 C26.000,2.449 25.552,2.000 25.000,2.000 L22.000,2.000 L22.000,30.000 L25.000,30.000 C25.552,30.000 26.000,29.551 26.000,29.000 L26.000,3.000 Z" class="cls-1"/>
</svg>
