<svg xmlns="http://www.w3.org/2000/svg" xmlns:xlink="http://www.w3.org/1999/xlink" preserveAspectRatio="xMidYMid" width="31.938" height="29.219" viewBox="0 0 31.938 29.219">
  <defs>
    <style>
      .cls-1 {
        fill: #1b1b1b;
        fill-rule: evenodd;
      }
    </style>
  </defs>
  <path d="M5.585,29.210 C4.138,29.210 2.759,28.701 1.731,27.663 C0.546,26.469 -0.064,24.937 0.014,23.352 C0.095,21.699 0.905,20.051 2.356,18.587 L18.461,2.333 C21.539,-0.775 26.548,-0.775 29.628,2.333 C31.119,3.838 31.941,5.840 31.941,7.968 C31.941,10.097 31.119,12.098 29.628,13.603 L15.578,27.783 C15.188,28.177 14.557,28.177 14.167,27.783 C13.777,27.390 13.777,26.752 14.167,26.359 L28.217,12.179 C29.331,11.054 29.945,9.559 29.945,7.968 C29.945,6.378 29.331,4.882 28.217,3.758 C25.915,1.436 22.172,1.437 19.872,3.758 L3.767,20.012 C2.672,21.116 2.064,22.306 2.008,23.451 C1.957,24.475 2.349,25.439 3.142,26.238 C4.638,27.750 7.367,27.455 9.223,25.581 L22.527,12.153 C23.233,11.439 23.234,10.278 22.527,9.565 C21.820,8.850 20.669,8.850 19.961,9.565 L8.735,20.895 C8.345,21.289 7.714,21.289 7.324,20.895 C6.934,20.501 6.934,19.864 7.324,19.470 L18.550,8.140 C20.035,6.640 22.453,6.640 23.938,8.140 C25.422,9.637 25.423,12.077 23.939,13.578 L10.634,27.006 C9.190,28.463 7.338,29.210 5.585,29.210 Z" class="cls-1"/>
</svg>
