<svg xmlns="http://www.w3.org/2000/svg" xmlns:xlink="http://www.w3.org/1999/xlink" preserveAspectRatio="xMidYMid" width="22" height="32" viewBox="0 0 22 32">
  <defs>
    <style>
      .cls-1 {
        fill: #1b1b1b;
        fill-rule: evenodd;
      }
    </style>
  </defs>
  <path d="M21.000,32.000 L14.000,32.000 C13.448,32.000 13.000,31.553 13.000,31.000 L13.000,1.000 C13.000,0.447 13.448,0.000 14.000,0.000 L21.000,0.000 C21.552,0.000 22.000,0.447 22.000,1.000 L22.000,31.000 C22.000,31.553 21.552,32.000 21.000,32.000 ZM20.000,2.000 L15.000,2.000 L15.000,30.000 L20.000,30.000 L20.000,2.000 ZM8.000,32.000 L1.000,32.000 C0.448,32.000 0.000,31.553 0.000,31.000 L0.000,1.000 C0.000,0.447 0.448,0.000 1.000,0.000 L8.000,0.000 C8.552,0.000 9.000,0.447 9.000,1.000 L9.000,31.000 C9.000,31.553 8.552,32.000 8.000,32.000 ZM7.000,2.000 L2.000,2.000 L2.000,30.000 L7.000,30.000 L7.000,2.000 Z" class="cls-1"/>
</svg>
