<svg xmlns="http://www.w3.org/2000/svg" xmlns:xlink="http://www.w3.org/1999/xlink" preserveAspectRatio="xMidYMid" width="31.938" height="32" viewBox="0 0 31.938 32">
  <defs>
    <style>
      .cls-1 {
        fill: #1b1b1b;
        fill-rule: evenodd;
      }
    </style>
  </defs>
  <path d="M30.769,6.829 C30.748,6.849 30.721,6.856 30.700,6.874 C30.680,6.899 30.671,6.929 30.649,6.951 L28.654,8.951 C28.653,8.951 28.653,8.951 28.653,8.951 C28.653,8.951 28.653,8.951 28.653,8.951 L8.955,28.693 C8.954,28.693 8.953,28.694 8.953,28.695 L8.949,28.699 C8.903,28.745 8.845,28.767 8.794,28.802 C8.738,28.841 8.690,28.889 8.625,28.916 L8.619,28.918 C8.619,28.919 8.618,28.919 8.618,28.919 L1.392,31.924 C1.269,31.975 1.138,32.000 1.010,32.000 C0.751,32.000 0.495,31.898 0.304,31.707 C0.019,31.421 -0.067,30.991 0.088,30.617 L3.088,23.367 C3.098,23.343 3.118,23.327 3.130,23.304 C3.177,23.211 3.229,23.119 3.304,23.043 L25.004,1.293 C25.026,1.272 25.054,1.264 25.076,1.245 C25.095,1.222 25.103,1.194 25.124,1.172 C25.877,0.417 26.880,-0.000 27.946,-0.000 C29.013,-0.000 30.014,0.416 30.769,1.172 C31.523,1.927 31.938,2.932 31.938,4.001 C31.937,5.069 31.522,6.074 30.769,6.829 ZM2.855,29.150 L6.482,27.642 L4.360,25.515 L2.855,29.150 ZM8.243,26.578 L26.537,8.244 L23.714,5.414 L5.421,23.750 L8.243,26.578 ZM29.358,2.586 C28.604,1.830 27.289,1.831 26.537,2.585 C26.515,2.607 26.487,2.615 26.463,2.635 C26.444,2.657 26.437,2.686 26.415,2.707 L25.125,4.000 L27.948,6.830 L29.238,5.537 C29.258,5.517 29.285,5.510 29.306,5.492 C29.326,5.467 29.335,5.437 29.358,5.414 C29.735,5.037 29.942,4.535 29.942,4.001 C29.942,3.466 29.735,2.964 29.358,2.586 Z" class="cls-1"/>
</svg>
