<svg xmlns="http://www.w3.org/2000/svg" xmlns:xlink="http://www.w3.org/1999/xlink" preserveAspectRatio="xMidYMid" width="18" height="32" viewBox="0 0 18 32">
  <defs>
    <style>
      .cls-1 {
        fill: #1b1b1b;
        fill-rule: evenodd;
      }
    </style>
  </defs>
  <path d="M15.000,32.000 L3.000,32.000 C1.346,32.000 0.000,30.654 0.000,29.000 L0.000,3.000 C0.000,1.346 1.346,-0.000 3.000,-0.000 L15.000,-0.000 C16.654,-0.000 18.000,1.346 18.000,3.000 L18.000,29.000 C18.000,30.654 16.654,32.000 15.000,32.000 ZM16.000,3.000 C16.000,2.449 15.552,2.000 15.000,2.000 L3.000,2.000 C2.449,2.000 2.000,2.449 2.000,3.000 L2.000,29.000 C2.000,29.551 2.449,30.000 3.000,30.000 L15.000,30.000 C15.552,30.000 16.000,29.551 16.000,29.000 L16.000,3.000 ZM11.000,5.000 L7.000,5.000 C6.448,5.000 6.000,4.552 6.000,4.000 C6.000,3.448 6.448,3.000 7.000,3.000 L11.000,3.000 C11.553,3.000 12.000,3.448 12.000,4.000 C12.000,4.552 11.553,5.000 11.000,5.000 ZM9.000,25.000 C10.102,25.000 11.000,25.897 11.000,27.000 C11.000,28.103 10.102,29.000 9.000,29.000 C7.897,29.000 7.000,28.103 7.000,27.000 C7.000,25.897 7.897,25.000 9.000,25.000 Z" class="cls-1"/>
</svg>
