<svg xmlns="http://www.w3.org/2000/svg" xmlns:xlink="http://www.w3.org/1999/xlink" preserveAspectRatio="xMidYMid" width="31.906" height="26" viewBox="0 0 31.906 26">
  <defs>
    <style>
      .cls-1 {
        fill: #1b1b1b;
        fill-rule: evenodd;
      }
    </style>
  </defs>
  <path d="M29.910,26.000 L2.083,26.000 C0.988,26.000 0.000,25.103 0.000,24.000 L0.000,2.000 C0.000,0.897 0.988,0.000 2.083,0.000 L29.910,0.000 C31.005,0.000 31.897,0.897 31.897,2.000 L31.897,22.000 C31.897,22.000 31.897,22.000 31.897,22.000 L31.897,24.000 C31.897,25.103 31.005,26.000 29.910,26.000 ZM30.000,2.000 L2.000,2.000 L2.000,15.848 L9.374,9.253 C9.766,8.901 10.366,8.919 10.736,9.293 L18.058,16.660 L22.332,13.219 C22.727,12.901 23.297,12.932 23.656,13.293 L30.000,19.677 L30.000,2.000 ZM30.000,22.505 L22.879,15.340 L18.605,18.781 C18.211,19.099 17.641,19.069 17.281,18.707 L9.994,11.374 L2.000,18.523 L2.000,24.000 L30.000,24.000 L30.000,22.505 ZM20.966,8.002 C20.966,6.898 21.858,6.000 22.955,6.000 C24.050,6.000 24.941,6.898 24.941,8.002 C24.941,9.104 24.050,10.000 22.955,10.000 C21.858,10.000 20.966,9.104 20.966,8.002 ZM22.955,8.000 C22.954,8.000 22.953,8.001 22.952,8.001 L22.955,9.000 L22.955,8.000 Z" class="cls-1"/>
</svg>
