<svg xmlns="http://www.w3.org/2000/svg" xmlns:xlink="http://www.w3.org/1999/xlink" preserveAspectRatio="xMidYMid" width="32" height="32" viewBox="0 0 32 32">
  <defs>
    <style>
      .cls-1 {
        fill: #1b1b1b;
        fill-rule: evenodd;
      }
    </style>
  </defs>
  <path d="M17.500,32.000 C9.670,32.000 3.306,25.875 3.010,18.055 C2.990,17.503 3.420,17.039 3.972,17.018 C4.520,17.004 4.988,17.428 5.009,17.980 C5.264,24.720 10.750,30.000 17.500,30.000 C24.393,30.000 30.000,24.393 30.000,17.500 C30.000,10.748 24.718,5.261 17.976,5.009 C17.423,4.988 16.993,4.524 17.013,3.973 C17.034,3.420 17.495,2.987 18.050,3.010 C25.873,3.303 32.000,9.667 32.000,17.500 C32.000,25.495 25.495,32.000 17.500,32.000 ZM15.000,14.000 C15.000,14.552 14.552,15.000 14.000,15.000 L1.117,15.000 C1.079,15.004 1.040,15.007 1.000,15.007 C0.448,15.007 -0.000,14.566 -0.000,14.014 L-0.000,14.000 L-0.000,14.000 L-0.000,13.999 C0.008,6.288 6.288,0.008 13.999,-0.000 C13.999,-0.000 14.002,-0.000 14.005,-0.000 L14.012,-0.000 C14.013,-0.000 14.013,-0.000 14.013,-0.000 C14.565,-0.000 15.013,0.448 15.013,0.999 C15.013,1.054 15.008,1.108 15.000,1.160 L15.000,14.000 ZM13.000,2.043 C7.185,2.531 2.531,7.185 2.043,13.000 L13.000,13.000 L13.000,2.043 Z" class="cls-1"/>
</svg>
