<svg xmlns="http://www.w3.org/2000/svg" xmlns:xlink="http://www.w3.org/1999/xlink" preserveAspectRatio="xMidYMid" width="31.844" height="31.938" viewBox="0 0 31.844 31.938">
  <defs>
    <style>
      .cls-1 {
        fill: #1b1b1b;
        fill-rule: evenodd;
      }
    </style>
  </defs>
  <path d="M31.149,13.506 C30.164,13.812 29.141,13.968 28.108,13.968 C27.122,13.968 26.160,13.824 25.240,13.556 L19.800,19.011 C21.034,21.880 21.258,25.138 20.297,28.242 C20.193,28.575 19.924,28.830 19.584,28.914 C19.506,28.934 19.426,28.944 19.346,28.944 C19.086,28.944 18.831,28.841 18.642,28.651 L11.657,21.646 C11.652,21.651 11.651,21.657 11.646,21.662 L1.691,31.646 C1.497,31.841 1.242,31.939 0.987,31.939 C0.732,31.939 0.478,31.841 0.283,31.646 C-0.106,31.256 -0.106,30.625 0.283,30.235 L10.239,20.251 C10.243,20.246 10.250,20.244 10.255,20.240 L3.270,13.234 C3.023,12.987 2.924,12.629 3.007,12.290 C3.091,11.950 3.345,11.679 3.678,11.576 C4.960,11.175 6.292,10.972 7.639,10.972 C9.475,10.972 11.251,11.351 12.888,12.058 L18.333,6.598 C17.783,4.703 17.764,2.657 18.374,0.692 C18.478,0.358 18.748,0.103 19.087,0.019 C19.422,-0.064 19.783,0.035 20.029,0.283 L31.557,11.846 C31.804,12.093 31.903,12.452 31.820,12.791 C31.736,13.131 31.481,13.402 31.149,13.506 ZM7.639,12.969 C7.071,12.969 6.505,13.011 5.947,13.096 L18.781,25.967 C19.315,22.439 18.170,18.846 15.611,16.278 C13.482,14.144 10.651,12.969 7.639,12.969 ZM14.727,13.037 C15.545,13.558 16.317,14.162 17.019,14.866 C17.720,15.569 18.304,16.352 18.821,17.170 L23.245,12.733 C22.393,12.269 21.602,11.682 20.898,10.975 C20.189,10.264 19.608,9.463 19.146,8.607 L14.727,13.037 ZM19.933,3.011 C19.719,5.414 20.562,7.814 22.306,9.564 C23.169,10.429 24.201,11.076 25.321,11.481 C25.332,11.485 25.344,11.486 25.356,11.491 C26.457,11.884 27.642,12.043 28.834,11.939 L19.933,3.011 Z" class="cls-1"/>
</svg>
