<svg xmlns="http://www.w3.org/2000/svg" xmlns:xlink="http://www.w3.org/1999/xlink" preserveAspectRatio="xMidYMid" width="31.938" height="31.969" viewBox="0 0 31.938 31.969">
  <defs>
    <style>
      .cls-1 {
        fill: #1b1b1b;
        fill-rule: evenodd;
      }
    </style>
  </defs>
  <path d="M29.716,7.869 C29.714,7.871 29.711,7.871 29.709,7.874 C29.706,7.876 29.706,7.879 29.703,7.881 L23.045,14.312 L25.935,27.758 C26.006,28.089 25.905,28.435 25.665,28.674 L22.673,31.663 C22.438,31.898 22.103,32.001 21.774,31.937 C21.447,31.871 21.174,31.649 21.046,31.342 L16.567,20.624 L10.967,25.424 L10.967,28.959 C10.967,29.225 10.862,29.478 10.674,29.665 L8.677,31.663 C8.488,31.852 8.234,31.955 7.971,31.955 C7.905,31.955 7.838,31.949 7.770,31.935 C7.442,31.868 7.169,31.639 7.044,31.327 L5.265,26.880 L0.629,25.135 C0.301,25.013 0.062,24.726 -0.001,24.382 C-0.064,24.036 0.058,23.684 0.321,23.452 L2.693,21.190 C2.875,21.029 3.110,20.940 3.353,20.940 L6.879,20.940 L11.347,15.599 L0.583,10.916 C0.280,10.785 0.061,10.511 0.000,10.186 C-0.061,9.861 0.042,9.527 0.276,9.294 L3.289,6.290 C3.528,6.051 3.873,5.947 4.203,6.021 L17.624,8.893 L24.055,2.233 C25.903,0.385 27.595,-0.001 28.693,-0.001 C28.694,-0.001 28.695,-0.001 28.696,-0.001 C29.819,-0.000 30.727,0.406 31.129,0.809 C31.530,1.209 31.936,2.117 31.937,3.240 C31.938,4.337 31.553,6.031 29.716,7.869 ZM29.691,2.192 C29.399,1.984 27.661,1.451 25.480,3.632 L18.676,10.678 C18.436,10.926 18.084,11.035 17.748,10.961 L4.315,8.087 L2.727,9.671 L13.362,14.298 C13.651,14.422 13.862,14.676 13.936,14.981 C14.009,15.287 13.934,15.609 13.733,15.851 L8.116,22.577 C7.927,22.805 7.645,23.063 7.348,23.063 L3.731,23.063 L2.887,23.851 L5.892,24.983 C6.316,24.948 6.735,25.175 6.901,25.593 L8.336,29.180 L8.970,28.546 L8.970,24.965 C8.970,24.673 9.098,24.396 9.319,24.207 L16.309,18.215 C16.551,18.006 16.877,17.926 17.190,18.002 C17.500,18.075 17.756,18.293 17.880,18.588 L22.314,29.198 L23.869,27.646 L20.975,14.189 C20.902,13.852 21.009,13.501 21.258,13.261 L28.306,6.454 C30.486,4.273 29.953,2.537 29.691,2.192 Z" class="cls-1"/>
</svg>
