<svg xmlns="http://www.w3.org/2000/svg" xmlns:xlink="http://www.w3.org/1999/xlink" preserveAspectRatio="xMidYMid" width="31.906" height="31.969" viewBox="0 0 31.906 31.969">
  <defs>
    <style>
      .cls-1 {
        fill: #1b1b1b;
        fill-rule: evenodd;
      }
    </style>
  </defs>
  <path d="M31.612,11.715 C31.223,12.106 30.592,12.107 30.201,11.717 L21.931,3.454 L21.931,26.981 C21.931,29.732 19.248,31.969 15.949,31.969 C12.650,31.969 9.966,29.732 9.966,26.981 C9.966,24.220 12.650,21.974 15.949,21.974 C17.516,21.974 18.932,22.492 20.000,23.320 L20.000,0.969 C20.000,0.565 20.180,0.278 20.552,0.123 C20.924,-0.032 21.352,0.053 21.638,0.338 L31.610,10.302 C32.000,10.691 32.000,11.324 31.612,11.715 ZM15.949,23.973 C13.749,23.973 11.960,25.322 11.960,26.981 C11.960,28.602 13.786,29.970 15.949,29.970 C18.111,29.970 19.937,28.602 19.937,26.981 C19.937,25.322 18.148,23.973 15.949,23.973 ZM15.000,13.969 L1.000,13.969 C0.449,13.969 -0.005,13.561 -0.005,13.009 C-0.005,12.457 0.441,12.009 0.992,12.009 L14.952,12.009 C15.502,12.009 15.949,12.457 15.949,13.009 C15.949,13.561 15.551,13.969 15.000,13.969 ZM15.000,7.969 L1.000,7.969 C0.449,7.969 -0.005,7.563 -0.005,7.011 C-0.005,6.459 0.441,6.012 0.992,6.012 L14.952,6.012 C15.502,6.012 15.949,6.459 15.949,7.011 C15.949,7.563 15.551,7.969 15.000,7.969 ZM15.000,1.969 L1.000,1.969 C0.449,1.969 -0.005,1.566 -0.005,1.014 C-0.005,0.462 0.441,0.014 0.992,0.014 L14.952,0.014 C15.502,0.014 15.949,0.462 15.949,1.014 C15.949,1.566 15.551,1.969 15.000,1.969 Z" class="cls-1"/>
</svg>
