<svg xmlns="http://www.w3.org/2000/svg" xmlns:xlink="http://www.w3.org/1999/xlink" preserveAspectRatio="xMidYMid" width="32" height="32" viewBox="0 0 32 32">
  <defs>
    <style>
      .cls-1 {
        fill: #1b1b1b;
        fill-rule: evenodd;
      }
    </style>
  </defs>
  <path d="M27.313,27.314 C24.291,30.335 20.273,32.000 16.000,32.000 C11.726,32.000 7.708,30.335 4.686,27.314 C1.665,24.292 -0.000,20.273 -0.000,16.000 C-0.000,11.726 1.665,7.708 4.686,4.686 C7.708,1.664 11.726,0.000 16.000,0.000 C20.273,0.000 24.291,1.664 27.313,4.686 C30.335,7.708 32.000,11.726 32.000,16.000 C32.000,20.273 30.335,24.292 27.313,27.314 ZM25.899,6.101 C23.255,3.456 19.739,2.000 16.000,2.000 C12.260,2.000 8.744,3.456 6.101,6.101 C3.457,8.745 2.000,12.260 2.000,16.000 C2.000,19.739 3.457,23.255 6.101,25.899 C8.744,28.543 12.260,30.000 16.000,30.000 C19.739,30.000 23.255,28.543 25.899,25.899 C28.544,23.255 30.000,19.739 30.000,16.000 C30.000,12.260 28.544,8.745 25.899,6.101 ZM23.001,17.000 L17.001,17.000 L17.001,23.000 C17.001,23.552 16.553,24.000 16.001,24.000 C15.448,24.000 15.001,23.552 15.001,23.000 L15.001,17.000 L9.001,17.000 C8.449,17.000 8.001,16.552 8.001,16.000 C8.001,15.448 8.449,15.000 9.001,15.000 L15.001,15.000 L15.001,9.000 C15.001,8.448 15.448,8.000 16.001,8.000 C16.553,8.000 17.001,8.448 17.001,9.000 L17.001,15.000 L23.001,15.000 C23.553,15.000 24.001,15.448 24.001,16.000 C24.001,16.552 23.553,17.000 23.001,17.000 Z" class="cls-1"/>
</svg>
