<svg xmlns="http://www.w3.org/2000/svg" xmlns:xlink="http://www.w3.org/1999/xlink" preserveAspectRatio="xMidYMid" width="28" height="32" viewBox="0 0 28 32">
  <defs>
    <style>
      .cls-1 {
        fill: #1b1b1b;
        fill-rule: evenodd;
      }
    </style>
  </defs>
  <path d="M14.000,32.000 C6.280,32.000 0.000,25.805 0.000,18.189 C0.000,12.168 3.898,6.887 9.697,5.047 C10.228,4.882 10.787,5.172 10.953,5.698 C11.120,6.224 10.829,6.786 10.303,6.953 C5.337,8.528 2.000,13.044 2.000,18.189 C2.000,24.702 7.383,30.000 14.000,30.000 C20.617,30.000 26.000,24.702 26.000,18.189 C26.000,13.043 22.664,8.528 17.698,6.953 C17.171,6.786 16.880,6.224 17.047,5.698 C17.214,5.172 17.778,4.879 18.302,5.047 C24.103,6.886 28.000,12.167 28.000,18.189 C28.000,25.805 21.720,32.000 14.000,32.000 ZM14.000,12.000 C13.447,12.000 13.000,11.552 13.000,11.000 L13.000,1.000 C13.000,0.448 13.447,0.000 14.000,0.000 C14.553,0.000 15.000,0.448 15.000,1.000 L15.000,11.000 C15.000,11.552 14.553,12.000 14.000,12.000 Z" class="cls-1"/>
</svg>
