<svg xmlns="http://www.w3.org/2000/svg" xmlns:xlink="http://www.w3.org/1999/xlink" preserveAspectRatio="xMidYMid" width="32" height="30.031" viewBox="0 0 32 30.031">
  <defs>
    <style>
      .cls-1 {
        fill: #1b1b1b;
        fill-rule: evenodd;
      }
    </style>
  </defs>
  <path d="M31.000,15.062 L29.998,15.062 L29.998,27.619 C29.998,27.958 29.998,28.391 29.900,28.787 C29.672,29.703 28.996,30.028 28.440,30.028 L4.492,30.028 C3.351,30.028 2.000,28.723 2.000,27.619 L2.000,15.062 L1.000,15.062 C0.448,15.062 -0.000,14.778 -0.000,14.233 L-0.000,8.871 C-0.000,8.165 -0.025,7.062 2.000,7.062 L5.871,7.062 C5.083,6.318 4.467,5.306 4.467,3.952 C4.467,1.331 5.812,0.003 8.466,0.003 C10.065,0.003 13.593,1.292 16.463,5.890 C19.333,1.288 22.865,0.003 24.465,0.003 C27.119,0.003 28.465,1.331 28.465,3.952 C28.465,5.306 27.849,6.318 27.061,7.062 L30.000,7.062 C30.336,7.062 31.279,7.323 31.642,7.683 C32.000,8.036 31.999,8.461 31.998,8.802 L31.998,14.233 C31.998,14.778 31.552,15.062 31.000,15.062 ZM16.999,28.057 L27.991,28.054 C27.998,27.907 27.998,27.744 27.998,27.642 L28.000,15.062 L16.999,15.062 L16.999,28.057 ZM8.466,1.977 C7.438,1.977 6.466,1.977 6.466,3.952 C6.466,6.100 9.679,6.935 9.711,6.943 C9.805,6.967 9.882,7.016 9.961,7.062 L14.854,7.062 C11.903,2.221 8.502,1.977 8.466,1.977 ZM14.999,9.062 L2.000,9.062 C1.803,9.062 2.108,9.303 2.000,9.312 L2.000,13.062 L14.999,13.062 L14.999,9.062 ZM14.999,15.062 L4.000,15.062 L4.000,27.619 C4.046,27.687 4.397,28.013 4.566,28.061 L14.999,28.058 L14.999,15.062 ZM23.220,6.943 C23.253,6.935 26.465,6.100 26.465,3.952 C26.465,1.977 25.494,1.977 24.465,1.977 C24.429,1.977 21.028,2.221 18.078,7.062 L22.969,7.062 C23.048,7.016 23.126,6.967 23.220,6.943 ZM30.000,9.062 L16.999,9.062 L16.999,13.062 L30.000,13.062 L30.000,9.062 Z" class="cls-1"/>
</svg>
