<svg xmlns="http://www.w3.org/2000/svg" xmlns:xlink="http://www.w3.org/1999/xlink" preserveAspectRatio="xMidYMid" width="32" height="32" viewBox="0 0 32 32">
  <defs>
    <style>
      .cls-1 {
        fill: #1b1b1b;
        fill-rule: evenodd;
      }
    </style>
  </defs>
  <path d="M30.000,26.013 L25.916,26.013 L25.916,30.998 C25.916,31.551 25.469,31.999 24.916,31.999 L6.916,31.999 C6.363,31.999 6.000,31.553 6.000,31.000 L6.000,26.013 L2.000,26.013 C0.898,26.013 0.000,25.116 0.000,24.011 L0.000,9.999 C0.000,8.895 0.898,7.997 2.000,7.997 L6.000,7.997 L6.000,1.002 C6.000,0.449 6.447,0.001 7.000,0.001 L25.000,0.001 C25.553,0.001 26.000,0.449 26.000,1.002 L26.000,7.997 L30.000,7.997 C31.103,7.997 32.000,8.895 32.000,9.999 L32.000,24.011 C32.000,25.116 31.103,26.013 30.000,26.013 ZM7.916,25.002 C7.916,25.006 7.918,25.009 7.918,25.012 C7.918,25.016 7.916,25.019 7.916,25.022 L7.916,29.998 L24.000,30.000 L24.000,25.410 C23.947,25.288 23.916,25.154 23.916,25.012 C23.916,24.871 23.947,24.737 24.000,24.615 L24.000,19.000 L7.916,18.987 L7.916,25.002 ZM24.000,2.003 L8.000,2.003 L8.000,7.997 L24.000,7.997 L24.000,2.003 ZM30.000,9.999 L25.059,9.999 C25.038,10.000 25.021,10.010 25.000,10.010 L7.000,10.010 C6.979,10.010 6.962,10.000 6.942,9.999 L2.000,9.999 L2.000,24.011 L6.000,24.011 L6.000,18.000 C6.000,17.447 6.363,16.986 6.916,16.986 L24.916,16.986 C25.469,16.986 25.916,17.434 25.916,17.986 L25.916,24.011 L30.000,24.011 L30.000,9.999 ZM24.000,13.013 C24.000,12.460 24.447,12.012 25.000,12.012 L26.000,12.012 C26.553,12.012 27.000,12.460 27.000,13.013 C27.000,13.566 26.553,14.014 26.000,14.014 L25.000,14.014 C24.447,14.014 24.000,13.566 24.000,13.013 Z" class="cls-1"/>
</svg>
