<svg id="Layer_1" data-name="Layer 1" xmlns="http://www.w3.org/2000/svg" viewBox="0 0 32 32"><title>print_32</title><path d="M29.85,9.38H24.5V2a2,2,0,0,0-2-2H9.5a2,2,0,0,0-2,2V9.38H2.15A2.15,2.15,0,0,0,0,11.53V24.22a2.16,2.16,0,0,0,2.15,2.16H7.5V30a2,2,0,0,0,2,2h13a2,2,0,0,0,2-2V26.38h5.35A2.16,2.16,0,0,0,32,24.22V11.53A2.15,2.15,0,0,0,29.85,9.38ZM9.5,2h13V9.38H9.5Zm13,28H9.5V24.5h13ZM30,15H27.25a1,1,0,0,0,0,2H30v7.22a.16.16,0,0,1-.15.16H24.49a2,2,0,0,0-2-1.88H9.5a2,2,0,0,0-2,1.88H2.15A.16.16,0,0,1,2,24.22V11.53a.15.15,0,0,1,.15-.15h27.7a.15.15,0,0,1,.15.15Z"/></svg>