<svg xmlns="http://www.w3.org/2000/svg" xmlns:xlink="http://www.w3.org/1999/xlink" preserveAspectRatio="xMidYMid" width="31.719" height="32" viewBox="0 0 31.719 32">
  <defs>
    <style>
      .cls-1 {
        fill: #1b1b1b;
        fill-rule: evenodd;
      }
    </style>
  </defs>
  <path d="M27.647,11.910 L29.981,14.265 C30.552,14.841 30.867,15.609 30.867,16.427 C30.867,17.246 30.552,18.013 29.981,18.589 L17.572,31.106 C17.001,31.683 16.240,32.000 15.429,32.000 C14.618,32.000 13.857,31.683 13.286,31.106 L0.876,18.589 C-0.303,17.396 -0.303,15.458 0.875,14.266 L3.092,12.032 C3.701,11.416 4.479,11.142 5.232,11.280 C5.982,11.419 6.617,11.955 6.971,12.752 C6.983,12.777 8.203,15.427 10.331,15.427 C12.596,15.427 14.438,13.569 14.438,11.285 C14.438,9.139 11.812,7.908 11.785,7.896 C10.997,7.539 10.464,6.900 10.326,6.142 C10.188,5.386 10.460,4.598 11.071,3.982 L13.287,1.748 C14.427,0.596 16.431,0.595 17.572,1.748 L19.907,4.104 C20.745,1.721 22.979,-0.000 25.625,-0.000 C28.983,-0.000 31.715,2.755 31.715,6.142 C31.715,8.811 30.008,11.064 27.647,11.910 ZM25.625,2.000 C23.360,2.000 21.518,3.858 21.518,6.142 C21.518,6.170 21.505,6.193 21.503,6.221 C21.494,6.323 21.481,6.426 21.442,6.523 C21.341,6.769 21.148,6.964 20.905,7.065 C20.789,7.113 20.667,7.137 20.544,7.139 C20.538,7.139 20.533,7.142 20.527,7.142 C20.527,7.142 20.527,7.142 20.526,7.142 C20.397,7.142 20.269,7.116 20.147,7.065 C20.035,7.018 19.936,6.948 19.849,6.865 C19.842,6.858 19.832,6.856 19.825,6.849 L16.170,3.162 C15.777,2.765 15.081,2.765 14.689,3.162 L12.473,5.396 C12.334,5.537 12.259,5.684 12.276,5.781 C12.294,5.878 12.417,5.990 12.598,6.072 C12.754,6.142 16.421,7.837 16.421,11.285 C16.421,14.672 13.689,17.427 10.331,17.427 C6.912,17.427 5.232,13.728 5.162,13.570 C5.082,13.389 4.971,13.265 4.875,13.247 C4.781,13.234 4.633,13.305 4.494,13.446 L2.277,15.680 C1.871,16.091 1.871,16.763 2.279,17.176 L14.689,29.692 C15.082,30.090 15.777,30.089 16.169,29.693 L28.579,17.175 C28.989,16.763 28.989,16.092 28.579,15.679 L24.924,11.992 C24.833,11.900 24.760,11.789 24.710,11.667 C24.660,11.546 24.635,11.418 24.634,11.289 C24.634,11.288 24.633,11.286 24.633,11.285 C24.633,11.283 24.635,11.281 24.635,11.280 C24.635,11.151 24.661,11.023 24.710,10.903 C24.810,10.658 25.004,10.463 25.246,10.362 C25.367,10.311 25.496,10.285 25.625,10.285 C27.890,10.285 29.732,8.427 29.732,6.142 C29.732,3.858 27.890,2.000 25.625,2.000 Z" class="cls-1"/>
</svg>
