<svg xmlns="http://www.w3.org/2000/svg" xmlns:xlink="http://www.w3.org/1999/xlink" preserveAspectRatio="xMidYMid" width="32" height="32" viewBox="0 0 32 32">
  <defs>
    <style>
      .cls-1 {
        fill: #1b1b1b;
        fill-rule: evenodd;
      }
    </style>
  </defs>
  <path d="M16.000,32.000 C7.178,32.000 -0.000,24.822 -0.000,16.000 C-0.000,7.178 7.178,0.000 16.000,0.000 C24.822,0.000 32.000,7.178 32.000,16.000 C32.000,24.822 24.822,32.000 16.000,32.000 ZM16.000,2.000 C8.280,2.000 2.000,8.280 2.000,16.000 C2.000,23.720 8.280,30.000 16.000,30.000 C23.720,30.000 30.000,23.720 30.000,16.000 C30.000,8.280 23.720,2.000 16.000,2.000 ZM18.977,16.379 C16.887,18.072 16.995,19.998 16.996,20.018 C17.045,20.567 16.638,21.053 16.088,21.102 C16.058,21.104 16.028,21.105 15.999,21.105 C15.486,21.105 15.050,20.714 15.004,20.193 C14.993,20.073 14.776,17.208 17.718,14.824 C18.653,14.067 19.000,13.369 19.000,12.248 C19.000,10.516 17.654,9.106 16.000,9.106 C14.319,9.106 13.002,10.424 13.002,12.107 C13.002,12.660 12.554,13.107 12.002,13.107 C11.450,13.107 11.002,12.660 11.002,12.107 C11.002,9.303 13.197,7.105 16.000,7.105 C18.757,7.105 21.000,9.412 21.000,12.248 C21.000,13.972 20.376,15.245 18.977,16.379 ZM16.690,23.290 C16.880,23.479 16.990,23.729 16.990,24.000 C16.990,24.270 16.880,24.520 16.690,24.710 C16.510,24.890 16.250,25.000 15.990,25.000 C15.720,25.000 15.460,24.890 15.280,24.710 C15.090,24.520 14.990,24.270 14.990,24.000 C14.990,23.729 15.090,23.479 15.280,23.290 C15.650,22.920 16.320,22.920 16.690,23.290 Z" class="cls-1"/>
</svg>
