<svg xmlns="http://www.w3.org/2000/svg" xmlns:xlink="http://www.w3.org/1999/xlink" preserveAspectRatio="xMidYMid" width="27" height="31.875" viewBox="0 0 27 31.875">
  <defs>
    <style>
      .cls-1 {
        fill: #1b1b1b;
        fill-rule: evenodd;
      }
    </style>
  </defs>
  <path d="M27.000,15.942 C27.000,21.884 23.003,27.192 17.279,28.851 C17.186,28.878 17.092,28.891 17.000,28.891 C16.566,28.891 16.167,28.608 16.040,28.173 C15.886,27.645 16.190,27.092 16.721,26.939 C21.596,25.526 25.000,21.004 25.000,15.942 C25.000,10.951 21.822,6.907 17.046,5.503 L18.853,8.452 C19.142,8.922 18.992,9.535 18.521,9.821 C18.358,9.920 18.179,9.967 18.001,9.967 C17.664,9.967 17.335,9.797 17.147,9.490 L14.147,4.594 C14.124,4.557 14.121,4.516 14.104,4.478 C14.075,4.415 14.049,4.355 14.034,4.286 C14.019,4.218 14.017,4.151 14.017,4.082 C14.017,4.041 14.002,4.002 14.007,3.959 C14.009,3.939 14.021,3.924 14.025,3.905 C14.037,3.835 14.063,3.773 14.089,3.708 C14.112,3.651 14.132,3.594 14.164,3.543 C14.196,3.494 14.238,3.454 14.279,3.410 C14.328,3.356 14.376,3.305 14.436,3.263 C14.451,3.253 14.459,3.237 14.475,3.228 L19.475,0.157 C19.946,-0.133 20.560,0.013 20.852,0.482 C21.141,0.950 20.995,1.563 20.525,1.852 L17.656,3.614 C23.196,5.292 27.000,10.144 27.000,15.942 ZM12.923,28.149 C12.899,28.213 12.876,28.275 12.840,28.332 C12.812,28.377 12.777,28.415 12.742,28.455 C12.693,28.511 12.641,28.561 12.580,28.605 C12.559,28.620 12.547,28.643 12.524,28.657 L7.524,31.727 C7.361,31.827 7.180,31.875 7.001,31.875 C6.665,31.875 6.338,31.707 6.148,31.402 C5.859,30.934 6.005,30.320 6.476,30.032 L9.345,28.270 C3.804,26.590 -0.000,21.738 -0.000,15.942 C-0.000,10.001 3.997,4.693 9.721,3.033 C10.251,2.878 10.806,3.184 10.960,3.710 C11.114,4.238 10.810,4.791 10.279,4.945 C5.404,6.359 2.000,10.881 2.000,15.942 C2.000,20.931 5.178,24.976 9.954,26.382 L8.147,23.431 C7.858,22.962 8.008,22.349 8.479,22.063 C8.949,21.776 9.566,21.924 9.854,22.394 L12.854,27.291 C12.876,27.328 12.879,27.369 12.896,27.408 C12.925,27.470 12.951,27.530 12.966,27.598 C12.981,27.667 12.983,27.733 12.983,27.802 C12.983,27.844 12.998,27.883 12.993,27.926 C12.991,27.947 12.979,27.964 12.975,27.984 C12.965,28.042 12.944,28.094 12.923,28.149 Z" class="cls-1"/>
</svg>
