<svg xmlns="http://www.w3.org/2000/svg" xmlns:xlink="http://www.w3.org/1999/xlink" preserveAspectRatio="xMidYMid" width="29" height="32" viewBox="0 0 29 32">
  <defs>
    <style>
      .cls-1 {
        fill: #1b1b1b;
        fill-rule: evenodd;
      }
    </style>
  </defs>
  <path d="M22.563,26.826 C22.109,27.137 21.486,27.020 21.174,26.564 C20.862,26.107 20.980,25.485 21.437,25.174 C24.816,22.867 27.000,18.677 27.000,14.500 C27.000,7.607 21.393,2.000 14.500,2.000 C7.607,2.000 2.000,7.607 2.000,14.500 C2.000,21.312 7.480,26.859 14.261,26.988 L12.147,23.521 C11.858,23.049 12.008,22.434 12.480,22.146 C12.948,21.857 13.565,22.007 13.854,22.479 L16.854,27.397 C16.856,27.401 16.856,27.406 16.859,27.411 C16.895,27.473 16.911,27.546 16.934,27.616 C16.952,27.674 16.981,27.729 16.988,27.788 C16.989,27.795 16.993,27.800 16.994,27.807 C17.000,27.859 16.983,27.906 16.981,27.956 C16.978,28.030 16.981,28.103 16.962,28.174 C16.945,28.239 16.910,28.293 16.881,28.352 C16.853,28.409 16.833,28.466 16.795,28.517 C16.748,28.578 16.687,28.623 16.628,28.673 C16.591,28.703 16.566,28.743 16.524,28.769 L11.524,31.851 C11.361,31.952 11.180,32.000 11.001,32.000 C10.665,32.000 10.338,31.832 10.148,31.525 C9.859,31.055 10.005,30.438 10.476,30.149 L12.572,28.856 C5.487,27.909 0.000,21.840 0.000,14.500 C0.000,6.505 6.505,-0.000 14.500,-0.000 C22.495,-0.000 29.000,6.505 29.000,14.500 C29.000,19.319 26.474,24.157 22.563,26.826 Z" class="cls-1"/>
</svg>
