<svg xmlns="http://www.w3.org/2000/svg" xmlns:xlink="http://www.w3.org/1999/xlink" preserveAspectRatio="xMidYMid" width="32" height="24" viewBox="0 0 32 24">
  <defs>
    <style>
      .cls-1 {
        fill: #1b1b1b;
        fill-rule: evenodd;
      }
    </style>
  </defs>
  <path d="M30.550,24.000 C30.234,24.000 29.908,23.896 29.607,23.698 L20.003,17.795 L20.003,22.378 C20.003,22.786 19.891,23.152 19.679,23.436 C19.411,23.794 19.001,24.000 18.553,24.000 L18.553,24.000 C18.237,24.000 17.911,23.896 17.610,23.698 L0.817,13.037 C0.291,12.693 -0.000,12.182 0.009,11.630 C0.016,11.079 0.321,10.579 0.844,10.258 L17.630,0.267 C17.917,0.092 18.222,-0.000 18.531,-0.000 C19.262,-0.000 20.003,0.561 20.003,1.635 L20.003,6.214 L29.614,0.275 C29.914,0.092 30.219,-0.000 30.528,-0.000 C31.259,-0.000 32.000,0.561 32.000,1.635 L32.000,22.378 C32.000,23.442 31.271,24.000 30.550,24.000 ZM19.003,15.007 C19.185,15.007 19.366,15.057 19.526,15.156 L30.000,21.594 L30.001,2.388 L19.528,8.857 C19.222,9.049 18.834,9.056 18.516,8.880 C18.200,8.703 18.003,8.369 18.003,8.007 L18.003,2.372 L2.390,11.666 L18.002,21.579 L18.003,16.007 C18.003,15.645 18.200,15.311 18.515,15.134 C18.667,15.049 18.835,15.007 19.003,15.007 Z" class="cls-1"/>
</svg>
