<svg xmlns="http://www.w3.org/2000/svg" xmlns:xlink="http://www.w3.org/1999/xlink" preserveAspectRatio="xMidYMid" width="32.126" height="32" viewBox="0 0 32.126 32">
  <defs>
    <style>
      .cls-1 {
        fill: #1b1b1b;
        fill-rule: evenodd;
      }
    </style>
  </defs>
  <path d="M29.525,14.941 C25.397,18.993 21.824,20.764 18.046,22.620 L18.046,26.998 C18.046,27.215 17.976,27.425 17.845,27.598 L14.835,31.598 C14.644,31.853 14.345,31.998 14.033,31.998 C13.980,31.998 13.926,31.994 13.872,31.985 C13.504,31.926 13.199,31.667 13.081,31.314 L11.149,25.538 L6.467,20.872 L0.671,18.947 C0.317,18.830 0.058,18.526 -0.002,18.159 C-0.062,17.791 0.088,17.421 0.387,17.199 L4.400,14.199 C4.574,14.069 4.785,13.999 5.002,13.999 L9.395,13.999 C11.259,10.234 13.034,6.672 17.102,2.559 C18.780,0.861 22.167,-0.000 27.169,-0.000 C29.331,-0.000 30.957,0.169 31.025,0.177 C31.495,0.227 31.866,0.597 31.916,1.065 C32.031,2.133 32.931,11.595 29.525,14.941 ZM29.994,2.098 C29.333,2.052 28.326,2.000 27.169,2.000 C22.850,2.000 19.782,2.697 18.530,3.964 C14.665,7.873 12.962,11.313 11.160,14.956 L10.919,15.442 C10.749,15.783 10.401,15.998 10.019,15.998 L5.336,15.998 L3.123,17.654 L7.326,19.050 C7.474,19.099 7.609,19.182 7.718,19.291 L12.735,24.291 C12.845,24.401 12.928,24.534 12.977,24.682 L14.378,28.871 L16.039,26.665 L16.039,21.998 C16.039,21.618 16.256,21.271 16.598,21.102 L17.082,20.865 C20.738,19.068 24.192,17.370 28.116,13.517 C30.214,11.456 30.220,5.196 29.994,2.098 ZM22.060,13.856 C19.926,13.856 18.189,12.126 18.189,9.999 C18.189,7.872 19.926,6.141 22.060,6.141 C24.194,6.141 25.930,7.872 25.930,9.999 C25.930,12.126 24.194,13.856 22.060,13.856 ZM22.060,7.856 C20.874,7.856 19.910,8.817 19.910,9.999 C19.910,11.180 20.874,12.141 22.060,12.141 C23.245,12.141 24.210,11.180 24.210,9.999 C24.210,8.817 23.245,7.856 22.060,7.856 ZM5.751,23.031 C6.286,22.894 6.834,23.209 6.976,23.744 C7.117,24.278 6.796,24.824 6.261,24.965 C5.633,25.130 3.832,25.730 3.052,26.508 C2.618,26.941 2.254,28.475 2.081,29.979 C3.699,29.901 5.346,29.617 5.759,29.206 C6.503,28.464 6.929,26.490 7.019,25.858 C7.097,25.311 7.606,24.934 8.153,25.008 C8.702,25.086 9.083,25.592 9.006,26.139 C8.961,26.456 8.525,29.277 7.177,30.620 C5.926,31.867 2.595,32.000 1.241,32.000 C1.141,32.000 1.051,31.999 0.975,31.998 C0.702,31.994 0.443,31.880 0.257,31.682 C0.071,31.484 -0.028,31.219 -0.014,30.947 C0.024,30.207 0.279,26.443 1.633,25.094 C2.936,23.794 5.467,23.106 5.751,23.031 Z" class="cls-1"/>
</svg>
