<svg xmlns="http://www.w3.org/2000/svg" xmlns:xlink="http://www.w3.org/1999/xlink" preserveAspectRatio="xMidYMid" width="32" height="32" viewBox="0 0 32 32">
  <defs>
    <style>
      .cls-1 {
        fill: #1b1b1b;
        fill-rule: evenodd;
      }
    </style>
  </defs>
  <path d="M31.130,18.991 L27.805,19.427 C27.557,20.287 27.213,21.117 26.778,21.906 L28.812,24.573 C29.115,24.971 29.079,25.530 28.727,25.885 L25.970,28.661 C25.620,29.014 25.067,29.055 24.667,28.762 L21.941,26.756 C21.145,27.197 20.306,27.547 19.435,27.800 L18.991,31.132 C18.925,31.629 18.501,32.000 18.000,32.000 L14.000,32.000 C13.497,32.000 13.073,31.627 13.008,31.128 L12.580,27.810 C11.721,27.561 10.894,27.222 10.106,26.792 L7.424,28.814 C7.027,29.115 6.471,29.077 6.118,28.727 L3.339,25.970 C2.989,25.621 2.945,25.069 3.236,24.670 L5.225,21.945 C4.776,21.135 4.422,20.283 4.169,19.402 L0.876,18.992 C0.376,18.930 0.000,18.505 0.000,18.000 L0.000,14.000 C0.000,13.496 0.374,13.071 0.874,13.008 L4.190,12.587 C4.448,11.708 4.802,10.863 5.249,10.064 L3.196,7.436 C2.885,7.039 2.919,6.473 3.274,6.115 L6.033,3.339 C6.386,2.983 6.948,2.944 7.348,3.248 L10.042,5.298 C10.844,4.853 11.690,4.502 12.569,4.248 L13.008,0.871 C13.073,0.373 13.498,0.000 14.000,0.000 L18.000,0.000 C18.506,0.000 18.932,0.377 18.992,0.879 L19.404,4.245 C20.254,4.490 21.075,4.828 21.859,5.254 L24.574,3.186 C24.970,2.886 25.528,2.921 25.885,3.273 L28.661,6.032 C29.016,6.384 29.056,6.943 28.755,7.343 L26.722,10.043 C27.173,10.845 27.529,11.690 27.787,12.571 L31.130,13.009 C31.628,13.073 32.000,13.498 32.000,14.000 L32.000,18.000 C32.000,18.502 31.628,18.927 31.130,18.991 ZM30.000,14.878 L26.861,14.467 C26.448,14.413 26.111,14.107 26.017,13.701 C25.755,12.571 25.304,11.500 24.676,10.519 C24.450,10.167 24.468,9.712 24.719,9.378 L26.633,6.836 L25.093,5.306 L22.540,7.249 C22.211,7.500 21.760,7.521 21.409,7.304 C20.433,6.700 19.377,6.269 18.274,6.019 C17.862,5.927 17.553,5.585 17.502,5.165 L17.115,2.000 L14.878,2.000 L14.465,5.176 C14.411,5.592 14.104,5.929 13.695,6.022 C12.563,6.279 11.490,6.725 10.505,7.347 C10.153,7.570 9.698,7.551 9.366,7.297 L6.834,5.370 L5.315,6.899 L7.248,9.372 C7.509,9.707 7.531,10.169 7.303,10.526 C6.674,11.510 6.223,12.584 5.960,13.720 C5.866,14.127 5.528,14.434 5.112,14.486 L2.000,14.881 L2.000,17.117 L5.092,17.502 C5.511,17.554 5.852,17.863 5.944,18.275 C6.197,19.400 6.642,20.477 7.268,21.472 C7.485,21.818 7.470,22.263 7.228,22.594 L5.358,25.155 L6.912,26.696 L9.433,24.795 C9.763,24.544 10.212,24.525 10.562,24.743 C11.537,25.349 12.594,25.783 13.706,26.034 C14.115,26.127 14.422,26.466 14.476,26.882 L14.879,30.000 L17.124,30.000 L17.541,26.869 C17.596,26.455 17.902,26.119 18.309,26.026 C19.427,25.771 20.490,25.328 21.470,24.713 C21.817,24.494 22.265,24.511 22.595,24.754 L25.158,26.640 L26.694,25.094 L24.781,22.586 C24.528,22.255 24.508,21.802 24.729,21.449 C25.340,20.472 25.778,19.413 26.030,18.301 C26.123,17.893 26.461,17.585 26.876,17.531 L30.000,17.122 L30.000,14.878 ZM16.000,22.019 C12.691,22.019 10.000,19.327 10.000,16.019 C10.000,12.710 12.691,10.019 16.000,10.019 C19.309,10.019 22.000,12.710 22.000,16.019 C22.000,19.327 19.309,22.019 16.000,22.019 ZM16.000,12.019 C13.794,12.019 12.000,13.812 12.000,16.019 C12.000,18.225 13.794,20.019 16.000,20.019 C18.206,20.019 20.000,18.225 20.000,16.019 C20.000,13.812 18.206,12.019 16.000,12.019 Z" class="cls-1"/>
</svg>
