<svg xmlns="http://www.w3.org/2000/svg" xmlns:xlink="http://www.w3.org/1999/xlink" preserveAspectRatio="xMidYMid" width="32" height="32" viewBox="0 0 32 32">
  <defs>
    <style>
      .cls-1 {
        fill: #1b1b1b;
        fill-rule: evenodd;
      }
    </style>
  </defs>
  <path d="M27.000,10.000 C25.408,10.000 24.003,9.238 23.087,8.075 L9.811,14.713 C9.922,15.126 10.000,15.552 10.000,16.000 C10.000,16.409 9.937,16.800 9.844,17.180 L23.089,23.923 C24.005,22.761 25.409,22.000 27.000,22.000 C29.757,22.000 32.000,24.243 32.000,27.000 C32.000,29.757 29.757,32.000 27.000,32.000 C24.243,32.000 22.000,29.757 22.000,27.000 C22.000,26.551 22.079,26.124 22.190,25.710 L8.985,18.987 C8.072,20.202 6.633,21.000 5.000,21.000 C2.243,21.000 -0.000,18.757 -0.000,16.000 C-0.000,13.243 2.243,11.000 5.000,11.000 C6.592,11.000 7.997,11.762 8.913,12.925 L22.189,6.287 C22.078,5.874 22.000,5.448 22.000,5.000 C22.000,2.243 24.243,0.000 27.000,0.000 C29.757,0.000 32.000,2.243 32.000,5.000 C32.000,7.757 29.757,10.000 27.000,10.000 ZM27.000,30.000 C28.654,30.000 30.000,28.654 30.000,27.000 C30.000,25.346 28.654,24.000 27.000,24.000 C25.346,24.000 24.000,25.346 24.000,27.000 C24.000,28.654 25.346,30.000 27.000,30.000 ZM5.000,13.000 C3.346,13.000 2.000,14.346 2.000,16.000 C2.000,17.654 3.346,19.000 5.000,19.000 C6.654,19.000 8.000,17.654 8.000,16.000 C8.000,14.346 6.654,13.000 5.000,13.000 ZM27.000,2.000 C25.346,2.000 24.000,3.346 24.000,5.000 C24.000,6.654 25.346,8.000 27.000,8.000 C28.654,8.000 30.000,6.654 30.000,5.000 C30.000,3.346 28.654,2.000 27.000,2.000 Z" class="cls-1"/>
</svg>
