<svg xmlns="http://www.w3.org/2000/svg" xmlns:xlink="http://www.w3.org/1999/xlink" preserveAspectRatio="xMidYMid" width="31.906" height="29.906" viewBox="0 0 31.906 29.906">
  <defs>
    <style>
      .cls-1 {
        fill: #1b1b1b;
        fill-rule: evenodd;
      }
    </style>
  </defs>
  <path d="M31.610,7.679 L25.628,13.661 C25.433,13.856 25.178,13.953 24.923,13.953 C24.667,13.953 24.412,13.856 24.218,13.661 C23.828,13.272 23.828,12.641 24.218,12.251 L28.564,7.906 L21.000,7.906 C14.952,7.906 9.966,12.891 9.966,18.938 C9.966,19.489 9.520,19.935 8.968,19.935 C8.417,19.935 7.971,19.489 7.971,18.938 C7.971,11.792 13.787,5.978 20.934,5.978 L28.498,5.978 L24.218,1.698 C23.828,1.308 23.828,0.677 24.218,0.288 C24.607,-0.101 25.238,-0.101 25.628,0.288 L31.610,6.270 C32.000,6.659 32.000,7.290 31.610,7.679 ZM9.000,7.906 L2.000,7.906 L1.988,27.911 L28.000,27.906 L28.000,15.906 C28.000,15.355 28.360,14.950 28.911,14.950 C29.462,14.950 29.908,15.396 29.908,15.947 L29.908,27.911 C29.908,29.010 29.013,29.905 27.914,29.905 L1.988,29.905 C0.889,29.905 -0.006,29.010 -0.006,27.911 L-0.006,7.972 C-0.006,6.872 0.889,5.978 1.988,5.978 L8.968,5.978 C9.520,5.978 9.966,6.424 9.966,6.975 C9.966,7.526 9.551,7.906 9.000,7.906 Z" class="cls-1"/>
</svg>
