<svg xmlns="http://www.w3.org/2000/svg" xmlns:xlink="http://www.w3.org/1999/xlink" preserveAspectRatio="xMidYMid" width="26" height="31.844" viewBox="0 0 26 31.844">
  <defs>
    <style>
      .cls-1 {
        fill: #1b1b1b;
        fill-rule: evenodd;
      }
    </style>
  </defs>
  <path d="M25.988,11.910 C25.989,12.098 25.994,15.782 24.476,20.063 C22.432,25.829 18.582,29.882 13.341,31.783 C13.334,31.786 13.327,31.785 13.321,31.787 C13.218,31.822 13.110,31.844 13.000,31.844 C12.889,31.844 12.782,31.822 12.679,31.787 C12.672,31.785 12.665,31.786 12.658,31.783 C7.419,29.882 3.569,25.829 1.524,20.063 C0.006,15.782 0.011,12.098 0.012,11.910 C0.012,11.910 0.012,11.910 0.012,11.909 L0.012,5.929 C0.012,4.830 0.908,3.936 2.010,3.936 L3.945,3.936 C3.951,3.936 3.956,3.939 3.961,3.939 C3.967,3.939 3.971,3.936 3.977,3.936 C9.838,3.936 12.028,0.565 12.119,0.421 C12.487,-0.163 13.523,-0.163 13.884,0.427 C13.971,0.564 16.164,3.936 22.023,3.936 C22.029,3.936 22.034,3.939 22.039,3.939 C22.045,3.939 22.050,3.936 22.056,3.936 L23.990,3.936 C25.091,3.936 25.988,4.830 25.988,5.929 L25.988,11.909 C25.988,11.910 25.988,11.910 25.988,11.910 ZM23.990,11.909 L23.990,5.929 L22.056,5.929 C22.050,5.929 22.045,5.926 22.039,5.926 C22.034,5.926 22.029,5.929 22.023,5.929 C17.067,5.929 14.263,3.803 13.000,2.484 C11.737,3.803 8.933,5.929 3.977,5.929 C3.971,5.929 3.967,5.926 3.961,5.926 C3.956,5.926 3.951,5.929 3.945,5.929 L2.010,5.929 L2.010,11.909 C2.010,11.911 2.009,11.912 2.009,11.913 C2.009,11.914 2.010,11.915 2.010,11.916 C2.009,12.053 2.076,25.505 13.000,29.760 C23.926,25.505 23.991,12.054 23.990,11.916 C23.990,11.915 23.990,11.914 23.990,11.913 C23.990,11.912 23.990,11.911 23.990,11.909 ZM17.702,20.588 C17.507,20.782 17.252,20.880 16.996,20.880 C16.740,20.880 16.485,20.782 16.290,20.588 L13.000,17.306 L9.710,20.588 C9.515,20.782 9.259,20.880 9.003,20.880 C8.748,20.880 8.492,20.782 8.297,20.588 C7.907,20.198 7.907,19.568 8.297,19.178 L11.587,15.896 L8.297,12.614 C7.907,12.225 7.907,11.594 8.297,11.205 C8.687,10.815 9.319,10.815 9.710,11.205 L13.000,14.487 L16.290,11.205 C16.680,10.815 17.312,10.815 17.702,11.205 C18.093,11.594 18.093,12.225 17.702,12.614 L14.412,15.896 L17.702,19.178 C18.093,19.568 18.093,20.198 17.702,20.588 Z" class="cls-1"/>
</svg>
