<svg xmlns="http://www.w3.org/2000/svg" xmlns:xlink="http://www.w3.org/1999/xlink" preserveAspectRatio="xMidYMid" width="31.906" height="27.906" viewBox="0 0 31.906 27.906">
  <defs>
    <style>
      .cls-1 {
        fill: #1b1b1b;
        fill-rule: evenodd;
      }
    </style>
  </defs>
  <path d="M31.611,5.684 L27.628,9.671 C27.433,9.865 27.179,9.963 26.924,9.963 C26.669,9.963 26.414,9.865 26.219,9.671 C25.830,9.281 25.830,8.650 26.219,8.261 L28.572,5.906 L25.000,5.906 C24.264,5.906 23.188,6.332 22.756,6.928 L11.747,22.141 C10.942,23.253 9.642,23.917 8.269,23.917 L0.988,23.917 C0.438,23.917 -0.008,23.471 -0.008,22.920 C-0.008,22.369 0.438,21.924 0.988,21.924 L8.269,21.924 C9.005,21.924 9.702,21.567 10.133,20.972 L15.381,13.721 C15.365,13.704 15.342,13.697 15.328,13.678 L10.148,6.807 C9.729,6.288 8.698,5.906 8.000,5.906 L1.000,5.906 C0.450,5.906 -0.008,5.530 -0.008,4.979 C-0.008,4.428 0.438,3.982 0.988,3.982 L8.377,3.982 C9.681,3.982 10.898,4.564 11.718,5.579 L16.593,12.046 L21.144,5.758 C21.948,4.646 23.249,3.982 24.621,3.982 L28.502,3.982 L26.217,1.697 C25.828,1.307 25.828,0.676 26.217,0.287 C26.607,-0.102 27.237,-0.102 27.626,0.287 L31.609,4.273 C31.702,4.365 31.775,4.476 31.826,4.598 C31.875,4.717 31.899,4.843 31.901,4.970 C31.901,4.973 31.902,4.976 31.902,4.979 C31.902,5.275 31.794,5.514 31.614,5.678 C31.613,5.680 31.612,5.682 31.611,5.684 ZM19.830,17.137 L22.749,21.090 C23.164,21.608 23.820,21.924 24.522,21.924 L28.502,21.924 L26.217,19.638 C25.828,19.249 25.828,18.618 26.217,18.229 C26.607,17.839 27.237,17.839 27.626,18.229 L31.609,22.214 C31.702,22.307 31.775,22.417 31.826,22.540 C31.875,22.659 31.900,22.785 31.901,22.912 C31.901,22.915 31.902,22.917 31.902,22.920 C31.902,22.924 31.901,22.927 31.900,22.930 C31.899,23.056 31.875,23.182 31.826,23.301 C31.775,23.424 31.702,23.534 31.609,23.626 L27.628,27.612 C27.433,27.807 27.179,27.904 26.924,27.904 C26.669,27.904 26.414,27.807 26.219,27.612 C25.830,27.223 25.830,26.592 26.219,26.203 L28.502,23.917 L24.522,23.917 C23.212,23.917 21.990,23.329 21.170,22.305 L18.227,18.320 C17.900,17.877 17.995,17.253 18.437,16.926 C18.880,16.599 19.504,16.695 19.830,17.137 Z" class="cls-1"/>
</svg>
