<svg xmlns="http://www.w3.org/2000/svg" xmlns:xlink="http://www.w3.org/1999/xlink" preserveAspectRatio="xMidYMid" width="32" height="28" viewBox="0 0 32 28">
  <defs>
    <style>
      .cls-1 {
        fill: #1b1b1b;
        fill-rule: evenodd;
      }
    </style>
  </defs>
  <path d="M30.000,22.000 L12.469,22.000 L7.769,27.640 C7.574,27.873 7.291,28.000 7.000,28.000 C6.886,28.000 6.771,27.980 6.659,27.940 C6.264,27.797 6.000,27.421 6.000,27.000 L6.000,22.000 L2.000,22.000 C0.898,22.000 0.000,21.103 0.000,20.000 L0.000,2.000 C0.000,0.897 0.898,-0.000 2.000,-0.000 L30.000,-0.000 C31.103,-0.000 32.000,0.897 32.000,2.000 L32.000,20.000 C32.000,21.103 31.103,22.000 30.000,22.000 ZM30.000,2.000 L2.000,2.000 L2.000,20.000 L7.000,20.000 C7.553,20.000 8.000,20.448 8.000,21.000 L8.000,24.238 L11.231,20.360 C11.241,20.348 11.256,20.343 11.267,20.332 C11.315,20.279 11.373,20.241 11.432,20.199 C11.481,20.165 11.525,20.126 11.577,20.101 C11.632,20.075 11.693,20.066 11.752,20.050 C11.820,20.032 11.885,20.012 11.955,20.009 C11.971,20.008 11.984,20.000 12.000,20.000 L30.000,20.000 L30.000,2.000 ZM6.000,15.000 C6.000,14.448 6.447,14.000 7.000,14.000 L19.000,14.000 C19.553,14.000 20.000,14.448 20.000,15.000 C20.000,15.552 19.553,16.000 19.000,16.000 L7.000,16.000 C6.447,16.000 6.000,15.552 6.000,15.000 ZM6.000,11.000 C6.000,10.448 6.447,10.000 7.000,10.000 L25.000,10.000 C25.553,10.000 26.000,10.448 26.000,11.000 C26.000,11.552 25.553,12.000 25.000,12.000 L7.000,12.000 C6.447,12.000 6.000,11.552 6.000,11.000 ZM25.000,8.000 L7.000,8.000 C6.447,8.000 6.000,7.552 6.000,7.000 C6.000,6.448 6.447,6.000 7.000,6.000 L25.000,6.000 C25.553,6.000 26.000,6.448 26.000,7.000 C26.000,7.552 25.553,8.000 25.000,8.000 Z" class="cls-1"/>
</svg>
