<svg xmlns="http://www.w3.org/2000/svg" xmlns:xlink="http://www.w3.org/1999/xlink" preserveAspectRatio="xMidYMid" width="32" height="29.875" viewBox="0 0 32 29.875">
  <defs>
    <style>
      .cls-1 {
        fill: #1b1b1b;
        fill-rule: evenodd;
      }
    </style>
  </defs>
  <path d="M24.521,29.727 C24.055,30.022 23.437,29.886 23.141,29.422 C22.844,28.959 22.981,28.344 23.447,28.049 C25.125,26.986 26.528,25.512 27.612,23.815 L26.686,23.277 C26.209,23.001 26.047,22.391 26.326,21.917 C26.605,21.443 27.215,21.282 27.693,21.560 L28.576,22.072 C29.326,20.458 29.806,18.708 29.935,16.921 L28.955,16.921 C28.403,16.921 27.955,16.476 27.955,15.926 C27.955,15.376 28.403,14.931 28.955,14.931 L29.949,14.931 C29.819,13.105 29.316,11.388 28.543,9.825 L27.704,10.310 C27.545,10.402 27.373,10.445 27.202,10.445 C26.857,10.445 26.522,10.269 26.336,9.951 C26.059,9.476 26.221,8.867 26.699,8.591 L27.531,8.110 C26.512,6.629 25.229,5.341 23.726,4.346 L23.244,5.196 C23.060,5.520 22.721,5.701 22.372,5.701 C22.206,5.701 22.037,5.660 21.881,5.573 C21.400,5.303 21.231,4.696 21.502,4.217 L21.989,3.360 C20.457,2.635 18.776,2.174 17.000,2.049 L17.000,3.040 C17.000,3.589 16.552,4.034 16.000,4.034 C15.448,4.034 15.000,3.589 15.000,3.040 L15.000,2.049 C13.205,2.176 11.507,2.646 9.962,3.385 L10.451,4.236 C10.724,4.713 10.558,5.321 10.078,5.593 C9.921,5.683 9.751,5.724 9.583,5.724 C9.236,5.724 8.898,5.545 8.713,5.223 L8.227,4.376 C6.750,5.362 5.488,6.632 4.481,8.090 L5.312,8.572 C5.790,8.848 5.951,9.458 5.672,9.933 C5.487,10.249 5.152,10.426 4.808,10.426 C4.637,10.426 4.463,10.382 4.305,10.291 L3.468,9.805 C2.689,11.373 2.182,13.098 2.051,14.931 L3.045,14.931 C3.597,14.931 4.045,15.376 4.045,15.926 C4.045,16.476 3.597,16.921 3.045,16.921 L2.065,16.921 C2.193,18.706 2.666,20.450 3.407,22.056 L4.296,21.541 C4.774,21.266 5.385,21.426 5.664,21.901 C5.941,22.376 5.779,22.985 5.301,23.261 L4.369,23.800 C5.460,25.511 6.879,26.990 8.577,28.044 C9.045,28.335 9.187,28.949 8.895,29.414 C8.706,29.717 8.379,29.883 8.046,29.883 C7.865,29.883 7.682,29.834 7.517,29.732 C2.880,26.851 -0.000,21.562 -0.000,15.926 C-0.000,13.036 0.787,10.331 2.148,7.996 C2.162,7.967 2.163,7.935 2.179,7.906 C2.190,7.887 2.209,7.877 2.221,7.859 C3.623,5.507 5.617,3.541 7.997,2.166 C8.025,2.146 8.042,2.118 8.073,2.100 C8.096,2.087 8.122,2.087 8.146,2.076 C10.469,0.768 13.145,0.011 16.000,0.011 C18.835,0.011 21.495,0.756 23.807,2.048 C23.828,2.058 23.850,2.057 23.871,2.068 C23.899,2.084 23.915,2.110 23.940,2.128 C26.356,3.509 28.377,5.498 29.792,7.882 C29.804,7.899 29.822,7.910 29.833,7.929 C29.853,7.962 29.854,7.999 29.869,8.034 C31.217,10.361 32.000,13.051 32.000,15.926 C32.000,21.432 29.065,26.849 24.521,29.727 ZM16.000,13.937 C16.369,13.937 16.710,14.043 17.007,14.217 L22.508,11.127 C22.990,10.860 23.600,11.026 23.871,11.504 C24.142,11.983 23.973,12.590 23.492,12.860 L17.998,15.946 C17.987,17.033 17.096,17.915 16.000,17.915 C14.897,17.915 14.000,17.023 14.000,15.926 C14.000,14.829 14.897,13.937 16.000,13.937 Z" class="cls-1"/>
</svg>
