<svg xmlns="http://www.w3.org/2000/svg" xmlns:xlink="http://www.w3.org/1999/xlink" preserveAspectRatio="xMidYMid" width="31.688" height="31.875" viewBox="0 0 31.688 31.875">
  <defs>
    <style>
      .cls-1 {
        fill: #1b1b1b;
        fill-rule: evenodd;
      }
    </style>
  </defs>
  <path d="M25.730,31.862 C25.422,31.862 25.103,31.752 24.784,31.532 L16.117,25.578 C16.048,25.529 15.618,25.529 15.546,25.578 L6.882,31.532 C6.163,32.025 5.383,31.931 4.976,31.390 C4.791,31.144 4.611,30.708 4.804,30.030 L7.420,20.741 C7.476,20.543 7.372,20.135 7.228,19.989 L0.488,13.102 C-0.176,12.424 -0.035,11.767 0.057,11.515 C0.148,11.265 0.463,10.673 1.404,10.585 L10.323,9.748 C10.523,9.729 10.853,9.488 10.933,9.303 L14.516,1.004 C14.902,0.112 15.565,0.015 15.832,0.015 C16.099,0.015 16.763,0.112 17.148,1.003 L20.734,9.305 C20.813,9.490 21.143,9.729 21.343,9.748 L30.262,10.583 C31.206,10.674 31.520,11.266 31.611,11.517 C31.701,11.768 31.842,12.425 31.178,13.102 L24.437,19.988 C24.293,20.135 24.190,20.542 24.246,20.739 L26.862,30.033 C27.054,30.708 26.874,31.144 26.689,31.390 C26.463,31.691 26.114,31.862 25.730,31.862 ZM15.832,23.523 C16.350,23.523 16.849,23.670 17.236,23.936 L24.487,28.917 L22.339,21.282 C22.089,20.403 22.383,19.246 23.024,18.592 L29.021,12.466 L21.159,11.730 C20.244,11.643 19.279,10.941 18.915,10.095 L15.833,2.959 L12.751,10.096 C12.384,10.943 11.420,11.644 10.508,11.730 L2.647,12.467 L8.641,18.593 C9.280,19.244 9.575,20.400 9.327,21.282 L7.177,28.916 L14.428,23.936 C14.816,23.670 15.315,23.523 15.832,23.523 Z" class="cls-1"/>
</svg>
