<svg xmlns="http://www.w3.org/2000/svg" xmlns:xlink="http://www.w3.org/1999/xlink" preserveAspectRatio="xMidYMid" width="31.812" height="32" viewBox="0 0 31.812 32">
  <defs>
    <style>
      .cls-1 {
        fill: #1b1b1b;
        fill-rule: evenodd;
      }
    </style>
  </defs>
  <path d="M30.811,15.490 L15.399,31.406 C15.015,31.792 14.516,32.000 13.984,32.000 C13.451,32.000 12.952,31.792 12.578,31.415 L0.569,19.336 C-0.206,18.556 -0.206,17.288 0.569,16.508 L16.413,0.991 C16.979,0.420 17.989,0.000 18.804,0.000 L29.816,0.000 C30.913,0.000 31.805,0.897 31.805,2.000 L31.805,13.076 C31.805,13.896 31.387,14.911 30.811,15.490 ZM29.816,2.000 L18.804,2.000 C18.520,2.000 18.009,2.213 17.809,2.414 L1.966,17.931 L13.984,30.001 L13.984,30.000 C13.985,30.000 13.986,30.000 13.986,29.999 L29.395,14.086 C29.605,13.875 29.816,13.361 29.816,13.076 L29.816,2.000 ZM23.851,12.000 C21.657,12.000 19.874,10.206 19.874,8.000 C19.874,5.794 21.657,4.000 23.851,4.000 C26.044,4.000 27.828,5.794 27.828,8.000 C27.828,10.206 26.044,12.000 23.851,12.000 ZM23.851,6.000 C22.755,6.000 21.862,6.897 21.862,8.000 C21.862,9.103 22.755,10.000 23.851,10.000 C24.947,10.000 25.839,9.103 25.839,8.000 C25.839,6.897 24.947,6.000 23.851,6.000 Z" class="cls-1"/>
</svg>
