<svg xmlns="http://www.w3.org/2000/svg" xmlns:xlink="http://www.w3.org/1999/xlink" preserveAspectRatio="xMidYMid" width="32" height="32" viewBox="0 0 32 32">
  <defs>
    <style>
      .cls-1 {
        fill: #1b1b1b;
        fill-rule: evenodd;
      }
    </style>
  </defs>
  <path d="M31.000,17.000 L27.952,17.000 C27.469,22.819 22.820,27.466 17.000,27.949 L17.000,31.000 C17.000,31.553 16.553,32.000 16.000,32.000 C15.447,32.000 15.000,31.553 15.000,31.000 L15.000,27.949 C9.180,27.466 4.531,22.819 4.048,17.000 L1.000,17.000 C0.447,17.000 0.000,16.553 0.000,16.000 C0.000,15.447 0.447,15.000 1.000,15.000 L4.048,15.000 C4.532,9.181 9.180,4.534 15.000,4.051 L15.000,1.000 C15.000,0.447 15.447,0.000 16.000,0.000 C16.553,0.000 17.000,0.447 17.000,1.000 L17.000,4.051 C22.820,4.534 27.468,9.181 27.952,15.000 L31.000,15.000 C31.553,15.000 32.000,15.447 32.000,16.000 C32.000,16.553 31.553,17.000 31.000,17.000 ZM17.000,25.949 C21.717,25.479 25.478,21.717 25.949,17.000 L22.907,17.000 C22.464,20.050 20.055,22.456 17.000,22.899 L17.000,25.949 ZM17.000,15.000 L20.890,15.000 C20.491,13.046 18.955,11.500 17.000,11.101 L17.000,15.000 ZM20.890,17.000 L17.000,17.000 L17.000,20.899 C18.955,20.500 20.491,18.954 20.890,17.000 ZM15.000,17.000 L11.110,17.000 C11.509,18.954 13.045,20.500 15.000,20.899 L15.000,17.000 ZM15.000,25.949 L15.000,22.899 C11.945,22.456 9.536,20.050 9.093,17.000 L6.051,17.000 C6.522,21.717 10.283,25.479 15.000,25.949 ZM15.000,6.051 C10.283,6.521 6.522,10.283 6.051,15.000 L9.093,15.000 C9.536,11.950 11.945,9.544 15.000,9.101 L15.000,6.051 ZM11.110,15.000 L15.000,15.000 L15.000,11.101 C13.045,11.500 11.509,13.046 11.110,15.000 ZM17.000,6.051 L17.000,9.101 C20.055,9.544 22.464,11.950 22.907,15.000 L25.949,15.000 C25.478,10.283 21.717,6.521 17.000,6.051 Z" class="cls-1"/>
</svg>
