<svg xmlns="http://www.w3.org/2000/svg" xmlns:xlink="http://www.w3.org/1999/xlink" preserveAspectRatio="xMidYMid" width="26" height="32" viewBox="0 0 26 32">
  <defs>
    <style>
      .cls-1 {
        fill: #1b1b1b;
        fill-rule: evenodd;
      }
    </style>
  </defs>
  <path d="M25.000,7.000 L23.887,7.000 L21.112,30.126 C20.986,31.177 20.059,32.000 19.000,32.000 L7.000,32.000 C5.941,32.000 5.014,31.177 4.888,30.126 L2.113,7.000 L1.000,7.000 C0.447,7.000 0.000,6.552 0.000,6.000 C0.000,5.448 0.447,5.000 1.000,5.000 L8.000,5.000 L8.000,3.000 C8.000,1.346 9.346,-0.000 11.000,-0.000 L15.000,-0.000 C16.654,-0.000 18.000,1.346 18.000,3.000 L18.000,5.000 L25.000,5.000 C25.553,5.000 26.000,5.448 26.000,6.000 C26.000,6.552 25.553,7.000 25.000,7.000 ZM16.000,3.000 C16.000,2.449 15.552,2.000 15.000,2.000 L11.000,2.000 C10.448,2.000 10.000,2.449 10.000,3.000 L10.000,5.000 L16.000,5.000 L16.000,3.000 ZM4.127,7.000 L6.874,29.888 C6.879,29.931 6.957,30.000 7.000,30.000 L19.000,30.000 C19.043,30.000 19.121,29.931 19.126,29.888 L21.873,7.000 L4.127,7.000 Z" class="cls-1"/>
</svg>
