<svg xmlns="http://www.w3.org/2000/svg" xmlns:xlink="http://www.w3.org/1999/xlink" preserveAspectRatio="xMidYMid" width="32" height="32" viewBox="0 0 32 32">
  <defs>
    <style>
      .cls-1 {
        fill: #1b1b1b;
        fill-rule: evenodd;
      }
    </style>
  </defs>
  <path d="M32.000,13.807 C32.000,14.842 31.138,16.000 29.984,16.000 L17.000,16.000 L17.000,26.963 C17.000,29.740 14.745,32.000 11.973,32.000 C9.185,32.000 7.000,29.804 7.000,27.000 C7.000,26.448 7.447,26.000 8.000,26.000 C8.553,26.000 9.000,26.448 9.000,27.000 C9.000,28.682 10.306,30.000 11.973,30.000 C13.642,30.000 15.000,28.638 15.000,26.963 L15.000,16.000 L2.016,16.000 C0.828,16.000 0.000,14.869 0.000,13.855 C0.000,6.398 7.388,2.359 15.000,2.032 L15.000,1.000 C15.000,0.448 15.447,0.000 16.000,0.000 C16.553,0.000 17.000,0.448 17.000,1.000 L17.000,2.032 C24.612,2.357 32.000,6.381 32.000,13.807 ZM16.000,4.000 C10.372,4.000 2.000,6.625 2.000,13.855 C2.004,13.899 2.063,13.993 2.103,14.018 L15.956,14.009 C15.972,14.008 15.984,14.000 16.000,14.000 C16.015,14.000 16.028,14.008 16.043,14.009 L29.900,14.000 C29.946,13.951 29.997,13.856 30.000,13.804 C30.000,6.612 21.628,4.000 16.000,4.000 Z" class="cls-1"/>
</svg>
