<svg xmlns="http://www.w3.org/2000/svg" xmlns:xlink="http://www.w3.org/1999/xlink" preserveAspectRatio="xMidYMid" width="32" height="28" viewBox="0 0 32 28">
  <defs>
    <style>
      .cls-1 {
        fill: #1b1b1b;
        fill-rule: evenodd;
      }
    </style>
  </defs>
  <path d="M24.128,23.922 C23.577,23.989 23.080,23.603 23.012,23.054 C22.943,22.506 23.331,22.006 23.879,21.937 C27.369,21.500 30.000,18.518 30.000,15.000 C30.000,11.140 26.860,8.000 23.000,8.000 C22.868,8.000 22.736,8.008 22.604,8.023 C22.140,8.077 21.702,7.802 21.546,7.360 C20.423,4.154 17.390,2.000 14.000,2.000 C9.589,2.000 6.000,5.589 6.000,10.000 C6.000,10.369 6.032,10.744 6.098,11.149 C6.178,11.634 5.892,12.106 5.425,12.260 C3.376,12.935 2.000,14.841 2.000,17.000 C2.000,19.757 4.243,22.000 7.000,22.000 L8.004,22.000 C8.556,22.000 9.004,22.448 9.004,23.000 C9.004,23.552 8.556,24.000 8.004,24.000 L7.000,24.000 C3.140,24.000 -0.000,20.860 -0.000,17.000 C-0.000,14.256 1.588,11.805 4.026,10.667 C4.009,10.442 4.000,10.221 4.000,10.000 C4.000,4.486 8.486,-0.000 14.000,-0.000 C17.988,-0.000 21.580,2.383 23.160,6.001 C28.049,6.087 32.000,10.091 32.000,15.000 C32.000,19.524 28.616,23.359 24.128,23.922 ZM12.707,22.293 L15.000,24.586 L15.000,15.000 C15.000,14.448 15.448,14.000 16.000,14.000 C16.552,14.000 17.000,14.448 17.000,15.000 L17.000,24.586 L19.293,22.293 C19.684,21.902 20.316,21.902 20.707,22.293 C21.098,22.684 21.098,23.316 20.707,23.707 L16.707,27.707 C16.615,27.799 16.504,27.872 16.382,27.923 C16.260,27.973 16.130,28.000 16.000,28.000 C15.870,28.000 15.740,27.973 15.618,27.923 C15.495,27.872 15.385,27.799 15.293,27.707 L11.293,23.707 C10.902,23.316 10.902,22.684 11.293,22.293 C11.684,21.902 12.316,21.902 12.707,22.293 Z" class="cls-1"/>
</svg>
