<svg xmlns="http://www.w3.org/2000/svg" xmlns:xlink="http://www.w3.org/1999/xlink" preserveAspectRatio="xMidYMid" width="31.906" height="31.812" viewBox="0 0 31.906 31.812">
  <defs>
    <style>
      .cls-1 {
        fill: #1b1b1b;
        fill-rule: evenodd;
      }
    </style>
  </defs>
  <path d="M31.320,21.272 C30.943,21.648 30.442,21.855 29.910,21.855 C29.378,21.855 28.877,21.648 28.501,21.273 C28.123,20.896 27.915,20.396 27.915,19.865 C27.915,19.695 27.971,19.538 28.012,19.378 L25.746,17.117 C26.083,19.708 25.588,22.589 24.230,24.730 L25.629,26.126 C26.019,26.515 26.019,27.145 25.629,27.533 L21.641,31.513 C21.446,31.708 21.191,31.805 20.936,31.805 C20.681,31.805 20.426,31.708 20.231,31.513 L16.242,27.533 C15.853,27.145 15.853,26.515 16.242,26.126 L20.231,22.146 C20.620,21.758 21.251,21.758 21.641,22.146 L22.758,23.261 C24.231,20.567 24.231,16.516 22.742,14.277 L21.641,15.376 C21.446,15.571 21.191,15.668 20.936,15.668 C20.681,15.668 20.426,15.571 20.231,15.376 L16.242,11.396 C15.853,11.008 15.853,10.378 16.242,9.989 L17.297,8.937 C14.994,7.601 11.143,7.660 8.547,9.080 L9.675,10.206 C10.065,10.595 10.065,11.224 9.675,11.613 L5.687,15.593 C5.492,15.787 5.237,15.885 4.982,15.885 C4.727,15.885 4.472,15.787 4.277,15.593 L0.289,11.613 C-0.101,11.224 -0.101,10.595 0.289,10.206 L4.277,6.226 C4.667,5.837 5.297,5.837 5.687,6.226 L7.112,7.648 C9.247,6.296 12.102,5.769 14.682,6.076 L12.450,3.848 C12.289,3.889 12.132,3.944 11.962,3.944 C11.430,3.944 10.930,3.737 10.553,3.362 C10.175,2.985 9.968,2.486 9.968,1.954 C9.968,1.423 10.175,0.923 10.552,0.547 C11.305,-0.205 12.618,-0.205 13.372,0.547 C13.749,0.921 13.956,1.421 13.956,1.952 C13.956,2.123 13.901,2.280 13.860,2.441 L18.833,7.404 L20.231,6.009 C20.620,5.620 21.251,5.620 21.641,6.009 L25.629,9.989 C26.019,10.378 26.019,11.008 25.629,11.396 L24.231,12.791 L29.433,17.982 C30.094,17.827 30.824,17.963 31.320,18.458 C31.696,18.832 31.904,19.331 31.904,19.863 C31.905,20.395 31.697,20.896 31.320,21.272 ZM20.936,24.257 L18.357,26.830 L20.936,29.403 L23.514,26.830 L20.936,24.257 ZM4.982,8.336 L2.404,10.909 L4.982,13.482 L7.560,10.909 L4.982,8.336 ZM20.936,8.120 L18.357,10.693 L20.936,13.266 L23.514,10.693 L20.936,8.120 Z" class="cls-1"/>
</svg>
