<svg xmlns="http://www.w3.org/2000/svg" xmlns:xlink="http://www.w3.org/1999/xlink" preserveAspectRatio="xMidYMid" width="30.906" height="27.938" viewBox="0 0 30.906 27.938">
  <defs>
    <style>
      .cls-1 {
        fill: #1b1b1b;
        fill-rule: evenodd;
      }
    </style>
  </defs>
  <path d="M27.329,13.972 L30.612,17.257 C31.002,17.647 31.002,18.278 30.612,18.667 C30.418,18.862 30.163,18.960 29.907,18.960 C29.652,18.960 29.397,18.862 29.203,18.667 L25.919,15.383 L22.636,18.667 C22.441,18.862 22.186,18.960 21.931,18.960 C21.676,18.960 21.421,18.862 21.226,18.667 C20.837,18.278 20.837,17.647 21.226,17.257 L24.509,13.972 L21.226,10.687 C20.837,10.298 20.837,9.667 21.226,9.277 C21.616,8.887 22.247,8.887 22.636,9.277 L25.919,12.562 L29.203,9.277 C29.592,8.887 30.223,8.887 30.612,9.277 C31.002,9.667 31.002,10.298 30.612,10.687 L27.329,13.972 ZM17.354,27.850 C17.223,27.909 17.084,27.937 16.946,27.937 C16.706,27.937 16.470,27.851 16.283,27.685 L7.593,19.957 L2.987,19.957 C1.338,19.957 -0.004,18.615 -0.004,16.965 L-0.004,10.980 C-0.004,9.330 1.338,7.987 2.987,7.987 L7.593,7.987 L16.283,0.259 C16.578,-0.002 16.997,-0.068 17.354,0.095 C17.713,0.256 17.943,0.612 17.943,1.005 L17.943,26.940 C17.943,27.332 17.713,27.689 17.354,27.850 ZM16.000,2.938 L8.635,9.730 C8.382,9.955 8.052,10.010 7.746,9.938 L3.000,9.938 C2.450,9.938 1.990,10.429 1.990,10.980 L1.990,16.965 C1.990,17.515 2.438,17.962 2.987,17.962 L7.972,17.962 C8.019,17.962 8.060,17.983 8.105,17.989 C8.180,17.999 8.254,18.006 8.326,18.034 C8.394,18.060 8.450,18.102 8.509,18.141 C8.551,18.168 8.597,18.181 8.635,18.214 L16.000,24.938 L16.000,2.938 Z" class="cls-1"/>
</svg>
