<svg xmlns="http://www.w3.org/2000/svg" xmlns:xlink="http://www.w3.org/1999/xlink" preserveAspectRatio="xMidYMid" width="26" height="27.938" viewBox="0 0 26 27.938">
  <defs>
    <style>
      .cls-1 {
        fill: #1b1b1b;
        fill-rule: evenodd;
      }
    </style>
  </defs>
  <path d="M21.000,18.959 C20.448,18.959 20.000,18.512 20.000,17.961 C20.000,17.410 20.448,16.964 21.000,16.964 C22.654,16.964 24.000,15.621 24.000,13.971 C24.000,12.321 22.654,10.979 21.000,10.979 C20.448,10.979 20.000,10.532 20.000,9.981 C20.000,9.430 20.448,8.984 21.000,8.984 C23.757,8.984 26.000,11.221 26.000,13.971 C26.000,16.721 23.757,18.959 21.000,18.959 ZM17.410,27.848 C17.278,27.908 17.139,27.936 17.000,27.936 C16.760,27.936 16.522,27.849 16.335,27.684 L7.620,19.956 L3.000,19.956 C1.346,19.956 -0.000,18.614 -0.000,16.964 L-0.000,10.979 C-0.000,9.328 1.346,7.986 3.000,7.986 L7.620,7.986 L16.335,0.258 C16.631,-0.003 17.051,-0.069 17.410,0.094 C17.769,0.254 18.000,0.611 18.000,1.004 L18.000,26.939 C18.000,27.331 17.769,27.688 17.410,27.848 ZM16.000,3.225 L8.665,9.729 C8.412,9.953 8.082,10.008 7.777,9.938 L3.000,9.938 C2.449,9.938 2.000,10.428 2.000,10.979 L2.000,16.964 C2.000,17.514 2.449,17.961 3.000,17.961 L8.000,17.961 C8.047,17.961 8.088,17.982 8.134,17.988 C8.209,17.998 8.282,18.005 8.354,18.032 C8.423,18.058 8.479,18.101 8.540,18.140 C8.580,18.167 8.627,18.180 8.665,18.213 L16.000,24.717 L16.000,3.225 Z" class="cls-1"/>
</svg>
