<svg xmlns="http://www.w3.org/2000/svg" xmlns:xlink="http://www.w3.org/1999/xlink" preserveAspectRatio="xMidYMid" width="32" height="29.906" viewBox="0 0 32 29.906">
  <defs>
    <style>
      .cls-1 {
        fill: #1b1b1b;
        fill-rule: evenodd;
      }
    </style>
  </defs>
  <path d="M31.995,26.917 C31.995,28.566 30.650,29.908 28.996,29.908 L2.999,29.908 C1.345,29.908 -0.000,28.566 -0.000,26.917 L-0.000,8.976 C-0.000,7.327 1.345,5.985 2.999,5.985 L3.999,5.985 L3.999,2.654 C3.999,1.831 4.343,1.078 4.942,0.586 C5.538,0.094 6.343,-0.099 7.154,0.059 L29.129,3.022 C31.289,3.492 31.940,5.133 31.993,5.937 L31.995,6.979 C31.995,6.980 31.995,6.980 31.995,6.981 C31.995,6.981 31.995,6.982 31.995,6.982 L31.995,26.917 ZM28.781,4.983 L6.830,2.026 C6.550,1.972 6.350,2.012 6.213,2.125 C6.075,2.238 5.999,2.426 5.999,2.654 L5.999,5.985 L27.996,5.985 C28.425,5.983 29.411,5.985 29.805,5.591 C29.641,5.364 29.342,5.106 28.781,4.983 ZM29.996,7.723 C29.210,7.979 28.418,7.961 28.016,7.979 L2.999,7.979 C2.448,7.979 2.000,8.426 2.000,8.976 L2.000,26.917 C2.000,27.467 2.448,27.914 2.999,27.914 L28.996,27.914 C29.547,27.914 29.996,27.467 29.996,26.917 L29.996,7.723 ZM5.923,19.940 C4.820,19.940 3.923,19.046 3.923,17.947 C3.923,16.847 4.820,15.953 5.923,15.953 C7.025,15.953 7.923,16.847 7.923,17.947 C7.923,19.046 7.025,19.940 5.923,19.940 Z" class="cls-1"/>
</svg>
