<svg xmlns="http://www.w3.org/2000/svg" xmlns:xlink="http://www.w3.org/1999/xlink" preserveAspectRatio="xMidYMid" width="31.625" height="31.625" viewBox="0 0 31.625 31.625">
  <defs>
    <style>
      .cls-1 {
        fill: #1b1b1b;
        fill-rule: evenodd;
      }
    </style>
  </defs>
  <path d="M28.865,16.091 C27.046,17.912 24.652,18.863 22.221,18.863 C20.968,18.863 19.711,18.595 18.512,18.080 L7.898,30.241 C7.891,30.249 7.881,30.251 7.873,30.259 C7.865,30.268 7.862,30.281 7.853,30.290 C6.985,31.158 5.829,31.637 4.600,31.637 L4.599,31.637 C3.369,31.637 2.214,31.158 1.345,30.290 C0.476,29.420 -0.003,28.265 -0.003,27.035 C-0.003,25.806 0.476,24.650 1.345,23.782 C1.353,23.774 1.364,23.771 1.372,23.764 C1.381,23.755 1.384,23.744 1.394,23.735 L13.566,13.113 C12.058,9.590 12.793,5.522 15.545,2.771 C17.720,0.594 20.830,-0.386 23.866,0.157 C24.228,0.222 24.525,0.483 24.636,0.834 C24.746,1.185 24.652,1.568 24.392,1.829 L20.783,5.440 L21.821,8.556 C22.018,9.149 22.488,9.619 23.080,9.816 L26.197,10.854 L29.805,7.244 C30.066,6.983 30.451,6.888 30.801,6.999 C31.152,7.109 31.413,7.406 31.478,7.769 C32.021,10.804 31.044,13.916 28.865,16.091 ZM27.164,12.684 C26.899,12.950 26.507,13.041 26.152,12.924 L22.455,11.692 C21.275,11.299 20.337,10.360 19.945,9.181 L18.714,5.486 C18.596,5.131 18.688,4.739 18.953,4.474 L21.393,2.034 C19.729,2.217 18.153,2.957 16.944,4.168 C14.624,6.486 14.090,9.991 15.614,12.891 C15.621,12.904 15.620,12.919 15.626,12.933 C15.830,13.328 15.765,13.819 15.416,14.124 L2.731,25.193 C2.244,25.687 1.974,26.340 1.974,27.035 C1.974,27.737 2.247,28.396 2.742,28.892 C3.730,29.879 5.455,29.882 6.446,28.899 L17.505,16.227 C17.524,16.206 17.550,16.197 17.570,16.178 C17.622,16.128 17.677,16.088 17.737,16.051 C17.786,16.020 17.834,15.992 17.887,15.971 C17.951,15.945 18.015,15.930 18.083,15.918 C18.141,15.908 18.195,15.900 18.254,15.901 C18.319,15.901 18.382,15.911 18.447,15.924 C18.511,15.937 18.571,15.954 18.633,15.980 C18.659,15.991 18.688,15.990 18.714,16.004 C21.622,17.551 25.139,17.024 27.468,14.693 C28.680,13.482 29.421,11.906 29.604,10.242 L27.164,12.684 Z" class="cls-1"/>
</svg>
