<svg xmlns="http://www.w3.org/2000/svg" xmlns:xlink="http://www.w3.org/1999/xlink" preserveAspectRatio="xMidYMid" width="31.906" height="32" viewBox="0 0 31.906 32">
  <defs>
    <style>
      .cls-1 {
        fill: #1b1b1b;
        fill-rule: evenodd;
      }
    </style>
  </defs>
  <path d="M31.610,31.707 C31.416,31.902 31.161,32.000 30.905,32.000 C30.650,32.000 30.395,31.902 30.200,31.707 L19.678,21.155 C17.593,22.926 14.901,24.000 11.960,24.000 C5.362,24.000 -0.006,18.617 -0.006,12.000 C-0.006,5.383 5.362,-0.000 11.960,-0.000 C18.558,-0.000 23.925,5.383 23.925,12.000 C23.925,14.949 22.855,17.649 21.088,19.741 L31.610,30.293 C32.000,30.684 32.000,31.316 31.610,31.707 ZM21.931,12.000 C21.931,6.486 17.458,2.000 11.960,2.000 C6.462,2.000 1.988,6.486 1.988,12.000 C1.988,17.514 6.462,22.000 11.960,22.000 C17.458,22.000 21.931,17.514 21.931,12.000 ZM16.945,13.000 L12.957,13.000 L12.957,17.000 C12.957,17.552 12.511,18.000 11.960,18.000 C11.409,18.000 11.000,17.552 11.000,17.000 L11.000,13.000 L6.974,13.000 C6.423,13.000 5.977,12.552 5.977,12.000 C5.977,11.448 6.423,11.000 6.974,11.000 L11.000,11.000 L11.000,7.000 C11.000,6.448 11.409,6.000 11.960,6.000 C12.511,6.000 12.957,6.448 12.957,7.000 L12.957,11.000 L16.945,11.000 C17.497,11.000 17.943,11.448 17.943,12.000 C17.943,12.552 17.497,13.000 16.945,13.000 Z" class="cls-1"/>
</svg>
