<svg xmlns="http://www.w3.org/2000/svg" xmlns:xlink="http://www.w3.org/1999/xlink" preserveAspectRatio="xMidYMid" width="31.906" height="32" viewBox="0 0 31.906 32">
  <defs>
    <style>
      .cls-1 {
        fill: #1b1b1b;
        fill-rule: evenodd;
      }
    </style>
  </defs>
  <path d="M31.610,31.707 C31.415,31.902 31.160,32.000 30.905,32.000 C30.650,32.000 30.394,31.902 30.200,31.707 L19.678,21.154 C17.592,22.925 14.900,23.999 11.959,23.999 C5.361,23.999 -0.006,18.616 -0.006,12.000 C-0.006,5.383 5.361,-0.000 11.959,-0.000 C18.557,-0.000 23.925,5.383 23.925,12.000 C23.925,14.949 22.854,17.649 21.088,19.740 L31.610,30.293 C31.999,30.684 31.999,31.316 31.610,31.707 ZM21.930,12.000 C21.930,6.486 17.457,2.000 11.959,2.000 C6.461,2.000 1.988,6.486 1.988,12.000 C1.988,17.514 6.461,21.999 11.959,21.999 C17.457,21.999 21.930,17.514 21.930,12.000 ZM16.945,13.000 L6.973,13.000 C6.422,13.000 5.976,12.552 5.976,12.000 C5.976,11.447 6.422,11.000 6.973,11.000 L16.945,11.000 C17.496,11.000 17.942,11.447 17.942,12.000 C17.942,12.552 17.496,13.000 16.945,13.000 Z" class="cls-1"/>
</svg>
